<?xml version="1.0" encoding="UTF-8" standalone="no"?>
<svg width="23px" height="23px" viewBox="0 0 23 23" version="1.1" xmlns="http://www.w3.org/2000/svg" xmlns:xlink="http://www.w3.org/1999/xlink">
    <!-- Generator: sketchtool 40.2 (33826) - http://www.bohemiancoding.com/sketch -->
    <title>D22624DB-6FDB-4056-BBF4-7FBF1410B1D5</title>
    <desc>Created with sketchtool.</desc>
    <defs></defs>
    <g id="Desktop" stroke="none" stroke-width="1" fill="none" fill-rule="evenodd">
        <g id="01_Home" transform="translate(-1004.000000, -30.000000)">
            <g id="Group-23" transform="translate(250.000000, -1.000000)">
                <g id="Group-20" transform="translate(287.000000, 30.000000)">
                    <g id="Group-14" transform="translate(467.000000, 1.000000)">
                        <g id="Group-37">
                            <g id="Group-28">
                                <path d="M11.144648,0 C4.98969954,0 0,4.98984814 0,11.1447966 C0,17.2995965 4.98969954,22.2898162 11.144648,22.2898162 C17.2995965,22.2898162 22.2896676,17.2995965 22.2896676,11.1447966 C22.2896676,4.98969954 17.2995965,0 11.144648,0 L11.144648,0 Z" id="Shape" fill="#840B14"></path>
                                <g id="Page-1" transform="translate(5.000000, 5.000000)" fill="#E4DFCE">
                                    <g id="Group-3" transform="translate(9.935127, 4.846602)">
                                        <path d="M2.40592495,0.0482857143 L0.135511973,0.604641049 C0.345884335,1.54101718 0.426311551,2.48533906 0.379159124,3.41743671 C0.907770939,3.46312477 1.43054784,3.55358409 1.94559742,3.68025769 C2.46916282,2.57671519 2.65398771,1.3151745 2.40592495,0.0482857143" id="Fill-1"></path>
                                    </g>
                                    <path d="M6.69521872,12.0283382 C6.92546134,12.0110714 7.15712326,11.9823445 7.38846978,11.9395597 L6.71004256,9.34129928 C6.04202358,9.53153888 5.40522927,9.78855335 4.80738697,10.1071474 C5.3405721,10.8277658 5.9753163,11.4732052 6.69521872,12.0283382" id="Fill-4"></path>
                                    <path d="M10.2508901,8.99733996 C10.1692013,9.65867089 10.0215937,10.309764 9.81090596,10.9435904 C10.4983221,10.4729575 11.0736132,9.87519259 11.5098126,9.19399729 C11.0952182,9.10078752 10.6751043,9.03401266 10.2508901,8.99733996" id="Fill-6"></path>
                                    <path d="M3.68850248,0.506694394 C3.31538328,1.35520886 3.07000142,2.24681374 2.95961113,3.15889421 C3.65301988,3.16607595 4.35115965,3.09930108 5.0436222,2.95658318 L4.34122453,0.265724231 C4.11681682,0.334638336 3.89934794,0.41562387 3.68850248,0.506694394" id="Fill-8"></path>
                                    <path d="M3.12267336,6.39495389 L5.77172505,5.7458472 L5.2298664,3.67001989 C4.45508423,3.83183816 3.67415174,3.90564195 2.89858107,3.89357052 C2.86341387,4.72283183 2.93784847,5.56233092 3.12267336,6.39495389" id="Fill-10"></path>
                                    <path d="M8.11688803,2.61277667 C7.44334953,2.97950362 6.7234471,3.2744132 5.96585427,3.48925407 L6.50771292,5.56569259 L9.14824879,4.91857233 C8.90207843,4.10016004 8.5554529,3.32667179 8.11688803,2.61277667" id="Fill-12"></path>
                                    <path d="M9.33449299,5.63170344 L6.69395712,6.27867089 L7.26010164,8.44786076 C8.02211007,8.29001537 8.79011113,8.21697559 9.55290807,8.22721338 C9.59785269,7.36769711 9.5262567,6.4959566 9.33449299,5.63170344" id="Fill-14"></path>
                                    <path d="M8.76976777,11.5184349 C9.12995554,10.699717 9.37186799,9.84065913 9.48714699,8.9620425 C8.80793128,8.9568472 8.12461535,9.02255244 7.44650353,9.16145027 L8.12429995,11.757877 C8.34602674,11.6891157 8.56128782,11.6085886 8.76976777,11.5184349" id="Fill-16"></path>
                                    <path d="M3.30891756,7.1083906 C3.56407685,7.95629385 3.92836482,8.75545298 4.38932315,9.49074051 C5.05844604,9.12966727 5.77282896,8.83964738 6.52411377,8.62801537 L5.95796925,6.4591311 L3.30891756,7.1083906 Z" id="Fill-18"></path>
                                    <path d="M4.15261482,10.4894602 C3.79558107,10.7180533 3.45652516,10.9715533 3.1354471,11.2462929 C3.85676883,11.6461781 4.65993708,11.9077767 5.49953412,12.0041953 C5.00120079,11.5422722 4.55017758,11.0355778 4.15261482,10.4894602" id="Fill-20"></path>
                                    <path d="M2.19586799,3.12222152 C2.2751913,2.42727396 2.42768761,1.7430226 2.649099,1.07787161 C1.93108898,1.56729928 1.33403518,2.19470796 0.890108492,2.91150633 C1.32015754,3.01143942 1.75604151,3.08295118 2.19586799,3.12222152" id="Fill-22"></path>
                                    <path d="M12.1552804,4.18160398 C11.7603986,2.97980922 11.0034366,1.97360217 10.0327905,1.24717722 C9.63301988,1.60932007 9.20691334,1.94181917 8.75163223,2.23474231 C9.2267836,3.01082821 9.6016375,3.85231374 9.86657421,4.7423906 L12.1552804,4.18160398 Z" id="Fill-24"></path>
                                    <path d="M0.108702901,7.13375588 L2.3866855,6.57556691 C2.18309425,5.67036257 2.09998613,4.75751808 2.13720343,3.85582821 C1.59581788,3.8080009 1.06058265,3.7124991 0.533705538,3.57925497 C0.037737711,4.66446112 -0.133367247,5.89651085 0.108702901,7.13375588" id="Fill-26"></path>
                                    <path d="M8.35627727,1.61038969 C8.72182685,1.37400362 9.06845237,1.11148825 9.39615385,0.826969259 C8.65685427,0.402635624 7.82750775,0.126367993 6.95952463,0.0255180832 C7.47867442,0.507458409 7.94688697,1.03737884 8.35627727,1.61038969" id="Fill-28"></path>
                                    <path d="M5.76226303,0 C5.53485902,0.0165027125 5.30635111,0.0449240506 5.0776855,0.0863336347 L5.77976777,2.77597016 C6.45582948,2.58206329 7.0990895,2.31939512 7.70308212,1.99453617 C7.15885796,1.24427396 6.50613592,0.573927667 5.76226303,0" id="Fill-30"></path>
                                    <path d="M2.48225195,10.8302107 C2.8747683,10.4799864 3.29235902,10.1581835 3.73723191,9.87366456 C3.23921398,9.07603345 2.84701303,8.20872423 2.57292969,7.28869801 L0.294789399,7.84719259 C0.698344778,9.07557505 1.48006577,10.1004241 2.48225195,10.8302107" id="Fill-32"></path>
                                </g>
                            </g>
                        </g>
                    </g>
                </g>
            </g>
        </g>
    </g>
</svg>