<svg width="23" height="23" viewBox="0 0 23 23" xmlns="http://www.w3.org/2000/svg"><title>182D9D20-9A6A-4EDA-ACAD-43A10D53BC0A</title><path d="M11.145 0C4.99 0 0 4.99 0 11.145 0 17.3 4.99 22.29 11.145 22.29c6.155 0 11.145-4.99 11.145-11.145C22.29 4.99 17.3 0 11.145 0zm.034 16.403H6.35c0-3.482 3.057-3.481 3.735-4.391l.078-.415c-.953-.484-1.626-1.648-1.626-3.01 0-1.795 1.167-3.25 2.607-3.25 1.44 0 2.607 1.455 2.607 3.25 0 1.35-.661 2.508-1.602 2.998l.089.472c.744.866 3.7.923 3.7 4.346h-4.76z" fill="#840B14" fill-rule="evenodd"/></svg>