<?xml version="1.0" encoding="UTF-8" standalone="no"?>
<svg width="23px" height="23px" viewBox="0 0 23 23" version="1.1" xmlns="http://www.w3.org/2000/svg" xmlns:xlink="http://www.w3.org/1999/xlink">
    <!-- Generator: sketchtool 40.2 (33826) - http://www.bohemiancoding.com/sketch -->
    <title>29D890C1-CF7D-44EA-8059-4B5A1D46094B</title>
    <desc>Created with sketchtool.</desc>
    <defs></defs>
    <g id="Desktop" stroke="none" stroke-width="1" fill="none" fill-rule="evenodd">
        <g id="01_Home" transform="translate(-537.000000, -29.000000)" fill="#840B14">
            <g id="Group-23" transform="translate(250.000000, -1.000000)">
                <g id="Group-20" transform="translate(287.000000, 30.000000)">
                    <g id="Group-24">
                        <g id="document">
                            <g id="Group">
                                <rect id="Rectangle-path" x="7.42581511" y="14.4860801" width="6.04111567" height="0.671213507"></rect>
                                <rect id="Rectangle-path" x="7.42581511" y="12.9971688" width="6.04111567" height="0.671213507"></rect>
                                <rect id="Rectangle-path" x="7.42581511" y="11.5083223" width="6.04111567" height="0.671213507"></rect>
                                <rect id="Rectangle-path" x="7.42581511" y="16.0606561" width="6.04111567" height="0.671213507"></rect>
                                <path d="M11.49977,0 C5.14862667,0 0,5.14862667 0,11.49977 C0,17.8509133 5.14862667,22.99954 11.49977,22.99954 C17.8509133,22.99954 22.99954,17.8509133 22.99954,11.49977 C22.99954,5.14862667 17.85099,0 11.49977,0 L11.49977,0 Z M14.7946705,15.5239837 L14.7946705,16.7031688 C14.7946705,17.3544542 14.2667709,17.8823539 13.615809,17.8823539 L7.27713103,17.8823539 C6.62584559,17.8823539 6.09794594,17.3544542 6.09794594,16.7031688 L6.09794594,8.00631475 C6.09794594,7.35502931 6.62571619,6.82712965 7.27713103,6.82712965 L13.6157443,6.82712965 C14.2670297,6.82712965 14.7948,7.35502931 14.7946058,8.00650885 C14.7946705,8.00650885 14.7946705,9.18549984 14.7946705,9.18549984 L14.7946705,15.5239837 L14.7946705,15.5239837 Z M16.3051274,14.0136562 L16.3051274,15.1923237 C16.3051274,15.7252701 15.9514042,16.1753338 15.4658841,16.3213651 L15.4658841,15.523919 L15.4658841,9.18530574 L15.4658841,8.00631475 C15.4658841,6.98603657 14.635893,6.15591615 13.615809,6.15591615 L7.65861116,6.15591615 C7.80477188,5.67046069 8.2545121,5.31667281 8.78765258,5.31667281 L15.1262658,5.31667281 C15.7772277,5.31667281 16.3051274,5.84476657 16.3049333,6.49605201 L16.3049333,7.6751077 L16.3051274,7.6751077 L16.3051274,14.0136562 L16.3051274,14.0136562 Z" id="Shape"></path>
                                <rect id="Rectangle-path" x="7.42581511" y="10.019217" width="6.04111567" height="0.671213507"></rect>
                            </g>
                        </g>
                    </g>
                </g>
            </g>
        </g>
    </g>
</svg>