<svg width="23" height="23" viewBox="0 0 23 23" xmlns="http://www.w3.org/2000/svg"><title>BCE513C4-2D5B-4F02-91FC-5DC20831E940</title><path d="M7.44 6C6.636 6 6 6.676 6 7.463v4.894c0 .798.661 1.467 1.467 1.467h1.16l-.423 2.754a.367.367 0 0 0 .653.279l2.334-3.033h3.365c.79 0 1.466-.63 1.466-1.43v-4.93c0-.8-.662-1.464-1.466-1.464H7.44zm3.705-6C4.99 0 0 4.99 0 11.145 0 17.3 4.99 22.29 11.145 22.29c6.155 0 11.145-4.99 11.145-11.145C22.29 4.99 17.3 0 11.145 0z" fill="#840B14" fill-rule="evenodd"/></svg>