<svg width="23" height="23" viewBox="0 0 23 23" xmlns="http://www.w3.org/2000/svg"><title>29D890C1-CF7D-44EA-8059-4B5A1D46094B</title><g fill="#840B14" fill-rule="evenodd"><path d="M7.426 14.486h6.041v.671H7.426zm0-1.489h6.041v.671H7.426zm0-1.489h6.041v.671H7.426zm0 4.553h6.041v.671H7.426z"/><path d="M11.5 0C5.149 0 0 5.149 0 11.5 0 17.85 5.149 23 11.5 23 17.85 23 23 17.85 23 11.5 23 5.149 17.85 0 11.5 0zm3.295 15.524v1.18a1.18 1.18 0 0 1-1.18 1.178H7.278a1.18 1.18 0 0 1-1.18-1.179V8.006a1.18 1.18 0 0 1 1.18-1.179h6.339a1.18 1.18 0 0 1 1.179 1.18v7.517zm1.51-1.51v1.178c0 .533-.354.983-.84 1.13V8.005c0-1.02-.83-1.85-1.85-1.85H7.66a1.18 1.18 0 0 1 1.129-.84h6.338c.651 0 1.18.529 1.179 1.18v7.518z"/><path d="M7.426 10.019h6.041v.671H7.426z"/></g></svg>