<svg width="20" height="20" viewBox="0 0 20 20" xmlns="http://www.w3.org/2000/svg"><title>C88624BA-8402-4017-A36A-44D7BCAA937E</title><g fill="none" fill-rule="evenodd"><circle fill="#FFF" cx="10" cy="10" r="10"/><path d="M14.634 8.018l-.442.442-2.652-2.652.442-.442a1.25 1.25 0 0 1 1.768 0l.884.884a1.25 1.25 0 0 1 0 1.768zM8.447 13.32a.312.312 0 1 0 .441.442l4.862-4.861-.442-.442-4.861 4.86zm-2.21-2.21a.312.312 0 1 0 .441.442l4.862-4.86-.441-.443-4.862 4.861zm5.745-3.977L7.12 11.995a.625.625 0 0 0 .885.883l4.861-4.86-.884-.884zm-3.979 7.07a.912.912 0 0 1-.248-.535c-.063.01-.127.019-.193.019a1.24 1.24 0 0 1-.884-.367 1.243 1.243 0 0 1-.366-.884c0-.06.01-.12.018-.18a.927.927 0 0 1-.535-.262c-.014-.014-.02-.033-.032-.048L5 15l3.045-.762c-.013-.013-.029-.022-.042-.035z" fill="#840B14"/></g></svg>