<svg width="23" height="23" viewBox="0 0 23 23" xmlns="http://www.w3.org/2000/svg"><title>D22624DB-6FDB-4056-BBF4-7FBF1410B1D5</title><g fill="none" fill-rule="evenodd"><path d="M11.145 0C4.99 0 0 4.99 0 11.145 0 17.3 4.99 22.29 11.145 22.29c6.155 0 11.145-4.99 11.145-11.145C22.29 4.99 17.3 0 11.145 0z" fill="#E2231B"/><path d="M17.341 9.895l-2.27.556c.21.937.29 1.88.243 2.813.529.046 1.052.136 1.567.263a5.83 5.83 0 0 0 .46-3.632m-5.646 7.133c.23-.017.462-.046.693-.088l-.678-2.599a9.679 9.679 0 0 0-1.903.766 9.752 9.752 0 0 0 1.888 1.921m3.555-3.031a9.869 9.869 0 0 1-.44 1.947 6.125 6.125 0 0 0 1.7-1.75 9.448 9.448 0 0 0-1.26-.197m-6.561-8.49a9.384 9.384 0 0 0-.73 2.652 9.816 9.816 0 0 0 2.085-.202L9.34 5.266a6.56 6.56 0 0 0-.652.24m-.565 5.889l2.649-.65-.542-2.075a10.59 10.59 0 0 1-2.331.224 9.604 9.604 0 0 0 .224 2.501m4.994-3.782a10.48 10.48 0 0 1-2.151.876l.542 2.077 2.64-.647a9.783 9.783 0 0 0-1.031-2.306m1.217 3.019l-2.64.647.566 2.169a10.54 10.54 0 0 1 2.293-.22 9.647 9.647 0 0 0-.219-2.596m-.564 5.886c.36-.818.602-1.677.717-2.556a9.79 9.79 0 0 0-2.04.2l.677 2.596a6.41 6.41 0 0 0 .646-.24m-5.461-4.41c.255.848.62 1.647 1.08 2.383.67-.361 1.384-.651 2.135-.863l-.566-2.169-2.65.65zm.844 3.382a9.172 9.172 0 0 0-1.018.756 6.38 6.38 0 0 0 2.365.758c-.499-.462-.95-.968-1.347-1.515M7.196 8.122c.08-.695.232-1.379.453-2.044A6.125 6.125 0 0 0 5.89 7.912c.43.1.866.171 1.306.21m9.959 1.06a6.007 6.007 0 0 0-2.122-2.935c-.4.362-.826.695-1.281.988.475.776.85 1.617 1.115 2.507l2.288-.56zM5.109 12.134l2.278-.558a10.427 10.427 0 0 1-.25-2.72 10.203 10.203 0 0 1-1.603-.277 5.829 5.829 0 0 0-.425 3.555m8.247-5.524a9.241 9.241 0 0 0 1.04-.783 6.376 6.376 0 0 0-2.436-.801c.519.481.987 1.011 1.396 1.584M10.762 5a6.468 6.468 0 0 0-.684.086l.702 2.69a9.705 9.705 0 0 0 1.923-.781A9.753 9.753 0 0 0 10.763 5M7.482 15.83c.393-.35.81-.672 1.255-.956a10.577 10.577 0 0 1-1.164-2.585l-2.278.558a6.011 6.011 0 0 0 2.187 2.983" fill="#E4DFCE"/></g></svg>