<svg width="137" height="32" viewBox="0 0 137 32" xmlns="http://www.w3.org/2000/svg"><title>4630866E-9AC5-41F9-B3B0-C861DAA25972</title><g fill="none" fill-rule="evenodd"><path d="M33.24 8.312c-.107.239-.396.42-.396.42.621-.02.396-.42.396-.42z" fill="#FFF"/><path d="M21.911 25.247s.113.24.35.387c.17.108.634.34.836.552l.117.231c-.044.032-.154-.009-.388-.225-.23-.213-.368-.092-.385.05-.014.112.047.506.01.76-.04.255-.168.293-.159.006.01-.284-.147-.94-.427-.915-.215.02-.327.219-.39.351-.067.138-.17.274-.138.158 0 0 .03-.288-.123-.613-.153-.327-.197-.36-.372-.388-.173-.023-.189-.173.11-.304.304-.131.444-.202.96-.05m13.11-16.375c-.087-.854-.546-.924-.996-1.108-.447-.18-1.255-.411-1.555-.587-.3-.178-.604-.236-.962-.295s-1.258 0-1.67-.065c-.41-.064-1.05-.188-1.186-.095-.136.095-.14.584-1.152.896-.624.193-1.414.386-2.005.557-.011-.296.033-1.203.806-2.498.95-1.6 1.215-2.134.802-2.554-.459-.463-2.346.54-2.346.54s.04-.182.064-.46c.55-.325 2.641-1.493 3.496-1.015.988.554-.223 2.09-.333 2.232-.113.142-1.46 2.162-1.73 2.98l.564-.154s1.253-2.014 1.683-2.548c.43-.534 1.435-2.066.634-2.742-.787-.665-2.097-.412-4.3 1.015.023-.732-.123-1.832-1.126-2.212C21.99.108 16.37.552 9.988 5.663c0 0-2.487 1.753-4.868 4.23-2.258 2.346-4.364 4.785-3.69 5.144.74.393 2.65-1.746 2.874-1.966 0 0 2.014.12 4.527-2.034 0 0 1.378.879 3.287.361 0 0-.757 1.88 1.482 1.724 0 0-.19.915.566.76 0 0-4.42 2.591-4.345 2.696.077.104 2.264-.865 3.336-1.407.642-.328 1.03-.639 1.544-.727.512-.085 2.347-.17 4.914-1.577 2.571-1.41 3.391-3.226 3.512-4.532 0 0-.655.594-.818.575-.161-.02.105-.692.17-1.128.065-.437.585-2.122.105-1.918-.482.201-2.005 1.71-2.552.743-.405-.712.706-2.047.706-2.047s-3.472 1.935-4.112.94c-.565-.883.393-1.575.393-1.575S13.184 5.43 9.257 8.09c-3.924 2.664-6.29 5.93-7.058 6.06C1.436 14.28 8.365 5.99 15.84 3c4.038-1.615 6.744-1.825 7.835-1.317.638.297.56 1.111.56 1.31 0 0-.562 5.353.38 6.69 0 0 .804-.449 1.478-.744 0 0-.317 0-.16-.289.088-.16.343-.244.715-.358.5-.159 1.36-.226 1.818-.562.455-.335.417-.467.64-.55 0 0 .935.165 1.423.114.489-.053.943-.103 1.228-.01.286.09 1.291.62 1.89.731.6.113.668.159.865.51.234.417.238.839.238.839l-.02-.014c-.347-.212-1.268-.186-1.268-.186.23.026.456.123.121.205-.335.082-1.32.393-1.32.393.259-.351.842-.582.864-.593l-1.18.016c.27-.186.4-.645.449-.85a1.66 1.66 0 0 0 .312-.081c.328-.112-.036-.197-.737-.224-.7-.026-1.26-.13-1.26-.13l-.175.308c.067-.037.37-.13.636-.094.012.135.075.447.43.481a.632.632 0 0 0 .354-.055c-.107.239-.374.635-.95.52-.397-.08-.601-.472-.601-.472s-.422.865-.823 1.077c-.397.213-2.461 1.157-3.31 2.203-.848 1.048-1.185 1.401-1.843 1.579-.653.175-.728.193-.81.284-.087.094-.781 1.211-3.007 2.397-.712.379-1.006.368-1.127.246-.194-.198.057-.515-.079-.509-.242.014-.403.095-.931.32-.726.311-1.176.572-1.74.618-.51.043-1.01-.115-1.043-.869 0 0-.027-.017-.387.115-.362.127-2.448 1.09-3.203 1.099-.407.005.342-.94.342-.94s-1.977 1.184-2.41 1.383c-.425.2-1.648.731-1.16-.534 0 0-2.82 1.77-7.078 3.09-1.372.425-1.699.24-1.689.576.004.16.157.218.36.235.296.019.825.025 1.315-.045a27.25 27.25 0 0 0 3.898-.901c1.959-.626 2.543-1.303 3.9-.925 1.726.48 2.586-.236 2.586-.236s.26.468 1.322.45c0 0 .977.741 2.749.455 0 0 .687.361 1.745.349.065.388.16 1.046.122 1.542-.065.865-.004 1.109.481.683 0 0 .52 1.49.55 1.864.029.37.022.603.218.627.199.02.336 0 .336 0s.135.337.61.468c0 0 .04.145-.706.438-.371.146-.714.496-.581.666 0 0 .308.006.642-.015 0 0 .434-.42.963-.123.25.138.291.34.254.5l-.09.194c-.024.037-.08.113-.14.22-.092.155-.196.36-.158.431.066.123.323.482-.395.573 0 0 .036.145.26.131.222-.011.778-.365.805-.546 0 0 .264-.299.434-.723.166-.422.187-.49.242-.422.055.065.251.531.098.894-.116.279-.216.334-.125.458l.153.118c.06.043.066.149-.107.324-.302.303.52-.057.638-.345 0 0 .26-.3.152-1.448 0 0-.018-.12.131-.03.147.091.373.333.38.546.007.211-.096.405.05.471.146.067.148.294.094.433-.054.137-.372.18-.297.203.074.024.655.028.756-.65.103-.68-.187-1.453-.971-1.933s-1.042-.72-1.164-3.602c-.042-1.005.25-2.178.459-2.962h.001c.262-.953.582-1.49.6-1.38.029.188-.228.914-.25 1.276 0 0 2.314-1.214 3-1.795.696-.587 1.034-1.036 1.057-1.071.025-.036.6-.601.823-2.108l.88-1.73s.354.583.649.23c.293-.354.903-1.351.997-1.362 0 0 .145.45.355.321.211-.129.293-.616.833-.874s1.482-.542 1.482-.542 2.131-.528 2.205-.368c.075.16.08.532.08.532s.324-.492.234-1.347" fill="#FFF"/><path d="M9.573 19.54c-.578-.223-1.417-.01-2.25.366-.829.378-4.816 1.717-7.097 1.575 0 0 .337.519 1.732.738 0 0-.116.779 1.257.48 1.371-.296 6.298-2.51 7.334-3.101 0 0-.396.161-.976-.059m3.555.183c-.034 0-.749.061-1.234-.385l-4.882 2.528s-2.232 1.032-1.817 1.297c0 0 .696.398 2.257-.208 1.561-.605 5.95-3.052 5.95-3.052l-.274-.18m2.072.449s-.628.056-1.113-.194c0 0-2.635 1.68-3.132 1.949-.5.27-1.287.59-.418.73.868.14 1.792.048 3.27-1.23 1.322-1.142 1.393-1.255 1.393-1.255m9.324 5.118c.519-.014 1.676.77 1.655.863-.019.095-.43-.109-.551-.158-.124-.048-.295-.065-.156.128.14.191.319.644.31.737l-.092.015c-.156-.443-.552-.815-.77-.9-.218-.085-.285-.033-.297.118-.013.151.063.448-.106.024-.173-.424-.576-.775-.694-.854-.123-.083-.066-.167-.066-.167.053-.06.15-.069.251-.06.255.023.516.254.516.254m-.952-6.386c-.52.277-1.165.565-1.165.565s-.237.929-.176 2.625c.078 2.2.315 2.815 1.03 3.23 1.019.586 1.203 1.481 1.195 1.763-.005.283-.034.356.058.458.09.102.083.16-.025.351-.108.192-.412.242-.287.258a.58.58 0 0 0 .647-.36c.167-.39.364-.6.033-1.434 0 0 .384-.062.533.653.094.457-.048.622.313.757 0 0 .056.165-.151.394-.16.179.065.133.206.066.24-.118.453-.453.417-.842-.03-.371-.252-.85-.408-1.085 0 0 .268.06.416.326.148.264.124.405.49.384 0 0 .16.122.17.375.01.253-.303.433-.2.415.104-.018.796-.278.272-1.145 0 0-.088-.414-.487-.627-.399-.211-.901-.796-1.823-.959 0 0-.423-.446-.506-.71 0 0 .05-.115.072-.216.024-.1-.597-3.269.908-6.106 0 0-1.012.588-1.532.864m-9.592 8.514l1.11.453c-.1.645.506 1.056.506 1.056-.067.236-.274.422-.397.516l-.108.079.102-.024c1.06-.41 1.16-1.386 1.113-2.066a1.48 1.48 0 0 0-.499-1.004c-.013.005 1.783.248 2.431.116.648-.131-.006-.16-.006-.16-1.348.014-2.849-.527-3.612-.279-1.022.335-1.07 1.332-1.088 1.501-.12.942.397 1.457.635 1.64l.114.077-.058-.112c-.556-1.038-.243-1.793-.243-1.793" fill="#FFF"/><path d="M32.535 28.804c-1.037.083-2.195-.147-2.21-.142l-.156.098c.81.36 1.714.29 1.923.326.208.035-.042.124-.042.124-1.122.922-2.983.645-5.721.645-2.74 0-5.61.778-6.553.935-.378.065-.694-.269-.96-.405a5.356 5.356 0 0 0-.629-.276c3.22-.684 5.054-.883 8.496-1.12 2.078-.14 3.834.154 4.054-1.422a1.77 1.77 0 0 0-.224-1.172c-.326-.554-.862-.841-1.095-.943l-.257-.01c-1.089.37-2.202.46-2.409.487-.215.026-.099.091-.099.091a6.361 6.361 0 0 0 2.4-.3l.212-.01c.22.066.735.294.997 1.018.448 1.236-.513 1.52-1.333 1.561-.822.043-4.286.411-5.602.48-1.315.07-4.78.548-6.037.737-.969.146-2.203.232-2.203.232-.335.005.214.159 1.53.36 1.315.198 1.663.711 2.2 1.055.243.155.703.156 1.14.112.543-.056 1.7-.38 2.436-.512 1.44-.255 3.915-.522 7.349-.412 1.894.058 2.559-.486 3.2-1.279.302-.376-.407-.258-.407-.258m8.729-3.215v-3.877h1.49v3.84c0 1.105.552 1.68 1.463 1.68.91 0 1.46-.555 1.46-1.632v-3.888h1.49v3.83c0 2.057-1.15 3.067-2.972 3.067-1.819 0-2.931-1.017-2.931-3.02m8.646-3.876h1.373l3.176 4.176v-4.176h1.47v6.789h-1.266l-3.281-4.316v4.316H49.91z" fill="#FFF"/><path d="M-7 38.387h152.512V-5.957H-7z"/><path fill="#FFF" d="M58.784 28.502h1.488v-6.79h-1.488zm3.646-6.789h1.645l1.77 4.78 1.773-4.78h1.608l-2.74 6.789H65.17zm8.972 0h5.11v1.327H72.88v1.377h3.194v1.33H72.88v1.425h3.678v1.33h-5.157zm10.528 3.295c.725 0 1.14-.388 1.14-.96v-.018c0-.641-.444-.97-1.169-.97H80.42v1.948h1.51zm-3.003-3.295h3.098c.862 0 1.53.243 1.976.687.377.379.58.913.58 1.553v.02c0 1.093-.589 1.785-1.452 2.102l1.656 2.427h-1.743l-1.45-2.173H80.42v2.173h-1.493v-6.79zm7.646 5.8l.883-1.059c.61.504 1.249.825 2.023.825.61 0 .976-.243.976-.641v-.019c0-.376-.232-.571-1.366-.861-1.363-.352-2.243-.73-2.243-2.076v-.02c0-1.231.985-2.048 2.373-2.048.987 0 1.828.313 2.515.865l-.775 1.124c-.6-.417-1.192-.671-1.76-.671-.573 0-.873.265-.873.595v.018c0 .447.291.59 1.461.891 1.374.36 2.15.854 2.15 2.037v.02c0 1.349-1.026 2.104-2.487 2.104a4.313 4.313 0 0 1-2.877-1.084m7.734.989h1.49v-6.79h-1.49zm5.96-5.414h-2.062v-1.375h5.613v1.375h-2.062v5.414h-1.49zm7.623 2.738l-2.602-4.114h1.741l1.617 2.725 1.645-2.725h1.694l-2.604 4.081v2.709h-1.491zM41.264 3.508h2.744v10.014h6.689l-1.025 2.48h-8.408zm16.072 0h2.527l5.347 12.494h-2.867l-1.142-2.8h-5.273l-1.139 2.8h-2.796l5.343-12.494zm2.886 7.265L58.564 6.72l-1.655 4.052h3.313zM74.28 6.042h-3.915V3.508h10.574v2.534h-3.916v9.96H74.28zm9.708-2.534h5.7c1.582 0 2.79.423 3.635 1.268.71.716 1.068 1.667 1.068 2.855v.037c0 1.012-.247 1.837-.74 2.472-.492.64-1.137 1.104-1.932 1.4l3.046 4.462h-3.206l-2.67-3.995h-2.16v3.995h-2.741V3.508zm5.521 6.07c.681 0 1.198-.16 1.559-.481.364-.321.543-.75.543-1.286v-.034c0-.598-.19-1.043-.572-1.34-.375-.297-.906-.445-1.582-.445H86.73V9.58h2.78zm13.949 6.64c-.962 0-1.847-.17-2.656-.51a6.513 6.513 0 0 1-2.091-1.375 6.052 6.052 0 0 1-1.372-2.033 6.41 6.41 0 0 1-.49-2.505v-.04c0-.89.165-1.728.498-2.506a6.537 6.537 0 0 1 1.381-2.053 6.412 6.412 0 0 1 2.1-1.39c.816-.34 1.703-.51 2.667-.51.961 0 1.846.17 2.65.51a6.61 6.61 0 0 1 2.096 1.37 6.24 6.24 0 0 1 1.372 2.035 6.45 6.45 0 0 1 .49 2.51v.034a6.28 6.28 0 0 1-.501 2.506 6.452 6.452 0 0 1-1.38 2.058 6.386 6.386 0 0 1-2.1 1.389c-.815.34-1.7.51-2.664.51m.037-2.536c.546 0 1.048-.1 1.512-.303.465-.2.857-.48 1.186-.838a4.034 4.034 0 0 0 1.039-2.746v-.04c0-.534-.09-1.037-.274-1.515a3.829 3.829 0 0 0-.785-1.253 3.792 3.792 0 0 0-1.202-.847 3.705 3.705 0 0 0-1.513-.31 3.7 3.7 0 0 0-1.525.303 3.519 3.519 0 0 0-1.174.838 3.976 3.976 0 0 0-.766 1.24c-.184.47-.278.976-.278 1.51v.034c0 .535.094 1.042.278 1.52.184.477.444.893.785 1.246.337.36.735.644 1.192.853.457.205.965.308 1.525.308m9.583-10.174h5.777c1.435 0 2.52.371 3.254 1.109.569.572.854 1.28.854 2.123v.037c0 .356-.044.671-.133.944a2.95 2.95 0 0 1-.354.74 2.923 2.923 0 0 1-.514.582c-.195.169-.4.31-.627.428.72.273 1.289.644 1.702 1.115.413.47.621 1.121.621 1.955v.035c0 .574-.11 1.073-.332 1.5a2.91 2.91 0 0 1-.94 1.072c-.41.287-.9.498-1.474.64a7.76 7.76 0 0 1-1.912.214h-5.922V3.508zm5.2 5.053c.606 0 1.087-.105 1.444-.315.355-.203.534-.541.534-1.005V7.2c0-.411-.155-.731-.465-.95-.31-.223-.754-.33-1.337-.33h-2.704v2.64h2.528zm.73 5.032c.606 0 1.08-.11 1.424-.329.345-.22.517-.56.517-1.024v-.037c0-.42-.16-.746-.48-.992-.321-.244-.837-.368-1.548-.368h-3.17v2.75h3.256zm7.642-10.085h9.386v2.447h-6.678v2.533h4.883v2.448h-4.883v2.624h6.77v2.442h-9.478z"/></g></svg>