<?xml version="1.0" encoding="UTF-8" standalone="no"?>
<svg width="171px" height="50px" viewBox="0 0 171 50" version="1.1" xmlns="http://www.w3.org/2000/svg" xmlns:xlink="http://www.w3.org/1999/xlink">
    <!-- Generator: sketchtool 40.2 (33826) - http://www.bohemiancoding.com/sketch -->
    <title>ED710A90-D7D5-4D08-AC7D-0178840E89D5</title>
    <desc>Created with sketchtool.</desc>
    <defs>
        <polygon id="path-1" points="0 49.8409091 170.454429 49.8409091 170.454429 0.556363636 0 0.556363636"></polygon>
    </defs>
    <g id="Desktop" stroke="none" stroke-width="1" fill="none" fill-rule="evenodd">
        <g id="01_Home" transform="translate(-250.000000, -17.000000)">
            <g id="Group-23" transform="translate(250.000000, -1.000000)">
                <g id="Logo" transform="translate(0.000000, 17.000000)">
                    <polygon id="Fill-1" fill="#FEFEFE" points="0 50.4436364 170.454429 50.4436364 170.454429 1.15909091 0 1.15909091"></polygon>
                    <polygon id="Fill-2" fill="#FEFEFE" points="0 50.4436364 170.454429 50.4436364 170.454429 1.15909091 0 1.15909091"></polygon>
                    <g id="Group-39" transform="translate(0.000000, 0.602727)">
                        <path d="M44.9735816,16.4151614 C44.8549286,16.6805932 44.5315408,16.8811159 44.5315408,16.8811159 C45.2260102,16.8590932 44.9735816,16.4151614 44.9735816,16.4151614 L44.9735816,16.4151614 Z" id="Fill-3" fill="#030404"></path>
                        <path d="M32.3128347,35.2368273 C32.3128347,35.2368273 32.4384673,35.5034182 32.7036918,35.66685 C32.8944673,35.7862364 33.4121204,36.0447136 33.6377939,36.2800091 L33.7680796,36.5373273 C33.7192224,36.5721 33.5959163,36.5268955 33.3353449,36.2869636 C33.0782633,36.0505091 32.923549,36.1849636 32.9049367,36.3414409 C32.888651,36.4666227 32.9572837,36.9047591 32.9154061,37.1864182 C32.871202,37.4703955 32.7281204,37.5132818 32.7385898,37.1933727 C32.7502224,36.8781 32.5734061,36.1490318 32.2604878,36.17685 C32.0208551,36.2000318 31.8952224,36.4202591 31.8254265,36.5674636 C31.7498143,36.7204636 31.634651,36.8711455 31.6707122,36.7424864 C31.6707122,36.7424864 31.7044469,36.4225773 31.5334469,36.0609409 C31.3624469,35.6981455 31.3135898,35.6610545 31.116998,35.6297591 C30.9238959,35.6042591 30.9064469,35.43735 31.2403041,35.2924636 C31.5799776,35.1464182 31.7370184,35.0676 32.3128347,35.2368273 M46.9653245,17.0379409 C46.8687735,16.0886455 46.3557735,16.0109864 45.8520796,15.8058273 C45.3530388,15.6053045 44.4503449,15.3491455 44.1141612,15.1532591 C43.7791408,14.9562136 43.4394673,14.8913045 43.0393041,14.8252364 C42.6391408,14.7603273 41.6329163,14.8252364 41.1734265,14.7533727 C40.7151,14.6826682 39.9985286,14.5447364 39.8473041,14.6478955 C39.6949163,14.7533727 39.6902633,15.2969864 38.5595694,15.6435545 C37.8627735,15.8579864 36.9798551,16.0724182 36.3191204,16.2625091 C36.3063245,15.9333273 36.3563449,14.9260773 37.2194878,13.4864864 C38.281549,11.7084409 38.5781816,11.1149864 38.1163653,10.6478727 C37.6033653,10.1332364 35.4943653,11.2482818 35.4943653,11.2482818 C35.4943653,11.2482818 35.5385694,11.0454409 35.5653245,10.7371227 C36.1795286,10.3754864 38.5176918,9.07730455 39.4727327,9.60932727 C40.5778347,10.2248045 39.2237939,11.9321455 39.1004878,12.0897818 C38.9748551,12.2474182 37.4695898,14.4925773 37.1671408,15.4013045 L37.7976306,15.2297591 C37.7976306,15.2297591 39.198202,12.9915545 39.6786306,12.3981 C40.1590592,11.8046455 41.2827735,10.1019409 40.3870592,9.35085 C39.5076306,8.61135 38.0430796,8.89300909 35.5804469,10.4786455 C35.607202,9.66496364 35.4443449,8.44328182 34.3229571,8.02021364 C32.4000796,7.29694091 26.1184469,7.79071364 18.9864673,13.4714182 C18.9864673,13.4714182 16.2074265,15.4186909 13.5458755,18.1715318 C11.0227531,20.7794864 8.66830408,23.4906 9.42093673,23.8893273 C10.2480184,24.3263045 12.3826102,21.9490091 12.6338755,21.7044409 C12.6338755,21.7044409 14.8847939,21.8377364 17.6929163,19.4430545 C17.6929163,19.4430545 19.2330796,20.4201682 21.3676714,19.8452591 C21.3676714,19.8452591 20.5208143,21.9339409 23.022998,21.7612364 C23.022998,21.7612364 22.8112837,22.7777591 23.6558143,22.6062136 C23.6558143,22.6062136 18.7154265,25.4853955 18.8003449,25.6013045 C18.8864265,25.7172136 21.3304469,24.6404182 22.5286102,24.0376909 C23.2463449,23.6737364 23.6790796,23.3283273 24.2537327,23.2298045 C24.8260592,23.1359182 26.8768959,23.0408727 29.7466714,21.4772591 C32.6199367,19.9113273 33.5365898,17.8921909 33.6715286,16.4410091 C33.6715286,16.4410091 32.9398347,17.1005318 32.757202,17.0796682 C32.5768959,17.0576455 32.8746918,16.3100318 32.9479776,15.8255318 C33.0201,15.3398727 33.6005694,13.4679409 33.0643041,13.6939636 C32.5257122,13.9176682 30.8238551,15.5948727 30.2119776,14.5203955 C29.7594673,13.7287364 31.0018347,12.2451 31.0018347,12.2451 C31.0018347,12.2451 27.1211816,14.3952136 26.4057735,13.2894409 C25.7741204,12.30885 26.8443245,11.5392136 26.8443245,11.5392136 C26.8443245,11.5392136 22.5588551,13.2117818 18.1698551,16.1686227 C13.7843449,19.1289409 11.1390796,22.7592136 10.2817531,22.9041 C9.42791633,23.0466682 17.1729367,13.8330545 25.5275082,10.5111 C30.0398143,8.71682727 33.0643041,8.48269091 34.2834061,9.04716818 C34.9964878,9.37750909 34.9092429,10.2827591 34.9092429,10.5041455 C34.9092429,10.5041455 34.2810796,16.4526 35.3338347,17.9397136 C35.3338347,17.9397136 36.2330388,17.4401455 36.9868347,17.1121227 C36.9868347,17.1121227 36.6320388,17.1121227 36.8076918,16.7910545 C36.9054061,16.6125545 37.1904061,16.5198273 37.6068551,16.3923273 C38.1652224,16.2161455 39.1260796,16.1419636 39.6379163,15.7687364 C40.1474265,15.3955091 40.1043857,15.2494636 40.3544878,15.1567364 C40.3544878,15.1567364 41.3991,15.3398727 41.9446714,15.2830773 C42.4902429,15.2251227 42.9985898,15.1694864 43.3161612,15.2726455 C43.6360592,15.3723273 44.7597735,15.9623045 45.4298143,16.0851682 C46.0986918,16.21035 46.1754673,16.26135 46.3953245,16.6519636 C46.6570592,17.1156 46.6617122,17.5838727 46.6617122,17.5838727 L46.6384469,17.5688045 C46.2510796,17.3335091 45.2227531,17.3624864 45.2227531,17.3624864 C45.4786714,17.3903045 45.7322633,17.4981 45.3576918,17.5896682 C44.9831204,17.6812364 43.8826714,18.0266455 43.8826714,18.0266455 C44.1711612,17.6360318 44.8237531,17.3798727 44.8481816,17.3671227 L43.5290388,17.3856682 C43.8314878,17.1781909 43.9768959,16.6681909 44.0304061,16.4410091 C44.1537122,16.4236227 44.2677122,16.38885 44.3793857,16.3506 C44.7458143,16.2265773 44.3398347,16.1315318 43.5557939,16.1013955 C42.7740796,16.0724182 42.1470796,15.9576682 42.1470796,15.9576682 L41.951651,16.2996 C42.0272633,16.2578727 42.3657735,16.1558727 42.6624061,16.1952818 C42.6763653,16.3448045 42.7461612,16.6913727 43.143998,16.7296227 C43.3080184,16.7481682 43.4383041,16.7168727 43.5395082,16.6681909 C43.4196918,16.9336227 43.1207327,17.3740773 42.4762837,17.2465773 C42.0330796,17.1573273 41.8050796,16.7215091 41.8050796,16.7215091 C41.8050796,16.7215091 41.3339571,17.6835545 40.8861,17.91885 C40.4417327,18.1553045 38.1349776,19.2042818 37.1857531,20.36685 C36.2388551,21.5317364 35.8619571,21.9246682 35.1267735,22.1217136 C34.3962429,22.3164409 34.3124878,22.3361455 34.2205898,22.4381455 C34.1240388,22.5424636 33.3481408,23.78385 30.8599163,25.1017364 C30.0642429,25.5224864 29.736202,25.5108955 29.6012633,25.3752818 C29.3837327,25.1550545 29.6640796,24.8026909 29.5128551,24.8096455 C29.2418143,24.8247136 29.0626714,24.9151227 28.4717327,25.1654864 C27.6609367,25.5108955 27.1572429,25.8006682 26.5279163,25.8516682 C25.9567531,25.8991909 25.399549,25.7241682 25.3611612,24.8861455 C25.3611612,24.8861455 25.3309163,24.8676 24.9295898,25.0136455 C24.5247735,25.1550545 22.1935898,26.2248955 21.3490592,26.2353273 C20.8942224,26.2411227 21.7317735,25.1909864 21.7317735,25.1909864 C21.7317735,25.1909864 19.5215694,26.5065545 19.0388143,26.7279409 C18.5630388,26.9493273 17.196202,27.5404636 17.7417735,26.1344864 C17.7417735,26.1344864 14.5904878,28.1014636 9.83040612,29.5677136 C8.29722245,30.0406227 7.93195714,29.8354636 7.9435898,30.2086909 C7.94707959,30.3871909 8.11807959,30.4509409 8.34607959,30.4694864 C8.67644694,30.49035 9.26738571,30.4973045 9.81528367,30.4196455 C10.8389571,30.2770773 12.7467122,29.8748727 14.1717122,29.4181909 C16.3609776,28.7227364 17.0135694,27.9704864 18.5304673,28.3900773 C20.4591612,28.9232591 21.4211816,28.1281227 21.4211816,28.1281227 C21.4211816,28.1281227 21.7108347,28.6485545 22.8985286,28.62885 C22.8985286,28.62885 23.9908347,29.4518045 25.9707122,29.1342136 C25.9707122,29.1342136 26.7384673,29.5352591 27.9215082,29.52135 C27.9936306,29.9525318 28.0994878,30.6839182 28.0576102,31.2356455 C27.9843245,32.1965318 28.0529571,32.4677591 28.5950388,31.99485 C28.5950388,31.99485 29.1766714,33.6511909 29.2092429,34.0661455 C29.2418143,34.4764636 29.2348347,34.7361 29.4535286,34.7627591 C29.6757122,34.7859409 29.8292633,34.7627591 29.8292633,34.7627591 C29.8292633,34.7627591 29.9793245,35.1371455 30.5097735,35.2831909 C30.5097735,35.2831909 30.5563041,35.4443045 29.7210796,35.7700091 C29.3069571,35.9322818 28.9230796,36.3217364 29.0719776,36.5106682 C29.0719776,36.5106682 29.4163041,36.5164636 29.7897122,36.4932818 C29.7897122,36.4932818 30.2747939,36.0273273 30.8657327,36.3565091 C31.1460796,36.5106682 31.1914469,36.7355318 31.1495694,36.9128727 L31.0495286,37.1284636 C31.0227735,37.1690318 30.9599571,37.2536455 30.8924878,37.3718727 C30.7901204,37.5445773 30.6737939,37.7717591 30.7168347,37.8517364 C30.7901204,37.9885091 31.0774469,38.3872364 30.2747939,38.4880773 C30.2747939,38.4880773 30.3155082,38.6491909 30.5656102,38.6341227 C30.8133857,38.6213727 31.4345694,38.2284409 31.4648143,38.0267591 C31.4648143,38.0267591 31.7602837,37.6952591 31.9498959,37.2235091 C32.1360184,36.7552364 32.1592837,36.6787364 32.2209367,36.7552364 C32.2825898,36.8271 32.5012837,37.3452136 32.3302837,37.7485773 C32.199998,38.0580545 32.0883245,38.1194864 32.1906918,38.2574182 L32.3616918,38.3883955 C32.4291612,38.4359182 32.4349776,38.5541455 32.2418755,38.7488727 C31.9045286,39.0850091 32.8235082,38.6851227 32.9549571,38.3652136 C32.9549571,38.3652136 33.2446102,38.0313955 33.1247939,36.7563955 C33.1247939,36.7563955 33.1050184,36.6219409 33.2713653,36.7216227 C33.4353857,36.8236227 33.6878143,37.0925318 33.6959571,37.3289864 C33.7041,37.5642818 33.5889367,37.7798727 33.7517939,37.8528955 C33.914651,37.9270773 33.9169776,38.1797591 33.8564878,38.3339182 C33.795998,38.4857591 33.441202,38.5344409 33.5249571,38.5599409 C33.607549,38.5866 34.256651,38.5912364 34.3694878,37.8366682 C34.484651,37.0809409 34.1612633,36.2220545 33.2841612,35.6888727 C32.4082224,35.1556909 32.1197327,34.8891 31.9836306,31.6853727 C31.9371,30.5691682 32.2628143,29.2651909 32.4966306,28.3935545 L32.4977939,28.3935545 C32.7909367,27.3341455 33.1480592,26.7383727 33.1678347,26.8589182 C33.2004061,27.0687136 32.9130796,27.8754409 32.888651,28.2776455 C32.888651,28.2776455 35.4757531,26.9284636 36.2423449,26.28285 C37.0194061,25.6302818 37.3974673,25.1318727 37.4230592,25.0924636 C37.4509776,25.0530545 38.0942633,24.4248273 38.343202,22.7499409 L39.3273245,20.8270091 C39.3273245,20.8270091 39.7228347,21.4749409 40.0520388,21.0831682 C40.3789163,20.6890773 41.0617531,19.5809864 41.1664469,19.5693955 C41.1664469,19.5693955 41.3281408,20.0689636 41.5631204,19.9263955 C41.7992633,19.7826682 41.889998,19.2413727 42.4937327,18.9550773 C43.0974673,18.6676227 44.1502224,18.35235 44.1502224,18.35235 C44.1502224,18.35235 46.5325898,17.76585 46.6151816,17.9431909 C46.6989367,18.1205318 46.7047531,18.5343273 46.7047531,18.5343273 C46.7047531,18.5343273 47.0665286,17.9872364 46.9653245,17.0379409" id="Fill-5" fill="#030404"></path>
                        <path d="M18.5226735,28.8931227 C17.8770612,28.6462364 16.9394694,28.8826909 16.0088571,29.3011227 C15.0817347,29.7207136 10.6252653,31.2089864 8.07655102,31.05135 C8.07655102,31.05135 8.45228571,31.6274182 10.0122245,31.8708273 C10.0122245,31.8708273 9.88193878,32.7366682 11.4162857,32.4051682 C12.9494694,32.0759864 18.4552041,29.6152364 19.6138163,28.9580318 C19.6138163,28.9580318 19.1706122,29.1376909 18.5226735,28.8931227" id="Fill-7" fill="#030404"></path>
                        <path d="M22.4955735,29.0958477 C22.458349,29.0958477 21.6591857,29.1642341 21.1171041,28.6681432 L15.6602265,31.4777795 C15.6602265,31.4777795 13.1661857,32.6252795 13.6291653,32.9196886 C13.6291653,32.9196886 14.4073898,33.3613023 16.1522878,32.6878705 C17.8971857,32.0155977 22.8015122,29.2963705 22.8015122,29.2963705 L22.4955735,29.0958477" id="Fill-9" fill="#030404"></path>
                        <path d="M24.8122163,29.5956477 C24.8122163,29.5956477 24.1096041,29.6570795 23.5675224,29.3800568 C23.5675224,29.3800568 20.623298,31.2461932 20.0672571,31.5452386 C19.5077265,31.8466023 18.6294612,32.2012841 19.5996245,32.3566023 C20.5697878,32.5119205 21.6027673,32.4099205 23.2557673,30.9900341 C24.731951,29.7208295 24.8122163,29.5956477 24.8122163,29.5956477" id="Fill-11" fill="#030404"></path>
                        <path d="M35.2329796,35.2831909 C35.8122857,35.2681227 37.1058367,36.1386 37.0825714,36.2429182 C37.0616327,36.3483955 36.6009796,36.1212136 36.4660408,36.0667364 C36.3276122,36.0134182 36.1368367,35.9948727 36.2927143,36.2093045 C36.4497551,36.4214182 36.6486735,36.9244636 36.6393673,37.0276227 L36.5358367,37.0450091 C36.3613469,36.5523955 35.9193061,36.1386 35.6750204,36.0447136 C35.431898,35.9496682 35.3562857,36.0076227 35.3434898,36.1756909 C35.3283673,36.3437591 35.4132857,36.6741 35.2248367,36.20235 C35.0317347,35.7306 34.581551,35.3411455 34.4489388,35.2530545 C34.3116735,35.1614864 34.3756531,35.0676 34.3756531,35.0676 C34.4349796,35.0003727 34.5431633,34.9911 34.656,35.0003727 C34.941,35.0270318 35.2329796,35.2831909 35.2329796,35.2831909 M34.1685918,28.1860773 C33.5869592,28.4932364 32.866898,28.8143045 32.866898,28.8143045 C32.866898,28.8143045 32.6016735,29.8458955 32.6703061,31.7317364 C32.757551,34.1762591 33.0216122,34.8601227 33.8219388,35.3202818 C34.9596122,35.97285 35.1655102,36.96735 35.1562041,37.2803045 C35.151551,37.5944182 35.1189796,37.6755545 35.2213469,37.7891455 C35.322551,37.9027364 35.3144082,37.9664864 35.1934286,38.1797591 C35.072449,38.3930318 34.7327755,38.4486682 34.8723673,38.4660545 C35.0131224,38.4880773 35.4063061,38.5008273 35.5959184,38.0661682 C35.7820408,37.6326682 36.0030612,37.3996909 35.6331429,36.4724182 C35.6331429,36.4724182 36.0623878,36.4040318 36.2287347,37.1980091 C36.3334286,37.7056909 36.1752245,37.8899864 36.5788776,38.0395091 C36.5788776,38.0395091 36.6405306,38.2226455 36.4090408,38.4776455 C36.229898,38.67585 36.4823265,38.62485 36.6393673,38.5506682 C36.9080816,38.4196909 37.146551,38.0476227 37.1058367,37.6152818 C37.072102,37.2026455 36.8243265,36.6706227 36.6498367,36.4086682 C36.6498367,36.4086682 36.9499592,36.4747364 37.1151429,36.7714636 C37.2803265,37.0647136 37.2535714,37.2211909 37.6630408,37.1980091 C37.6630408,37.1980091 37.8410204,37.3336227 37.8526531,37.6152818 C37.8642857,37.8957818 37.5141429,38.0963045 37.6293061,38.0766 C37.7456327,38.0557364 38.5180408,37.7671227 37.9329184,36.8039182 C37.9329184,36.8039182 37.8340408,36.3437591 37.3885102,36.1073045 C36.9429796,35.8720091 36.3811224,35.2217591 35.3516327,35.0409409 C35.3516327,35.0409409 34.8781837,34.54485 34.7851224,34.2516 C34.7851224,34.2516 34.8421224,34.1241 34.866551,34.0116682 C34.8933061,33.9003955 34.1988367,30.3790773 35.8809184,27.2251909 C35.8809184,27.2251909 34.7502245,27.8789182 34.1685918,28.1860773" id="Fill-13" fill="#030404"></path>
                        <path d="M23.4487531,37.6486636 L24.6887939,38.1517091 C24.5771204,38.8691864 25.2541408,39.3258682 25.2541408,39.3258682 C25.1796918,39.5878227 24.948202,39.7941409 24.8109367,39.8984591 L24.6899571,39.98655 L24.8039571,39.9598909 C25.9881612,39.5043682 26.0998347,38.4194591 26.0474878,37.6637318 C25.9997939,36.9462545 25.4902837,36.5475273 25.4902837,36.5475273 C25.4751612,36.5533227 27.4829571,36.8233909 28.2076714,36.6773455 C28.9312224,36.5313 28.2006918,36.4988455 28.2006918,36.4988455 C26.6942633,36.5150727 25.0168347,35.9135045 24.162998,36.1893682 C23.0218347,36.5614364 22.9683245,37.6695273 22.9473857,37.8573 C22.8124469,38.9039591 23.3917531,39.47655 23.6569776,39.6793909 L23.7849367,39.7651636 L23.7197939,39.6411409 C23.0986102,38.4878455 23.4487531,37.6486636 23.4487531,37.6486636" id="Fill-15" fill="#030404"></path>
                        <path d="M44.1862837,39.1894432 C43.0276714,39.2821705 41.7329571,39.0260114 41.7166714,39.0318068 L41.5421816,39.1407614 C42.447202,39.5406477 43.4569163,39.4629886 43.6907327,39.5035568 C43.9233857,39.5418068 43.644202,39.6414886 43.644202,39.6414886 C42.390202,40.666125 40.3102837,40.3578068 37.2497327,40.3578068 C34.1880184,40.3578068 30.9808959,41.2224886 29.9258143,41.3975114 C29.503549,41.469375 29.1499163,41.0984659 28.8532837,40.946625 C28.4449776,40.7403068 28.1506714,40.640625 28.1506714,40.640625 C31.7498143,39.8802614 33.7983245,39.658875 37.6452429,39.3957614 C39.9682837,39.2404432 41.9307122,39.5661477 42.1761612,37.8147614 C42.2482837,37.2850568 42.1307939,36.8550341 41.9260592,36.5119432 C41.5619571,35.8964659 40.9628755,35.5777159 40.7023041,35.464125 L40.4149776,35.4536932 C39.198202,35.8640114 37.9546714,35.9636932 37.7231816,35.9949886 C37.4823857,36.0239659 37.6126714,36.0958295 37.6126714,36.0958295 C38.9120388,36.1839205 39.9578143,35.8779205 40.2951612,35.7620114 L40.5313041,35.7515795 C40.7779163,35.8246023 41.3525694,36.0784432 41.6457122,36.8828523 C42.1459163,38.256375 41.0722224,38.5716477 40.1555694,38.6180114 C39.2377531,38.6655341 35.3652429,39.0746932 33.8948755,39.1511932 C32.4256714,39.2276932 28.551998,39.7597159 27.1479367,39.9695114 C26.0649367,40.1317841 24.6853041,40.2279886 24.6853041,40.2279886 C24.3107327,40.2337841 24.9249367,40.4041705 26.3953041,40.627875 C27.8656714,40.8481023 28.254202,41.418375 28.8544469,41.800875 C29.1254878,41.9724205 29.639651,41.9735795 30.1293857,41.9248977 C30.7354469,41.8623068 32.0278347,41.5018295 32.8514265,41.3557841 C34.4613857,41.0729659 37.2264673,40.7762386 41.0640796,40.8979432 C43.1812224,40.9628523 43.924549,40.3578068 44.6411204,39.4768977 C44.9784673,39.0584659 44.1862837,39.1894432 44.1862837,39.1894432" id="Fill-17" fill="#030404"></path>
                        <path d="M53.9416592,35.6165455 L53.9416592,31.3082045 L55.6074551,31.3082045 L55.6074551,35.5759773 C55.6074551,36.8034545 56.2239857,37.4432727 57.2430061,37.4432727 C58.2585367,37.4432727 58.8750673,36.8254773 58.8750673,35.6292955 L58.8750673,31.3082045 L60.5397,31.3082045 L60.5397,35.5643864 C60.5397,37.8501136 59.2542918,38.9732727 57.2174143,38.9732727 C55.1851898,38.9732727 53.9416592,37.8431591 53.9416592,35.6165455" id="Fill-19" fill="#030404"></path>
                        <polygon id="Fill-21" fill="#030404" points="63.6051367 31.3084364 65.1394837 31.3084364 68.6897694 35.9505955 68.6897694 31.3084364 70.3334633 31.3084364 70.3334633 38.8541182 68.9177694 38.8541182 65.2499939 34.0578 65.2499939 38.8541182 63.6051367 38.8541182"></polygon>
                        <mask id="mask-2" fill="white">
                            <use xlink:href="#path-1"></use>
                        </mask>
                        <g id="Clip-24"></g>
                        <polygon id="Fill-23" fill="#030404" mask="url(#mask-2)" points="73.5230204 38.8538864 75.1864898 38.8538864 75.1864898 31.3082045 73.5230204 31.3082045"></polygon>
                        <polygon id="Fill-25" fill="#030404" mask="url(#mask-2)" points="77.5972408 31.3084364 79.4363633 31.3084364 81.4150776 36.6217091 83.3961184 31.3084364 85.1933633 31.3084364 82.1304857 38.8541182 80.6601184 38.8541182"></polygon>
                        <polygon id="Fill-26" fill="#030404" mask="url(#mask-2)" points="87.6255184 31.3084364 93.3359878 31.3084364 93.3359878 32.7839591 89.2785184 32.7839591 89.2785184 34.3139591 92.8485796 34.3139591 92.8485796 35.7929591 89.2785184 35.7929591 89.2785184 37.3762773 93.389498 37.3762773 93.389498 38.8541182 87.6255184 38.8541182"></polygon>
                        <path d="M99.3913653,34.9712795 C100.202161,34.9712795 100.667467,34.5400977 100.667467,33.9049159 L100.667467,33.8840523 C100.667467,33.1712114 100.170753,32.8060977 99.3599571,32.8060977 L97.7046306,32.8060977 L97.7046306,34.9712795 L99.3913653,34.9712795 Z M96.0365082,31.3085523 L99.4983857,31.3085523 C100.461569,31.3085523 101.209549,31.5786205 101.707427,32.0723932 C102.128529,32.4931432 102.354202,33.0865977 102.354202,33.7982795 L102.354202,33.8203023 C102.354202,35.0350295 101.696957,35.8046659 100.73261,36.1570295 L102.583365,38.8542341 L100.634896,38.8542341 L99.0144673,36.4386886 L97.7046306,36.4386886 L97.7046306,38.8542341 L96.0365082,38.8542341 L96.0365082,31.3085523 Z" id="Fill-27" fill="#030404" mask="url(#mask-2)"></path>
                        <path d="M104.581739,37.7550682 L105.568188,36.5785909 C106.249861,37.1384318 106.964106,37.4954318 107.829576,37.4954318 C108.511249,37.4954318 108.920718,37.2253636 108.920718,36.7825909 L108.920718,36.7617273 C108.920718,36.3432955 108.66131,36.1265455 107.393351,35.8043182 C105.870637,35.4137045 104.886514,34.9929545 104.886514,33.4977273 L104.886514,33.4757045 C104.886514,32.1068182 105.988127,31.19925 107.538759,31.19925 C108.641535,31.19925 109.581453,31.5469773 110.349208,32.1601364 L109.483739,33.4096364 C108.812535,32.946 108.1518,32.6631818 107.515494,32.6631818 C106.875698,32.6631818 106.540678,32.95875 106.540678,33.3250227 L106.540678,33.3447273 C106.540678,33.8419773 106.866392,34.0007727 108.173902,34.33575 C109.709412,34.7344773 110.576045,35.2838864 110.576045,36.5994545 L110.576045,36.6214773 C110.576045,38.1201818 109.430229,38.9593636 107.797004,38.9593636 C106.648861,38.9593636 105.492576,38.5629545 104.581739,37.7550682" id="Fill-28" fill="#030404" mask="url(#mask-2)"></path>
                        <polygon id="Fill-29" fill="#030404" mask="url(#mask-2)" points="113.225265 38.8538864 114.889898 38.8538864 114.889898 31.3082045 113.225265 31.3082045"></polygon>
                        <polygon id="Fill-30" fill="#030404" mask="url(#mask-2)" points="119.886471 32.8375091 117.582043 32.8375091 117.582043 31.3086682 123.855533 31.3086682 123.855533 32.8375091 121.551104 32.8375091 121.551104 38.85435 119.886471 38.85435"></polygon>
                        <polygon id="Fill-31" fill="#030404" mask="url(#mask-2)" points="128.406459 35.879775 125.498296 31.3083205 127.444439 31.3083205 129.25099 34.3358659 131.090112 31.3083205 132.982745 31.3083205 130.073418 35.8438432 130.073418 38.8540023 128.406459 38.8540023"></polygon>
                        <polygon id="Fill-32" fill="#EC212B" mask="url(#mask-2)" points="53.9416592 11.0758091 57.0091898 11.0758091 57.0091898 22.2054 64.4843327 22.2054 63.3396796 24.9617182 53.9416592 24.9617182"></polygon>
                        <path d="M71.904802,11.0758091 L74.7292102,11.0758091 L80.7049041,24.9617182 L77.5012714,24.9617182 L76.2251694,21.8495591 L70.3309041,21.8495591 L69.0582918,24.9617182 L65.9337612,24.9617182 L71.904802,11.0758091 Z M75.1305367,19.1500364 L73.2774551,14.6469682 L71.4278633,19.1500364 L75.1305367,19.1500364 Z" id="Fill-33" fill="#EC212B" mask="url(#mask-2)"></path>
                        <polygon id="Fill-34" fill="#EC212B" mask="url(#mask-2)" points="90.8425286 13.8926318 86.4663245 13.8926318 86.4663245 11.0760409 98.2851 11.0760409 98.2851 13.8926318 93.9077327 13.8926318 93.9077327 24.96195 90.8425286 24.96195"></polygon>
                        <path d="M101.69242,11.0758091 L108.063624,11.0758091 C109.830624,11.0758091 111.181176,11.5464 112.125747,12.4852636 C112.920257,13.2804 113.319257,14.3374909 113.319257,15.6576955 L113.319257,15.6994227 C113.319257,16.8237409 113.043563,17.7405818 112.493339,18.4464682 C111.941951,19.1569909 111.22189,19.6739455 110.333155,20.0031273 L113.736869,24.9617182 L110.154012,24.9617182 L107.169073,20.5212409 L107.124869,20.5212409 L104.756461,20.5212409 L104.756461,24.9617182 L101.69242,24.9617182 L101.69242,11.0758091 Z M107.863543,17.8228773 C108.624318,17.8228773 109.202461,17.6443773 109.604951,17.2873773 C110.012094,16.9303773 110.212176,16.4539909 110.212176,15.8582182 L110.212176,15.8199682 C110.212176,15.1558091 110.000461,14.6608773 109.573543,14.3316955 C109.153604,14.0013545 108.560339,13.8367636 107.80538,13.8367636 L104.756461,13.8367636 L104.756461,17.8228773 L107.863543,17.8228773 Z" id="Fill-35" fill="#EC212B" mask="url(#mask-2)"></path>
                        <path d="M123.452927,25.20165 C122.378069,25.20165 121.389294,25.0127182 120.484273,24.6348545 C119.582743,24.2604682 118.802192,23.7504682 118.147273,23.1071727 C117.487702,22.4685136 116.977029,21.7139455 116.61409,20.8469455 C116.248824,19.9811045 116.066192,19.0526727 116.066192,18.0628091 L116.066192,18.0187636 C116.066192,17.0289 116.251151,16.09815 116.623396,15.2334682 C116.996804,14.3676273 117.512131,13.6072636 118.167049,12.9523773 C118.825457,12.2974909 119.606008,11.7816955 120.514518,11.40615 C121.425355,11.0282864 122.416457,10.8405136 123.494804,10.8405136 C124.568498,10.8405136 125.557273,11.0282864 126.456478,11.40615 C127.361498,11.7816955 128.142049,12.2928545 128.799294,12.9303545 C129.453049,13.5724909 129.967212,14.3293773 130.332478,15.1917409 C130.69658,16.0599 130.879212,16.9883318 130.879212,17.9816727 L130.879212,18.0187636 C130.879212,19.0144227 130.691927,19.9428545 130.319682,20.8040591 C129.9486,21.6733773 129.434437,22.4360591 128.777192,23.0909455 C128.12111,23.7446727 127.338233,24.2604682 126.429722,24.6348545 C125.520049,25.0127182 124.531273,25.20165 123.452927,25.20165 M123.494804,22.3827409 C124.104355,22.3827409 124.666212,22.2714682 125.183865,22.0466045 C125.703845,21.8240591 126.142396,21.5134227 126.509988,21.1146955 C126.872927,20.7171273 127.157927,20.2558091 127.364988,19.7342182 C127.569722,19.2149455 127.670927,18.6562636 127.670927,18.0628091 L127.670927,18.0187636 C127.670927,17.4253091 127.569722,16.8666273 127.364988,16.3346045 C127.157927,15.8060591 126.86711,15.3424227 126.487886,14.9425364 C126.108661,14.5472864 125.664294,14.2343318 125.144314,14.0013545 C124.627824,13.7741727 124.062478,13.6571045 123.452927,13.6571045 C122.829416,13.6571045 122.26058,13.7660591 121.748743,13.9932409 C121.238069,14.2204227 120.800682,14.5299 120.43658,14.92515 C120.072478,15.3204 119.786314,15.7828773 119.580416,16.3033091 C119.374518,16.8249 119.269824,17.3870591 119.269824,17.9816727 L119.269824,18.0187636 C119.269824,18.6133773 119.374518,19.1766955 119.580416,19.7075591 C119.786314,20.2384227 120.077131,20.7009 120.457518,21.0926727 C120.834416,21.4925591 121.278784,21.8089909 121.789457,22.0408091 C122.301294,22.26915 122.868967,22.3827409 123.494804,22.3827409" id="Fill-36" fill="#EC212B" mask="url(#mask-2)"></path>
                        <path d="M134.20429,11.0758091 L140.661576,11.0758091 C142.265718,11.0758091 143.477841,11.4884455 144.297943,12.3079227 C144.934249,12.9442636 145.252984,13.7301273 145.252984,14.6678318 L145.252984,14.7095591 C145.252984,15.1048091 145.204127,15.4548545 145.104086,15.7585364 C145.005208,16.0633773 144.873759,16.3357636 144.708576,16.5814909 C144.542229,16.8249 144.352616,17.0404909 144.133922,17.2271045 C143.916392,17.4148773 143.686065,17.5713545 143.433637,17.7034909 C144.237453,18.0060136 144.873759,18.41865 145.335576,18.9425591 C145.797392,19.4653091 146.030045,20.1885818 146.030045,21.1146955 L146.030045,21.1541045 C146.030045,21.7916045 145.905576,22.3468091 145.658963,22.8208773 C145.414678,23.2972636 145.063371,23.6948318 144.607371,24.0124227 C144.149045,24.3311727 143.601147,24.5664682 142.960188,24.7229455 C142.312249,24.8863773 141.60382,24.9617182 140.823269,24.9617182 L134.20429,24.9617182 L134.20429,11.0758091 Z M140.017127,16.6916045 C140.694147,16.6916045 141.231576,16.5745364 141.630576,16.3415591 C142.027249,16.1155364 142.227331,15.7399909 142.227331,15.2241955 L142.227331,15.1813091 C142.227331,14.7234682 142.054004,14.3676273 141.707351,14.1253773 C141.361861,13.8761727 140.865147,13.7567864 140.213718,13.7567864 L137.191555,13.7567864 L137.191555,16.6916045 L140.017127,16.6916045 Z M140.831412,22.2842182 C141.509596,22.2842182 142.040045,22.1625136 142.423922,21.9191045 C142.810127,21.6733773 143.002065,21.2966727 143.002065,20.7808773 L143.002065,20.73915 C143.002065,20.2731955 142.822922,19.9104 142.4658,19.6368545 C142.106351,19.3656273 141.529371,19.2276955 140.734861,19.2276955 L137.191555,19.2276955 L137.191555,22.2842182 L140.831412,22.2842182 Z" id="Fill-37" fill="#EC212B" mask="url(#mask-2)"></path>
                        <polygon id="Fill-38" fill="#EC212B" mask="url(#mask-2)" points="149.373153 11.0758091 159.86348 11.0758091 159.86348 13.7950364 152.399969 13.7950364 152.399969 16.6104682 157.85801 16.6104682 157.85801 19.3308545 152.399969 19.3308545 152.399969 22.2471273 159.965847 22.2471273 159.965847 24.9617182 149.373153 24.9617182"></polygon>
                    </g>
                </g>
            </g>
        </g>
    </g>
</svg>