<svg width="171" height="50" viewBox="0 0 171 50" xmlns="http://www.w3.org/2000/svg" xmlns:xlink="http://www.w3.org/1999/xlink"><title>ED710A90-D7D5-4D08-AC7D-0178840E89D5</title><defs><path id="a" d="M0 49.84h170.454V.557H0z"/></defs><g fill="none" fill-rule="evenodd"><path fill="#FEFEFE" d="M0 49.444h170.454V.159H0z"/><path fill="#FEFEFE" d="M0 49.444h170.454V.159H0z"/><g transform="translate(0 -.397)"><path d="M44.974 16.415c-.12.266-.442.466-.442.466.694-.022.442-.466.442-.466z" fill="#030404"/><path d="M32.313 35.237s.125.266.39.43c.191.12.71.378.935.613l.13.257c-.049.035-.172-.01-.433-.25-.257-.236-.411-.102-.43.054-.016.126.052.564.01.845-.044.284-.187.327-.176.007.011-.315-.166-1.044-.479-1.016-.24.023-.365.243-.435.39-.075.153-.19.304-.154.175 0 0 .033-.32-.138-.681-.17-.363-.22-.4-.416-.431-.193-.026-.21-.193.123-.338.34-.146.497-.224 1.073-.055m14.652-18.2c-.096-.948-.61-1.026-1.113-1.231-.499-.2-1.402-.457-1.738-.653-.335-.197-.675-.262-1.075-.328-.4-.065-1.406 0-1.866-.072-.458-.07-1.174-.208-1.326-.105-.152.105-.157.649-1.287.996-.697.214-1.58.428-2.24.619-.014-.33.036-1.337.9-2.777 1.062-1.778 1.358-2.371.896-2.838-.513-.515-2.622.6-2.622.6s.045-.203.071-.51c.615-.363 2.953-1.66 3.908-1.129 1.105.616-.25 2.323-.373 2.48-.125.158-1.63 2.404-1.933 3.312l.63-.171s1.401-2.238 1.882-2.832c.48-.593 1.604-2.296.708-3.047-.88-.74-2.344-.458-4.807 1.128.027-.814-.136-2.036-1.257-2.459-1.923-.723-8.205-.23-15.337 5.451 0 0-2.779 1.948-5.44 4.7-2.523 2.608-4.878 5.32-4.125 5.718.827.437 2.962-1.94 3.213-2.185 0 0 2.25.134 5.059-2.26 0 0 1.54.976 3.675.401 0 0-.847 2.089 1.655 1.916 0 0-.212 1.017.633.845 0 0-4.94 2.88-4.856 2.995.086.116 2.53-.96 3.729-1.563.717-.364 1.15-.71 1.725-.808.572-.094 2.623-.19 5.493-1.753 2.873-1.566 3.79-3.585 3.925-5.036 0 0-.732.66-.915.639-.18-.022.118-.77.191-1.254.072-.486.653-2.358.116-2.132-.538.224-2.24 1.9-2.852.826-.453-.791.79-2.275.79-2.275s-3.88 2.15-4.596 1.044c-.632-.98.438-1.75.438-1.75s-4.285 1.673-8.674 4.63c-4.386 2.96-7.03 6.59-7.888 6.735-.854.143 6.89-9.07 15.246-12.393 4.512-1.794 7.536-2.028 8.755-1.464.713.33.626 1.236.626 1.457 0 0-.628 5.949.425 7.436 0 0 .899-.5 1.653-.828 0 0-.355 0-.18-.32.098-.18.383-.272.8-.4.558-.176 1.52-.25 2.03-.623.51-.373.467-.52.717-.612 0 0 1.045.183 1.59.126.546-.058 1.055-.114 1.372-.01.32.1 1.444.69 2.114.812.669.125.745.176.965.567.262.464.267.932.267.932l-.024-.015c-.387-.235-1.415-.207-1.415-.207.256.028.51.136.135.228a40.92 40.92 0 0 0-1.475.437c.288-.391.94-.647.965-.66l-1.319.019c.302-.208.448-.718.501-.945a1.87 1.87 0 0 0 .35-.09c.366-.124-.04-.22-.824-.25-.782-.029-1.409-.143-1.409-.143l-.195.342c.075-.042.414-.144.71-.105.014.15.084.496.482.535a.71.71 0 0 0 .396-.062c-.12.266-.42.706-1.064.579-.443-.09-.67-.525-.67-.525s-.472.962-.92 1.197c-.444.236-2.751 1.285-3.7 2.448-.947 1.165-1.324 1.558-2.06 1.755-.73.194-.814.214-.905.316-.097.104-.873 1.346-3.361 2.664-.796.42-1.124.409-1.259.273-.217-.22.063-.572-.088-.565-.271.015-.45.105-1.041.355-.811.346-1.315.636-1.944.687-.571.047-1.128-.128-1.167-.966 0 0-.03-.018-.431.128-.405.141-2.736 1.21-3.58 1.221-.456.006.382-1.044.382-1.044s-2.21 1.316-2.693 1.537c-.476.221-1.843.812-1.297-.594 0 0-3.152 1.967-7.912 3.434-1.533.473-1.898.267-1.886.64.003.18.174.243.402.261.33.021.921.028 1.47-.05a30.66 30.66 0 0 0 4.356-1c2.189-.696 2.842-1.449 4.358-1.029 1.93.533 2.891-.262 2.891-.262s.29.52 1.478.5c0 0 1.092.824 3.072.506 0 0 .767.401 1.95.387.073.432.178 1.163.137 1.715-.074.96-.005 1.232.537.759 0 0 .582 1.656.614 2.071.033.41.026.67.245.697.222.023.375 0 .375 0s.15.374.68.52c0 0 .047.161-.788.487-.414.162-.798.552-.649.74 0 0 .344.006.718-.017 0 0 .485-.466 1.076-.136.28.154.325.379.284.556l-.1.215c-.027.041-.09.126-.158.244-.102.173-.218.4-.175.48.073.137.36.535-.442.636 0 0 .04.161.29.146.248-.013.87-.406.9-.607 0 0 .295-.332.485-.803.186-.469.21-.545.27-.469.063.072.281.59.11.994-.13.31-.242.37-.14.508l.172.131c.067.048.073.166-.12.36-.337.337.582-.063.713-.383 0 0 .29-.334.17-1.609 0 0-.02-.134.146-.034.164.102.417.37.425.607.008.235-.107.45.056.524.163.074.165.327.104.48-.06.153-.415.201-.331.227.083.027.732.031.844-.723.116-.756-.208-1.615-1.085-2.148-.876-.533-1.164-.8-1.3-4.004-.047-1.116.279-2.42.513-3.291.294-1.06.651-1.656.67-1.535.033.21-.254 1.016-.278 1.419 0 0 2.587-1.35 3.353-1.995.777-.653 1.155-1.151 1.181-1.19.028-.04.671-.668.92-2.343l.984-1.923s.396.648.725.256c.327-.394 1.01-1.502 1.114-1.514 0 0 .162.5.397.357.236-.143.327-.685.93-.97.604-.288 1.657-.604 1.657-.604s2.383-.586 2.465-.409c.084.178.09.591.09.591s.362-.547.26-1.496" fill="#030404"/><path d="M18.523 28.893c-.646-.247-1.584-.01-2.514.408-.927.42-5.384 1.908-7.932 1.75 0 0 .375.576 1.935.82 0 0-.13.866 1.404.534 1.533-.329 7.04-2.79 8.198-3.447 0 0-.443.18-1.091-.065m3.973.203c-.038 0-.837.068-1.379-.428l-5.457 2.81s-2.494 1.147-2.03 1.442c0 0 .777.441 2.522-.232 1.745-.672 6.65-3.392 6.65-3.392l-.306-.2m2.316.5s-.702.061-1.244-.216c0 0-2.945 1.866-3.5 2.165-.56.302-1.439.656-.468.812.97.155 2.003.053 3.656-1.367 1.476-1.27 1.556-1.394 1.556-1.394m10.421 5.687c.58-.015 1.873.856 1.85.96-.021.105-.482-.122-.617-.176-.138-.054-.33-.072-.173.142.157.212.356.715.346.819l-.103.017c-.175-.493-.617-.906-.861-1-.243-.095-.319-.037-.332.13-.015.169.07.5-.118.027-.193-.471-.643-.86-.776-.949-.137-.092-.073-.185-.073-.185.059-.068.167-.077.28-.068.285.027.577.283.577.283m-1.064-7.097c-.582.307-1.302.628-1.302.628s-.265 1.032-.197 2.918c.088 2.444.352 3.128 1.152 3.588 1.138.653 1.344 1.647 1.334 1.96-.004.314-.037.396.065.51.102.113.093.176-.028.39-.12.213-.46.269-.32.286.14.022.533.035.723-.4.186-.433.407-.666.037-1.594 0 0 .43-.068.596.726.104.508-.054.692.35.842 0 0 .062.183-.17.438-.18.198.073.147.23.073.27-.131.508-.503.467-.936-.034-.412-.282-.944-.456-1.206 0 0 .3.066.465.362.165.294.139.45.548.427 0 0 .178.136.19.417.011.28-.339.481-.224.462.117-.021.889-.31.304-1.273 0 0-.099-.46-.544-.697-.446-.235-1.008-.885-2.037-1.066 0 0-.474-.496-.567-.79 0 0 .057-.127.082-.24.026-.11-.668-3.632 1.014-6.786 0 0-1.13.654-1.712.961m-10.72 9.463l1.24.503c-.112.717.565 1.174.565 1.174-.074.262-.306.468-.443.572l-.121.089.114-.027c1.184-.456 1.296-1.54 1.243-2.296-.047-.718-.557-1.116-.557-1.116-.015.005 1.993.275 2.718.13.723-.147-.007-.18-.007-.18-1.507.017-3.184-.584-4.038-.309-1.141.372-1.195 1.48-1.216 1.668-.135 1.047.445 1.62.71 1.822l.128.086-.065-.124c-.621-1.153-.271-1.992-.271-1.992" fill="#030404"/><path d="M44.186 39.19c-1.158.092-2.453-.164-2.47-.158l-.174.109c.905.4 1.915.322 2.149.363.232.038-.047.137-.047.137-1.254 1.025-3.334.717-6.394.717-3.062 0-6.27.864-7.324 1.04-.422.071-.776-.3-1.073-.451a6.004 6.004 0 0 0-.702-.306c3.599-.76 5.647-.982 9.494-1.245 2.323-.156 4.286.17 4.531-1.581.072-.53-.045-.96-.25-1.303-.364-.616-.963-.934-1.224-1.048l-.287-.01c-1.217.41-2.46.51-2.692.541-.24.029-.11.1-.11.1a7.147 7.147 0 0 0 2.682-.333l.236-.01c.247.073.822.326 1.115 1.13.5 1.374-.574 1.69-1.49 1.736-.918.048-4.79.457-6.261.533-1.47.077-5.343.609-6.747.819-1.083.162-2.463.258-2.463.258-.374.006.24.176 1.71.4 1.47.22 1.86.79 2.46 1.173.27.171.785.173 1.274.124.606-.063 1.899-.423 2.722-.57 1.61-.282 4.375-.579 8.213-.457 2.117.065 2.86-.54 3.577-1.421.337-.419-.455-.288-.455-.288m9.756-3.572v-4.309h1.665v4.268c0 1.227.617 1.867 1.636 1.867 1.016 0 1.632-.618 1.632-1.814v-4.32h1.665v4.255c0 2.286-1.286 3.41-3.323 3.41-2.032 0-3.275-1.13-3.275-3.357m9.663-4.309h1.534l3.55 4.643v-4.643h1.644v7.546h-1.415l-3.668-4.796v4.796h-1.645z" fill="#030404"/><mask id="b" fill="#fff"><use xlink:href="#a"/></mask><path fill="#030404" mask="url(#b)" d="M73.523 38.854h1.663v-7.546h-1.663zm4.074-7.546h1.84l1.978 5.314 1.981-5.314h1.797l-3.063 7.546h-1.47zm10.029 0h5.71v1.476h-4.057v1.53h3.57v1.479h-3.57v1.583h4.11v1.478h-5.763zm11.765 3.663c.811 0 1.276-.43 1.276-1.066v-.02c0-.714-.496-1.079-1.307-1.079h-1.655v2.165h1.686zm-3.354-3.662h3.461c.964 0 1.712.27 2.21.763.42.421.646 1.015.646 1.726v.022c0 1.215-.657 1.985-1.621 2.337l1.85 2.697h-1.948l-1.62-2.415h-1.31v2.415h-1.668V31.31zm8.545 6.446l.986-1.176c.682.56 1.396.916 2.262.916.681 0 1.09-.27 1.09-.712v-.021c0-.419-.259-.635-1.527-.958-1.522-.39-2.506-.811-2.506-2.306v-.022c0-1.37 1.101-2.277 2.652-2.277 1.103 0 2.042.348 2.81.961l-.865 1.25c-.671-.464-1.332-.747-1.969-.747-.64 0-.974.296-.974.662v.02c0 .497.325.656 1.633.99 1.535.4 2.402.949 2.402 2.264v.022c0 1.5-1.146 2.338-2.779 2.338a4.836 4.836 0 0 1-3.215-1.204m8.643 1.099h1.665v-7.546h-1.665zm6.661-6.016h-2.304v-1.53h6.274v1.53h-2.305v6.016h-1.665zm8.52 3.042l-2.908-4.572h1.946l1.807 3.028 1.84-3.028h1.892l-2.91 4.536v3.01h-1.667z"/><path fill="#EC212B" mask="url(#b)" d="M53.942 11.076h3.067v11.13h7.475l-1.144 2.756h-9.398zm17.963 0h2.824l5.976 13.886H77.5l-1.276-3.112H70.33l-1.273 3.112h-3.124l5.97-13.886zm3.226 8.074l-1.854-4.503-1.85 4.503h3.704zm15.712-5.257h-4.377v-2.817h11.82v2.817h-4.378v11.069h-3.065zm10.849-2.817h6.372c1.767 0 3.117.47 4.062 1.41.794.794 1.193 1.851 1.193 3.172v.041c0 1.125-.275 2.042-.826 2.747-.551.711-1.271 1.228-2.16 1.557l3.404 4.959h-3.583l-2.985-4.44h-2.413v4.44h-3.064V11.076zm6.172 6.747c.76 0 1.338-.179 1.741-.536.407-.357.607-.833.607-1.429v-.038c0-.664-.212-1.16-.638-1.488-.42-.33-1.014-.495-1.769-.495h-3.049v3.986h3.108zm15.589 7.379c-1.075 0-2.064-.19-2.969-.567a7.283 7.283 0 0 1-2.337-1.528 6.724 6.724 0 0 1-1.533-2.26 7.09 7.09 0 0 1-.548-2.784v-.044c0-.99.185-1.92.557-2.786a7.262 7.262 0 0 1 1.544-2.28 7.17 7.17 0 0 1 2.348-1.547c.91-.378 1.901-.565 2.98-.565 1.073 0 2.062.187 2.961.565a7.406 7.406 0 0 1 2.343 1.524 6.934 6.934 0 0 1 1.533 2.262c.365.868.547 1.796.547 2.79v.037c0 .995-.187 1.924-.56 2.785a7.169 7.169 0 0 1-1.542 2.287 7.14 7.14 0 0 1-2.347 1.544c-.91.378-1.899.567-2.977.567m.042-2.82c.61 0 1.171-.11 1.689-.335a3.84 3.84 0 0 0 1.326-.932 4.48 4.48 0 0 0 1.16-3.052v-.044c0-.594-.1-1.152-.305-1.684a4.252 4.252 0 0 0-.877-1.392 4.238 4.238 0 0 0-1.344-.942 4.161 4.161 0 0 0-1.691-.344c-.624 0-1.192.11-1.704.336-.51.227-.948.537-1.312.932-.365.395-.65.858-.857 1.378a4.54 4.54 0 0 0-.31 1.679v.037c0 .594.105 1.158.31 1.689.206.53.497.993.878 1.385.376.4.82.716 1.331.948.512.228 1.08.342 1.706.342m10.709-11.307h6.458c1.604 0 2.816.412 3.636 1.232.636.636.955 1.422.955 2.36v.042c0 .395-.049.745-.149 1.049a3.27 3.27 0 0 1-.395.822 3.254 3.254 0 0 1-.575.646 3.656 3.656 0 0 1-.7.476c.803.303 1.44.716 1.902 1.24.461.522.694 1.246.694 2.172v.04c0 .637-.124 1.192-.371 1.666a3.24 3.24 0 0 1-1.052 1.191c-.458.32-1.006.554-1.647.71-.648.164-1.356.24-2.137.24h-6.619V11.076zm5.813 5.616c.677 0 1.215-.117 1.614-.35.396-.226.596-.602.596-1.118v-.043c0-.458-.173-.813-.52-1.056-.345-.249-.842-.368-1.493-.368h-3.022v2.935h2.825zm.814 5.592c.679 0 1.209-.121 1.593-.365.386-.246.578-.622.578-1.138v-.042c0-.466-.18-.829-.536-1.102-.36-.271-.937-.41-1.731-.41h-3.543v3.057h3.64zm8.542-11.208h10.49v2.719H152.4v2.815h5.458v2.72H152.4v2.917h7.566v2.715h-10.593z"/></g></g></svg>