<svg width="19" height="19" viewBox="0 0 19 19" xmlns="http://www.w3.org/2000/svg"><title>29916144-91F7-43CE-9888-FF5F98607D13</title><path d="M13.079 7.996a5.093 5.093 0 0 1-5.086 5.089 5.093 5.093 0 0 1-5.087-5.089 5.093 5.093 0 0 1 5.087-5.088 5.093 5.093 0 0 1 5.086 5.088zm5.813 9.45c0-.386-.16-.76-.42-1.022l-3.895-3.896a7.98 7.98 0 0 0 1.408-4.532A7.992 7.992 0 0 0 7.993 0 7.992 7.992 0 0 0 0 7.996a7.992 7.992 0 0 0 12.522 6.588l3.895 3.884c.26.273.635.432 1.021.432.795 0 1.454-.659 1.454-1.454z" fill="#E2231B" fill-rule="evenodd"/></svg>