<?xml version="1.0" encoding="UTF-8" standalone="no"?>
<svg width="20px" height="23px" viewBox="0 0 20 23" version="1.1" xmlns="http://www.w3.org/2000/svg" xmlns:xlink="http://www.w3.org/1999/xlink">
    <!-- Generator: sketchtool 40.2 (33826) - http://www.bohemiancoding.com/sketch -->
    <title>727DE20C-7909-4510-A73C-489F36EF0BE9</title>
    <desc>Created with sketchtool.</desc>
    <defs></defs>
    <g id="Symbols" stroke="none" stroke-width="1" fill="none" fill-rule="evenodd">
        <g id="Desktop-Footer" transform="translate(-1262.000000, -334.000000)" fill="#FFFFFF">
            <g id="Group-5">
                <g transform="translate(1173.000000, 334.000000)">
                    <path d="M105.400435,16.4404035 L104.224766,16.4404035 L104.230241,15.6137299 C104.230241,15.2463514 104.479466,14.9458214 104.783917,14.9458214 L104.858899,14.9458214 C105.164063,14.9458214 105.414003,15.2463514 105.414003,15.6137299 L105.400435,16.4404035 L105.400435,16.4404035 Z M100.953581,14.646905 C100.626945,14.646905 100.359744,14.8460362 100.359744,15.0898655 L100.359744,18.3897204 C100.359744,18.6330767 100.626945,18.831735 100.953581,18.831735 C101.281521,18.831735 101.548982,18.6330767 101.548982,18.3897204 L101.548982,15.0898655 C101.548982,14.8457997 101.281521,14.646905 100.953581,14.646905 L100.953581,14.646905 Z M108.089787,12.7193304 L108.089787,19.264974 C108.089787,20.8350506 106.754746,22.1198157 105.122759,22.1198157 L92.9211873,22.1198157 C91.2887171,22.1198157 89.9539171,20.8350506 89.9539171,19.264974 L89.9539171,12.7193304 C89.9539171,11.1492538 91.2887171,9.86424212 92.9211873,9.86424212 L105.122759,9.86424212 C106.754746,9.86424212 108.089787,11.1492538 108.089787,12.7193304 L108.089787,12.7193304 Z M93.5591986,20.0274007 L93.5582714,13.2633686 L95.008176,13.2638524 L95.008176,12.2616213 L91.1431545,12.2555735 L91.1431545,13.240871 L92.3496698,13.2444997 L92.3496698,20.0274007 L93.5591986,20.0274007 L93.5591986,20.0274007 Z M98.278337,14.0490721 L97.0170483,14.0490721 L97.0170483,17.7672252 C97.0170483,18.3051135 97.0487317,18.5740577 97.0151135,18.6689352 C96.9125657,18.9573032 96.4515847,19.2636007 96.2718843,18.700063 C96.2414102,18.6014502 96.2682564,18.3038684 96.2677727,17.7928745 L96.2626937,14.0490721 L95.0084189,14.0490721 L95.0122886,17.7341052 C95.0132561,18.298888 94.9999539,18.7199848 95.0166421,18.9117321 C95.047358,19.2496554 95.0364744,19.6436088 95.3409735,19.8687251 C95.908372,20.2895729 96.9960067,19.8059714 97.2680968,19.2043334 L97.2656782,19.9720693 L98.2785789,19.9733144 L98.278337,14.0490721 L98.278337,14.0490721 Z M102.440906,18.3746334 L102.438257,15.3815783 C102.437294,14.2409081 101.584052,13.5578548 100.425926,14.4807957 L100.430983,12.2555735 L99.1765275,12.2575004 L99.1705069,19.9382379 L100.2022,19.9233051 L100.296122,19.4449751 C101.614155,20.6542878 102.442833,19.8255196 102.440906,18.3746334 L102.440906,18.3746334 Z M106.269638,17.9044933 L105.310129,17.9096687 C105.309638,17.9478683 105.308166,17.9919826 105.307675,18.04004 L105.307675,18.5777908 C105.307675,18.8656427 105.070865,19.1000152 104.783258,19.1000152 L104.595283,19.1000152 C104.307184,19.1000152 104.070375,18.8656427 104.070375,18.5777908 L104.070375,17.1634225 L106.267675,17.1634225 L106.267675,16.3328909 C106.267675,15.7258881 106.252214,15.1191318 106.202153,14.7721322 C106.044853,13.6744504 104.51062,13.5002112 103.735651,14.0621139 C103.492461,14.2375853 103.306694,14.4724508 103.198719,14.7879049 C103.089762,15.1036055 103.035528,15.5348905 103.035528,16.0827456 L103.035528,17.9089294 C103.036019,20.9446827 106.707674,20.5156157 106.269638,17.9044933 L106.269638,17.9044933 Z M101.400745,8.12585211 C101.467579,8.2889687 101.571433,8.42115798 101.712306,8.52092348 C101.851441,8.61919249 102.029334,8.66857641 102.242508,8.66857641 C102.429345,8.66857641 102.594816,8.61794542 102.738919,8.51344106 C102.882526,8.40943554 103.003523,8.25405078 103.102408,8.04678796 L103.077811,8.55708847 L104.522075,8.55708847 L104.522075,2.39133142 L103.385149,2.39133142 L103.385149,7.19005176 C103.385149,7.44994088 103.171975,7.6626908 102.911347,7.6626908 C102.652209,7.6626908 102.43829,7.44994088 102.43829,7.19005176 L102.43829,2.39133142 L101.251672,2.39133142 L101.251672,6.55005611 C101.251672,7.07981089 101.261362,7.43298075 101.277015,7.61205981 C101.293164,7.78989181 101.333911,7.96049081 101.400745,8.12585211 L101.400745,8.12585211 Z M97.0900561,4.5747873 C97.0900561,3.98495357 97.1372254,3.52437122 97.2308493,3.19229458 C97.3251878,2.86146075 97.4945684,2.59550116 97.7399439,2.39491295 C97.9846047,2.1933305 98.2978754,2.092415 98.678803,2.092415 C98.9992205,2.092415 99.2736599,2.15803493 99.5028359,2.28654064 C99.733203,2.41579202 99.9109215,2.58357026 100.034086,2.79062104 C100.159632,2.9984175 100.244918,3.21193085 100.29042,3.43041541 C100.336874,3.65188269 100.359744,3.98594781 100.359744,4.43658774 L100.359744,5.9905871 C100.359744,6.56053601 100.337827,6.97985733 100.295184,7.24606548 C100.253018,7.5130193 100.162491,7.76058542 100.022174,7.99274079 C99.8840017,8.22241057 99.7055685,8.39416577 99.4892568,8.50378089 C99.2705629,8.61439025 99.0204229,8.66857641 98.7378837,8.66857641 C98.4222307,8.66857641 98.1563676,8.62308986 97.9371972,8.52813981 C97.7173122,8.43368687 97.5474551,8.29126179 97.426435,8.10210735 C97.3042237,7.91270436 97.2182232,7.68204035 97.1662893,7.41309804 C97.1141172,7.14440429 97.0893415,6.74024515 97.0893415,6.20161485 L97.0900561,4.5747873 L97.0900561,4.5747873 Z M98.2785789,7.14684537 C98.2785789,7.49091712 98.5468589,7.77182713 98.8735838,7.77182713 C99.2005661,7.77182713 99.4678163,7.49091712 99.4678163,7.14684537 L99.4678163,3.91257093 C99.4678163,3.56899071 99.2005661,3.28808071 98.8735838,3.28808071 C98.5468589,3.28808071 98.2785789,3.56899071 98.2785789,3.91257093 L98.2785789,7.14684537 L98.2785789,7.14684537 Z M94.2608619,8.66857641 L95.5567167,8.66857641 L95.5581345,4.004004 L97.0893415,0.0081187178 L95.6720298,0.0081187178 L94.8579854,2.97612513 L94.0323624,-2.66453526e-15 L92.6297012,-2.66453526e-15 L94.2587353,4.0062182 L94.2608619,8.66857641 L94.2608619,8.66857641 Z" id="Imported-Layers"></path>
                </g>
            </g>
        </g>
    </g>
</svg>