<svg width="20" height="23" viewBox="0 0 20 23" xmlns="http://www.w3.org/2000/svg"><title>727DE20C-7909-4510-A73C-489F36EF0BE9</title><path d="M16.4 16.44h-1.175l.005-.826c0-.368.25-.668.554-.668h.075c.305 0 .555.3.555.668l-.014.826zm-4.446-1.793c-.327 0-.594.199-.594.443v3.3c0 .243.267.442.594.442.328 0 .595-.199.595-.442v-3.3c0-.244-.267-.443-.595-.443zm7.136-1.928v6.546c0 1.57-1.335 2.855-2.967 2.855H3.92c-1.632 0-2.967-1.285-2.967-2.855v-6.546c0-1.57 1.335-2.855 2.967-2.855h12.202c1.632 0 2.967 1.285 2.967 2.855zM4.56 20.027l-.002-6.764h1.45v-1.001l-3.865-.006v.985l1.207.003v6.783h1.21zm4.718-5.978H8.017v3.718c0 .538.032.807-.002.902-.102.288-.563.595-.743.031-.03-.099-.004-.396-.004-.907l-.005-3.744H6.008l.004 3.685c.001.565-.012.986.005 1.178.03.338.02.732.324.957.567.42 1.655-.063 1.927-.665l-.002.768 1.013.001V14.05zm4.163 4.326l-.003-2.993c0-1.141-.854-1.824-2.012-.901l.005-2.225-1.254.002-.006 7.68 1.031-.015.094-.478c1.318 1.21 2.147.38 2.145-1.07zm3.829-.47l-.96.005-.002.13v.538a.525.525 0 0 1-.525.522h-.188a.525.525 0 0 1-.525-.522v-1.415h2.198v-.83c0-.607-.016-1.214-.066-1.56-.157-1.099-1.691-1.273-2.466-.71a1.45 1.45 0 0 0-.537.725c-.11.316-.163.747-.163 1.295v1.826c0 3.036 3.672 2.607 3.234-.005zm-4.87-9.78a.892.892 0 0 0 .312.396.9.9 0 0 0 .53.148.821.821 0 0 0 .497-.156c.144-.104.265-.259.363-.466l-.024.51h1.444V2.391h-1.137v4.8a.475.475 0 0 1-.474.472.475.475 0 0 1-.473-.473V2.391h-1.186v4.16c0 .529.01.882.025 1.061.016.178.057.348.124.514zm-4.31-3.55c0-.59.047-1.05.14-1.383a1.56 1.56 0 0 1 .51-.797c.245-.202.558-.303.939-.303.32 0 .595.066.824.195.23.129.408.297.531.504.126.207.21.42.256.64.047.22.07.555.07 1.006V5.99c0 .57-.022.989-.065 1.255a2.043 2.043 0 0 1-.273.747c-.138.23-.316.401-.533.51a1.634 1.634 0 0 1-.751.166c-.316 0-.582-.046-.8-.14a1.11 1.11 0 0 1-.512-.427 1.94 1.94 0 0 1-.26-.689c-.052-.269-.077-.673-.077-1.211l.001-1.627zm1.19 2.572c0 .344.268.625.595.625.327 0 .594-.281.594-.625V3.913c0-.344-.267-.625-.594-.625-.327 0-.595.281-.595.625v3.234zM5.26 8.669h1.296l.001-4.665L8.09.008H6.672l-.814 2.968L5.032 0H3.63l1.629 4.006.002 4.663z" fill="#FFF" fill-rule="evenodd"/></svg>