<?xml version="1.0" encoding="UTF-8" standalone="no"?>
<svg width="23px" height="18px" viewBox="0 0 23 18" version="1.1" xmlns="http://www.w3.org/2000/svg" xmlns:xlink="http://www.w3.org/1999/xlink">
    <!-- Generator: sketchtool 40.2 (33826) - http://www.bohemiancoding.com/sketch -->
    <title>CAFE97F7-092D-4FE9-B915-C392574890E2</title>
    <desc>Created with sketchtool.</desc>
    <defs></defs>
    <g id="Symbols" stroke="none" stroke-width="1" fill="none" fill-rule="evenodd">
        <g id="Desktop-Footer" transform="translate(-1212.000000, -336.000000)" fill="#FFFFFF">
            <g id="Group-5">
                <g transform="translate(1173.000000, 334.000000)">
                    <path d="M61.1981567,4.30567937 C60.411161,4.66097117 59.566726,4.901926 58.6794911,5.00949958 C59.5854183,4.45678785 60.2788829,3.58010951 60.6075518,2.53868912 C59.7577712,3.05053571 58.8197702,3.42220205 57.8203119,3.62368001 C57.0199697,2.75380067 55.8815599,2.21198157 54.618873,2.21198157 C52.1964288,2.21198157 50.2322763,4.21312765 50.2322763,6.67984447 C50.2322763,7.02968996 50.2710234,7.37138378 50.3458622,7.69812693 C46.7008407,7.51159963 43.4686906,5.73236408 41.3054571,3.02875046 C40.9273148,3.68764749 40.7121969,4.45539957 40.7121969,5.27494502 C40.7121969,6.82550663 41.4871736,8.19363458 42.6630028,8.99406454 C41.9441377,8.96957393 41.2680377,8.76809596 40.6761401,8.43320114 L40.6761401,8.48901694 C40.6761401,10.6535168 42.1886741,12.4599839 44.194229,12.8711271 C43.826778,12.9718661 43.4393071,13.0276819 43.0384547,13.0276819 C42.7552062,13.0276819 42.4812862,12.9990977 42.212712,12.9446345 C42.7712081,14.7211647 44.3906547,16.0130443 46.3093868,16.0484631 C44.8088717,17.2464383 42.9168678,17.9584102 40.8618745,17.9584102 C40.5078051,17.9584102 40.1590464,17.9366249 39.8156682,17.8971481 C41.7571105,19.167278 44.0619858,19.9078341 46.539214,19.9078341 C54.6082516,19.9078341 59.0189212,13.098484 59.0189212,7.19307933 L59.004212,6.61452432 C59.8660115,5.98826957 60.6115698,5.2014376 61.1981567,4.30567937" id="Imported-Layers"></path>
                </g>
            </g>
        </g>
    </g>
</svg>