<svg width="23" height="20" viewBox="0 0 23 20" xmlns="http://www.w3.org/2000/svg" xmlns:xlink="http://www.w3.org/1999/xlink"><title>65A47E9B-7737-4DDE-A082-899B1A2F4D97</title><defs><path id="a" d="M9.61 15.132V.15H.065v14.982h9.543z"/></defs><g fill="none" fill-rule="evenodd"><g transform="translate(13.335 2.657)"><mask id="b" fill="#fff"><use xlink:href="#a"/></mask><path d="M6.595 2.205a1.16 1.16 0 0 0 .25-1.524 1.149 1.149 0 0 0-1.29-.485 8.04 8.04 0 0 0-.13.07C4.664.686-.469 4.302.11 4.71c.576.404 4.086-1.184 6.484-2.505m0 10.871C4.197 11.756.687 10.168.111 10.572c-.579.408 4.554 4.024 5.313 4.443l.132.071a1.148 1.148 0 0 0 1.29-.485 1.16 1.16 0 0 0-.25-1.525m2.112-6.624a3.006 3.006 0 0 0-.148-.003c-.867.002-7.098.689-6.785 1.327.311.632 4.148.938 6.883.94a1.154 1.154 0 0 0 .05-2.264" fill="#FFF" mask="url(#b)"/></g><path d="M5.548 14.54c-.714 2.026-1.374 2.975-2.892 2.975-.147 0-.657-.03-.69-.034a1.067 1.067 0 0 0-.346 2.091c.402.072.816.098 1.186.098 2.798 0 3.722-1.619 4.646-3.982L12.91 2.002a1.181 1.181 0 0 0-.76-1.48 1.17 1.17 0 0 0-1.456.716L6.86 11.426H6.8L2.765 1.162a1.24 1.24 0 0 0-2.298.92l5.081 12.459z" fill="#FFF"/></g></svg>