<svg width="12" height="22" viewBox="0 0 12 22" xmlns="http://www.w3.org/2000/svg"><title>D500429F-3547-41E2-8423-C629FCA87BE3</title><path d="M11.062.004L8.305 0c-3.098 0-5.1 2.037-5.1 5.19v2.392H.435a.432.432 0 0 0-.434.43v3.466c0 .238.194.43.434.43h2.772v8.748c0 .237.194.43.433.43h3.617c.24 0 .433-.193.433-.43v-8.748h3.242a.43.43 0 0 0 .433-.43l.002-3.466a.429.429 0 0 0-.434-.43H7.689V5.554c0-.975.235-1.47 1.515-1.47h1.857c.24 0 .434-.193.434-.43V.433a.432.432 0 0 0-.433-.43" fill="#FFF" fill-rule="evenodd"/></svg>