<svg width="23" height="18" viewBox="0 0 23 18" xmlns="http://www.w3.org/2000/svg"><title>CAFE97F7-092D-4FE9-B915-C392574890E2</title><path d="M22.198 2.306a8.634 8.634 0 0 1-2.519.703A4.474 4.474 0 0 0 21.608.54a8.745 8.745 0 0 1-2.788 1.085 4.337 4.337 0 0 0-3.2-1.413c-2.423 0-4.387 2.001-4.387 4.468 0 .35.039.691.114 1.018-3.645-.186-6.877-1.966-9.04-4.67a4.5 4.5 0 0 0-.594 2.247 4.49 4.49 0 0 0 1.951 3.72 4.325 4.325 0 0 1-1.987-.562v.056c0 2.165 1.513 3.971 3.518 4.382-.367.1-.755.157-1.156.157a4.16 4.16 0 0 1-.825-.083c.558 1.776 2.178 3.068 4.096 3.103a8.698 8.698 0 0 1-5.447 1.91c-.354 0-.703-.021-1.046-.06a12.233 12.233 0 0 0 6.723 2.01c8.07 0 12.48-6.81 12.48-12.715l-.015-.578a8.852 8.852 0 0 0 2.194-2.31" fill="#FFF" fill-rule="evenodd"/></svg>