<?xml version="1.0" encoding="UTF-8" standalone="no"?>
<svg width="23px" height="20px" viewBox="0 0 23 20" version="1.1" xmlns="http://www.w3.org/2000/svg" xmlns:xlink="http://www.w3.org/1999/xlink">
    <!-- Generator: sketchtool 40.2 (33826) - http://www.bohemiancoding.com/sketch -->
    <title>65A47E9B-7737-4DDE-A082-899B1A2F4D97</title>
    <desc>Created with sketchtool.</desc>
    <defs>
        <polygon id="path-1" points="9.60929673 15.1320614 9.60929673 0.150115593 0.0659545253 0.150115593 0.0659545253 15.1320614 9.60929673 15.1320614"></polygon>
    </defs>
    <g id="Symbols" stroke="none" stroke-width="1" fill="none" fill-rule="evenodd">
        <g id="Desktop-Footer" transform="translate(-1309.000000, -336.000000)">
            <g id="Group-5">
                <g transform="translate(1173.000000, 334.000000)">
                    <g id="Yammer" transform="translate(136.405530, 2.211982)">
                        <g id="Group-3" transform="translate(12.929941, 2.444524)">
                            <mask id="mask-2" fill="white">
                                <use xlink:href="#path-1"></use>
                            </mask>
                            <g id="Clip-2"></g>
                            <path d="M6.59546864,2.20517559 C7.0494271,1.84032833 7.16485621,1.18246902 6.84513404,0.680804042 C6.56232098,0.239395569 6.03289868,0.0567356393 5.55566633,0.195916362 C5.51405543,0.217419666 5.4707989,0.24081337 5.42448621,0.265861174 C4.66514606,0.686475243 -0.468040339,4.30162954 0.111456088,4.7097197 C0.686955987,5.11402907 4.19708221,3.52632911 6.59546864,2.20517559 M6.59546864,13.0761589 C4.19708221,11.755478 0.686955987,10.1675417 0.111456088,10.5720874 C-0.468040339,10.9797049 4.66514606,14.5955681 5.42448621,15.0154733 C5.4707989,15.0407574 5.51405543,15.0639148 5.55566633,15.086127 C6.03289868,15.2257803 6.56232098,15.0421752 6.84513404,14.601003 C7.16485621,14.0988654 7.0494271,13.4410061 6.59546864,13.0761589 M8.70845602,6.45219619 C8.66120297,6.44983319 8.61159901,6.44936059 8.55987925,6.44936059 C7.69333814,6.45101469 1.46228224,7.1379389 1.77495171,7.77618531 C2.08644574,8.40781531 5.92334682,8.71429646 8.65791171,8.71547796 C9.23106071,8.61552305 9.64622935,8.09495406 9.60673425,7.49971426 C9.56982515,6.97725488 9.19274107,6.55971271 8.70845602,6.45219619" id="Fill-1" fill="#FFFFFF" mask="url(#mask-2)"></path>
                        </g>
                        <g id="Group-6" transform="translate(0.000000, 0.081524)" fill="#FFFFFF">
                            <path d="M5.14256649,14.2472382 C4.42883377,16.2728022 3.76823135,17.2213105 2.25049142,17.2213105 C2.10379536,17.2213105 1.59318026,17.1910641 1.56026768,17.1879922 C1.07057557,17.1627081 0.613325853,17.4828947 0.481440459,17.977707 C0.33004261,18.5398647 0.6584631,19.1190361 1.21468563,19.2792476 C1.61692433,19.3503739 2.02997716,19.3766032 2.40047873,19.3766032 C5.19804769,19.3766032 6.12289107,17.7577116 7.04655901,15.3942386 L12.5044045,1.70892188 C12.7011746,1.08887058 12.3584137,0.42604897 11.7452994,0.228738438 C11.1427642,0.0361539059 10.5047304,0.356340459 10.2889179,0.944727555 L6.45389755,11.1328037 L6.39371455,11.1328037 L2.3595731,0.868166343 C2.08663381,0.288049747 1.41145582,0.00496230082 0.802338075,0.234409639 C0.177469311,0.470000777 -0.143428304,1.15716129 0.0618051159,1.78902759 L5.14256649,14.2472382 Z" id="Fill-4"></path>
                        </g>
                    </g>
                </g>
            </g>
        </g>
    </g>
</svg>