<svg xmlns="http://www.w3.org/2000/svg" width="400" height="1000" viewBox="0 0 400 1000"><path fill="none" stroke="#FFF" stroke-linecap="round" d="M72.363 255.371v63.286"/><path fill="#FFF" d="M17.376 302.564l-10.1-11.861h-4.28v18.566h4.168v-11.835l10.073 11.835h4.307v-18.566h-4.168v11.861m40.019-11.861l-2.765 11.888-2.904-11.888h-3.993l-2.95 11.754-2.683-11.754h-4.362l4.827 18.563h4.294l2.835-11.74 2.88 11.74h4.219l4.904-18.563h-4.302zM2.553 314.96v-.012c0-1.611 1.23-2.975 2.963-2.975 1.002 0 1.617.279 2.209.779l-.641.767c-.443-.38-.879-.618-1.609-.618-1.058 0-1.863.927-1.863 2.031v.017c0 1.18.779 2.051 1.953 2.051a2.34 2.34 0 0 0 1.389-.44v-1.072h-1.47v-.881H7.93v2.415a3.67 3.67 0 0 1-2.397.896c-1.797 0-2.98-1.284-2.98-2.958m5.987 0v-.012c0-1.621 1.248-2.975 3.012-2.975 1.766 0 2.997 1.337 2.997 2.958v.017c0 1.611-1.247 2.97-3.013 2.97-1.764 0-2.996-1.337-2.996-2.958m4.951 0v-.012c0-1.12-.815-2.048-1.955-2.048s-1.936.911-1.936 2.031v.017c0 1.115.812 2.043 1.953 2.043s1.938-.914 1.938-2.031m.985-2.886h1.115l1.733 4.416 1.724-4.416h1.092l-2.389 5.788h-.886l-2.389-5.788m6.345 0h4.26v.901H21.83v1.495h2.882v.905H21.83v1.54h3.293v.903h-4.302v-5.744m5.282 0h2.56c.724 0 1.289.212 1.658.575.306.309.476.734.476 1.235v.019c0 .943-.567 1.511-1.372 1.742l1.554 2.172h-1.191l-1.413-2.002H27.11v2.002h-1.008v-5.743m2.488 2.848c.722 0 1.184-.38 1.184-.962v-.018c0-.615-.445-.949-1.192-.949h-1.47v1.929h1.478zm3.099-2.848h.932l3.079 3.972v-3.972h.996v5.744h-.848l-3.168-4.09v4.09h-.991v-5.744m6.031 0h1.076l1.748 2.717 1.747-2.717h1.077v5.744H42.36v-4.121l-1.816 2.709h-.034l-1.794-2.691v4.103h-.996v-5.744m6.61 0h4.261v.901H45.34v1.495h2.881v.905H45.34v1.54h3.293v.903H44.33v-5.744m5.297 0h.936l3.077 3.972v-3.972h.994v5.744h-.844l-3.168-4.09v4.09h-.995v-5.744m7.631.935h-1.826v-.935h4.663v.935h-1.82v4.809h-1.017v-4.809m-34.566-6.326l2.45-2.937c1.698 1.401 3.477 2.291 5.632 2.291 1.698 0 2.722-.672 2.722-1.778v-.056c0-1.051-.647-1.586-3.799-2.396-3.8-.969-6.252-2.022-6.252-5.765v-.055c0-3.421 2.748-5.683 6.603-5.683 2.745 0 5.092.861 7.004 2.397l-2.154 3.125c-1.673-1.159-3.316-1.861-4.906-1.861s-2.424.728-2.424 1.645v.054c0 1.24.808 1.643 4.069 2.478 3.827.999 5.981 2.371 5.981 5.659v.054c0 3.745-2.855 5.846-6.924 5.846-2.857-.001-5.74-.998-8.002-3.018m-9.751-51.772c-.395.013-.629.246-.714.708 0 0-.095.693-.202 1.867a53.699 53.699 0 0 0-.216 4.808c0 4.567.588 11.054 3.398 16.031 2.154 3.793 5.2 5.93 8.595 6.041a10.866 10.866 0 0 1-3.737-5.369c-.791-2.505-1.191-5.472-1.191-8.812 0-4.613.762-8.567.997-9.669l.011-.054c.138-.645.504-1.155.994-1.416-3.465-2.251-6.445-3.572-7.02-3.821a7.49 7.49 0 0 0-.533-.229l-.006-.001-.005-.002a.962.962 0 0 0-.371-.082m29.149 5.334c-.089 0-.185.04-.292.125-.002.002-.108.083-.303.254-.198.161-.479.404-.869.755a38.216 38.216 0 0 0-2.81 2.83c-1.953 2.203-4.542 5.671-5.773 9.687-.71 2.345-1.064 4.374-1.051 6.033-.013 1.241.182 2.292.577 3.122a3.485 3.485 0 0 0 1.756 1.765c.34.151.772.23 1.28.23h.025c2.369 0 6.321-2.002 7.686-6.45.732-2.397 1.105-5.23 1.105-8.411 0-3.951-.566-7.397-.81-8.694a52.679 52.679 0 0 0-.151-.738c-.056-.227-.169-.508-.37-.508"/><path fill="#FFF" d="M21.362 260.245c-.207 0-.332.278-.401.514l-.147.734a37.7 37.7 0 0 0-.337 2.038 48.17 48.17 0 0 0-.488 6.653c0 3.235.376 6.058 1.118 8.394 1.391 4.459 5.443 6.466 7.876 6.466h.024c.514 0 .962-.084 1.338-.246.199-.081.391-.188.606-.333a5.105 5.105 0 0 1-.483-.827c-.473-.997-.712-2.208-.726-3.709.014-1.85.397-4.014 1.136-6.434.066-.223.141-.448.217-.669l.09-.26c-2.584-6.5-8.523-11.4-9.193-11.939a8.364 8.364 0 0 0-.322-.256c-.118-.083-.224-.126-.308-.126m10.404-10.4c-.144 0-.292.114-.44.341a7.88 7.88 0 0 0-.321.513c-.298.501-.58.991-.867 1.495a59.903 59.903 0 0 0-2.613 5.316 55.901 55.901 0 0 0-1.858 4.875c1.923 1.946 4.504 4.981 6.219 8.665 1.326-2.886 3.342-5.762 5.994-8.553-1.81-5.562-4.352-10.097-5.366-11.797l-.325-.52c-.205-.312-.375-.335-.423-.335m18.918 5.066a.977.977 0 0 0-.358.081l-.006.002-.002.001c-.004 0-.189.068-.53.226-.332.138-.769.346-1.325.609l-.195.092a50.43 50.43 0 0 0-4.949 2.778c-.18.104-.359.22-.537.337.488.248.861.767 1 1.414.002.017.008.036.013.065.23 1.101.982 5.057.982 9.668 0 3.321-.392 6.285-1.162 8.812-.827 2.655-2.364 4.349-3.658 5.364 3.348-.157 6.345-2.288 8.476-6.039 2.807-4.975 3.397-11.461 3.397-16.029a54.22 54.22 0 0 0-.216-4.821 47.284 47.284 0 0 0-.202-1.861c-.086-.453-.324-.686-.728-.699m-9.167-3.381a.745.745 0 0 0-.133.01h-.011a.687.687 0 0 0-.319.133l-.004.002-.007.002c-.006.005-.739.46-1.874 1.286-.63.455-1.629 1.21-2.85 2.233a63.308 63.308 0 0 1 2.366 5.668c1.458-1.165 3.059-2.272 4.874-3.382a48.775 48.775 0 0 0-1.335-5.326l-.018-.058c-.14-.376-.372-.568-.689-.568m-19.395 0c-.316 0-.551.192-.691.569a49.12 49.12 0 0 0-1.354 5.384c1.818 1.111 3.416 2.218 4.875 3.382a57.25 57.25 0 0 1 2.366-5.67 50.305 50.305 0 0 0-2.849-2.232c-1.135-.826-1.869-1.281-1.876-1.286l-.005-.002-.006-.002a.676.676 0 0 0-.318-.133h-.008a.785.785 0 0 0-.134-.01M5.855 263.747c-.982 0-1.554.032-1.559.032-.388.023-.746.237-.982.588-.138.211-.21.471-.198.732.068.685.521 3.168 3.449 6.907a49.798 49.798 0 0 1 4.437-1.971c-.302-1.865-.48-3.899-.532-6.053a49.611 49.611 0 0 0-4.082-.231c-.188-.001-.366-.004-.533-.004m51.805 0a50.05 50.05 0 0 0-4.612.236 46.75 46.75 0 0 1-.531 6.053 49.733 49.733 0 0 1 4.437 1.971c2.935-3.748 3.384-6.235 3.451-6.913.022-.23-.104-.585-.199-.724-.237-.353-.595-.568-.982-.591-.006.001-.589-.032-1.564-.032"/><path fill="#FFF" d="M52.393 271.061c-.6 3.058-1.54 5.731-2.792 7.945-1.305 2.323-2.935 4.082-4.858 5.244 13.941-.764 17.876-5.305 18.283-5.832l.004-.001c.138-.213.208-.447.208-.701 0-.405-.188-.798-.494-1.028 0 0-.162-.109-.455-.313l-.005-.002-.004-.001c-.222-.169-.54-.382-.943-.649-.108-.072-.219-.147-.338-.223a48.814 48.814 0 0 0-4.57-2.629 42.07 42.07 0 0 0-4.036-1.81m-41.146 0c-4.703 1.803-8.486 4.308-9.909 5.314-.283.206-.446.315-.453.319-.296.224-.485.617-.485 1.022a1.258 1.258 0 0 0 .231.734c.03.031.058.066.091.107.017.023.035.044.055.069.095.107.319.339.669.634.587.51 1.641 1.275 3.339 2.05 3.509 1.609 8.375 2.626 14.11 2.953-1.899-1.16-3.569-2.959-4.86-5.257-1.25-2.216-2.188-4.888-2.788-7.945m39.398 14.22c-.714 0-1.771.149-3.37.37-.235.032-.485.066-.745.103-.699.102-1.553.146-2.684.146-.691 0-1.41-.014-2.171-.034l-.066-.001c-.724-.016-1.543-.037-2.365-.037-1.707 0-3.917.072-5.862.622-.098.029-.169.137-.158.205.011.065.129.087.23.087.029 0 .059-.005.091-.005a24.014 24.014 0 0 1 2.223-.104c2.541 0 4.274.441 5.951.87 1.578.405 3.068.786 5.139.786 2.209 0 3.959-.478 4.679-1.274.242-.268.351-.562.322-.87-.059-.597-.249-.864-1.214-.864m-38.017 0c-.961 0-1.15.267-1.207.867-.031.306.075.599.313.86.706.79 2.502 1.281 4.686 1.281 2.073 0 3.563-.381 5.141-.786 1.677-.429 3.411-.87 5.952-.87.702 0 1.45.032 2.22.104.034 0 .063.005.092.005.101 0 .223-.023.23-.087.011-.068-.06-.176-.162-.205-1.942-.55-4.15-.622-5.858-.622h-.001c-.821 0-1.641.022-2.364.037l-.069.001c-.761.019-1.477.034-2.17.034-1.13 0-1.983-.044-2.684-.146-.266-.037-.521-.071-.763-.108-1.591-.219-2.643-.365-3.356-.365m76.604-3.953h-5.199v-2.67h13.302v2.67h-5.199v13.723h-2.904v-13.723zm8.661 1.359h2.834v2.786c.773-1.85 2.201-3.115 4.379-3.021v2.998h-.164c-2.483 0-4.216 1.616-4.216 4.895v4.707h-2.834v-12.365zm16.179 12.365v-1.522c-.842 1.007-2.131 1.78-4.004 1.78-2.342 0-4.403-1.335-4.403-3.817v-.047c0-2.74 2.131-4.052 5.011-4.052 1.499 0 2.459.211 3.419.515v-.234c0-1.709-1.076-2.646-3.044-2.646-1.382 0-2.411.304-3.536.773l-.773-2.272c1.358-.609 2.693-1.031 4.707-1.031 3.654 0 5.434 1.921 5.434 5.223v7.33h-2.811zm.07-5.175c-.725-.282-1.733-.493-2.834-.493-1.78 0-2.834.727-2.834 1.921v.047c0 1.17 1.054 1.826 2.389 1.826 1.873 0 3.278-1.054 3.278-2.6v-.701zm5.033-.984v-.047c0-4.099 2.787-6.417 5.738-6.417 2.037 0 3.325 1.031 4.215 2.178v-6.651h2.834v17.096h-2.834v-2.06c-.913 1.287-2.201 2.318-4.215 2.318-2.904-.001-5.738-2.319-5.738-6.417zm9.999 0v-.047c0-2.389-1.686-3.958-3.583-3.958-1.943 0-3.559 1.499-3.559 3.958v.047c0 2.388 1.639 3.958 3.559 3.958 1.897 0 3.583-1.594 3.583-3.958zm5.195.023v-.047c0-3.536 2.505-6.44 6.042-6.44 3.934 0 5.925 3.091 5.925 6.651 0 .257-.023.515-.047.797h-9.087c.304 2.014 1.733 3.138 3.559 3.138 1.382 0 2.366-.516 3.349-1.475l1.663 1.475c-1.17 1.405-2.787 2.318-5.058 2.318-3.582 0-6.346-2.6-6.346-6.417zm9.157-.914c-.187-1.826-1.265-3.255-3.138-3.255-1.733 0-2.951 1.335-3.208 3.255h6.346zm21.655 4.45c-1.546 1.803-3.349 2.834-5.551 2.834-2.881 0-5.035-1.873-5.035-4.543v-.047c0-2.201 1.569-3.817 4.239-4.801-1.241-1.382-1.828-2.389-1.828-3.747v-.047c0-2.108 1.711-3.724 4.099-3.724 2.132 0 3.771 1.592 3.771 3.559v.047c0 2.037-1.522 3.372-4.028 4.238l4.309 4.426c.796-1.124 1.499-2.483 2.131-3.982l1.101.446c-.75 1.686-1.546 3.161-2.436 4.356l3.021 3.115-.959.796-2.834-2.926zm-.774-.796l-4.847-5.012c-2.6.89-3.746 2.413-3.746 4.005v.047c0 1.99 1.592 3.536 3.84 3.536 1.826 0 3.395-.983 4.753-2.576zm-.748-9.625v-.047c0-1.452-1.124-2.576-2.6-2.576-1.663 0-2.834 1.171-2.834 2.647v.047c0 1.03.445 1.826 1.897 3.372 2.342-.75 3.537-1.897 3.537-3.443zm-78.292 19.104h2.881v16.393h-2.881v-16.393zm6.485 4.028h2.834v1.92c.796-1.171 1.944-2.177 3.864-2.177 2.787 0 4.403 1.873 4.403 4.754v7.869h-2.834v-7.026c0-1.92-.96-3.021-2.646-3.021-1.639 0-2.787 1.148-2.787 3.068v6.979h-2.834v-12.366zm12.432 0h3.044l3.325 9.087 3.349-9.087h2.974l-5.058 12.459h-2.553l-5.081-12.459zm13.275 6.23v-.047c0-3.536 2.505-6.44 6.042-6.44 3.934 0 5.925 3.091 5.925 6.651 0 .257-.023.515-.047.797h-9.087c.304 2.014 1.733 3.138 3.559 3.138 1.382 0 2.366-.516 3.349-1.475l1.663 1.475c-1.17 1.405-2.787 2.318-5.058 2.318-3.582-.001-6.346-2.601-6.346-6.417zm9.157-.914c-.187-1.826-1.265-3.255-3.138-3.255-1.733 0-2.951 1.335-3.208 3.255h6.346zm4.211 5.434l1.264-1.92c1.335 1.006 2.787 1.522 4.052 1.522 1.218 0 1.92-.516 1.92-1.335v-.047c0-.961-1.312-1.288-2.762-1.733-1.828-.516-3.865-1.265-3.865-3.631v-.047c0-2.341 1.943-3.77 4.403-3.77 1.546 0 3.232.538 4.543 1.405l-1.124 2.014c-1.195-.727-2.459-1.171-3.489-1.171-1.101 0-1.733.515-1.733 1.241v.047c0 .89 1.335 1.265 2.787 1.733 1.803.563 3.84 1.382 3.84 3.607v.047c0 2.599-2.014 3.887-4.59 3.887-1.757 0-3.701-.631-5.246-1.849zm12.62-1.804v-6.511h-1.569v-2.435h1.569v-3.397h2.833v3.397h3.326v2.435h-3.326v6.066c0 1.101.563 1.546 1.522 1.546.633 0 1.195-.14 1.757-.421v2.319c-.703.398-1.499.632-2.553.632-2.084-.001-3.559-.914-3.559-3.631zm8.567-8.946h2.834v1.873c.797-1.101 1.873-2.131 3.771-2.131 1.78 0 3.021.866 3.676 2.177 1.007-1.312 2.319-2.177 4.192-2.177 2.693 0 4.333 1.709 4.333 4.73v7.892h-2.834v-7.026c0-1.967-.914-3.021-2.506-3.021-1.546 0-2.647 1.078-2.647 3.068v6.979H160.1v-7.05c0-1.92-.937-2.998-2.506-2.998-1.569 0-2.647 1.171-2.647 3.091v6.956h-2.834v-12.363zm21.118 6.23v-.047c0-3.536 2.505-6.44 6.042-6.44 3.934 0 5.925 3.091 5.925 6.651 0 .257-.023.515-.047.797h-9.087c.304 2.014 1.733 3.138 3.559 3.138 1.382 0 2.366-.516 3.349-1.475l1.663 1.475c-1.17 1.405-2.787 2.318-5.058 2.318-3.582-.001-6.346-2.601-6.346-6.417zm9.157-.914c-.187-1.826-1.265-3.255-3.138-3.255-1.733 0-2.951 1.335-3.208 3.255h6.346zm5.218-5.316h2.834v1.92c.797-1.171 1.943-2.177 3.865-2.177 2.787 0 4.403 1.873 4.403 4.754v7.869h-2.834v-7.026c0-1.92-.961-3.021-2.647-3.021-1.639 0-2.787 1.148-2.787 3.068v6.979h-2.834v-12.366zm14.634 8.946v-6.511h-1.569v-2.435h1.569v-3.397h2.833v3.397h3.326v2.435h-3.326v6.066c0 1.101.563 1.546 1.522 1.546.633 0 1.195-.14 1.757-.421v2.319c-.703.398-1.499.632-2.553.632-2.084-.001-3.559-.914-3.559-3.631z"/><g fill="#FFF"><path d="M.028 354.559h3.62l5.76 7.4v-7.4h3.84v13.999h-3.4l-5.98-7.679v7.679H.028v-13.999zm13.84 11.919l2.16-2.579c1.38 1.1 2.92 1.68 4.54 1.68 1.04 0 1.6-.36 1.6-.96v-.04c0-.58-.46-.899-2.36-1.34-2.98-.68-5.28-1.52-5.28-4.4v-.04c0-2.6 2.06-4.48 5.42-4.48 2.38 0 4.241.64 5.76 1.86l-1.94 2.74c-1.28-.901-2.68-1.381-3.92-1.381-.941 0-1.4.4-1.4.899v.04c0 .64.48.92 2.42 1.36 3.22.701 5.22 1.74 5.22 4.36v.04c0 2.859-2.26 4.56-5.66 4.56-2.48.001-4.841-.778-6.56-2.319zm11.859-11.919h4.1l2.44 8.1 2.7-8.141h3.34l2.7 8.141 2.44-8.1h4.02l-4.68 14.099h-3.38l-2.82-8.059-2.8 8.059h-3.38l-4.68-14.099zm-11.534 20.294l-3.565-4.581H8.013v9.532h2.839v-4.765l3.711 4.765h2.469v-9.532h-2.839zm8.72-4.767c-2.88 0-5.136 2.175-5.136 4.951v.026c0 2.762 2.244 4.925 5.109 4.925 2.879 0 5.135-2.174 5.135-4.951v-.026c.001-2.761-2.243-4.925-5.108-4.925zm-2.205 4.926c0-1.316.936-2.311 2.179-2.311 1.264 0 2.218 1.005 2.218 2.336v.026c0 1.317-.942 2.31-2.191 2.31-1.237 0-2.205-1.026-2.205-2.336v-.025zm18.642-4.74l-1.501 4.98-1.661-5.007h-2.422l-1.662 5.007-1.499-4.98h-3.03l3.186 9.598h2.448l1.736-4.997 1.748 4.997h2.447l3.186-9.598z"/><path d="M50.622 352.155L35.558 394.88l-5.565-4.489h-11.64L3.931 379.998l-.027-9.772-3.904.013.033 11.763 17.061 12.293h11.521l8.788 7.086 16.967-48.116-.85-3.265zm14.455 12.102h-3.51v-2.841h10.262v2.841h-3.51v8.859h-3.243v-8.859zm7.955-3.343h3.175v4.396c.585-.753 1.421-1.438 2.707-1.438 1.922 0 3.076 1.27 3.076 3.326v5.917h-3.176v-4.897c0-.986-.518-1.521-1.27-1.521-.769 0-1.337.535-1.337 1.521v4.897h-3.175v-12.201zm10.227 7.722v-.034c0-2.641 1.889-4.729 4.563-4.729 3.125 0 4.563 2.289 4.563 4.948 0 .2 0 .434-.017.651h-6.05c.251.986.97 1.487 1.956 1.487.752 0 1.354-.284 2.006-.92l1.755 1.454c-.869 1.104-2.123 1.838-3.928 1.838-2.841 0-4.848-1.888-4.848-4.695zm6.151-.787c-.117-1.002-.702-1.638-1.571-1.638-.836 0-1.404.652-1.571 1.638h3.142zm8.958-3.777h3.175v1.271c.585-.752 1.421-1.471 2.707-1.471 1.922 0 3.075 1.27 3.075 3.326v5.917h-3.175v-4.897c0-.986-.518-1.521-1.27-1.521-.769 0-1.337.535-1.337 1.521v4.897h-3.175v-9.043zm10.227 4.564v-.034c0-2.641 1.888-4.729 4.563-4.729 3.125 0 4.563 2.289 4.563 4.948 0 .2 0 .434-.017.651h-6.051c.251.986.97 1.487 1.956 1.487.752 0 1.353-.284 2.005-.92l1.754 1.454c-.869 1.104-2.122 1.838-3.927 1.838-2.839 0-4.846-1.888-4.846-4.695zm6.152-.787c-.117-1.002-.701-1.638-1.571-1.638-.836 0-1.404.652-1.571 1.638h3.142zm3.257-3.777h3.11l1.187 4.547 1.388-4.58h2.623l1.404 4.613 1.22-4.58h3.058l-2.791 9.109h-2.741l-1.471-4.696-1.504 4.696h-2.725l-2.758-9.109zm18.987 7.906l1.185-1.922c1.036.685 2.173 1.037 3.109 1.037.551 0 .801-.167.801-.485v-.033c0-.351-.501-.502-1.453-.768-1.788-.468-3.21-1.071-3.21-2.892v-.033c0-1.922 1.539-2.993 3.628-2.993 1.321 0 2.691.386 3.728 1.054l-1.088 2.006c-.935-.517-1.955-.835-2.673-.835-.485 0-.736.183-.736.434v.034c0 .35.518.517 1.47.801 1.788.502 3.21 1.12 3.21 2.875v.033c0 1.989-1.488 3.025-3.695 3.025-1.519-.001-3.023-.435-4.276-1.338zm9.676-1.671v-3.677h-1.07v-2.558h1.07v-2.288h3.175v2.288h2.106v2.558h-2.106v3.059c0 .635.285.901.869.901.418 0 .819-.116 1.203-.3v2.491c-.569.318-1.321.519-2.206.519-1.904-.001-3.041-.838-3.041-2.993zm6.201.217v-.033c0-1.871 1.421-2.842 3.543-2.842.835 0 1.654.167 2.173.351v-.151c0-.936-.584-1.47-1.806-1.47-.952 0-1.687.183-2.489.501l-.652-2.24c1.019-.417 2.106-.701 3.66-.701 1.62 0 2.724.383 3.443 1.103.685.669.969 1.604.969 2.874v5.199h-3.142v-.936c-.618.685-1.471 1.137-2.658 1.137-1.721-.001-3.041-.987-3.041-2.792zm5.749-.685v-.419a3.36 3.36 0 0 0-1.237-.234c-.919 0-1.455.452-1.455 1.12v.033c0 .618.469.987 1.12.987.92.001 1.572-.584 1.572-1.487zm5.197.468v-3.677h-1.07v-2.558h1.07v-2.288h3.176v2.288h2.106v2.558h-2.106v3.059c0 .635.284.901.869.901.418 0 .819-.116 1.203-.3v2.491c-.568.318-1.32.519-2.205.519-1.906-.001-3.043-.838-3.043-2.993zm6.05-1.671v-.034c0-2.641 1.889-4.729 4.563-4.729 3.125 0 4.562 2.289 4.562 4.948 0 .2 0 .434-.017.651h-6.051c.251.986.97 1.487 1.956 1.487.752 0 1.353-.284 2.005-.92l1.756 1.454c-.869 1.104-2.122 1.838-3.928 1.838-2.84 0-4.846-1.888-4.846-4.695zm6.151-.787c-.117-1.002-.703-1.638-1.572-1.638-.835 0-1.403.652-1.571 1.638h3.143zM61.667 384.865v-.033c0-2.574 2.106-4.73 5.014-4.73 2.892 0 4.981 2.122 4.981 4.697v.033c0 2.574-2.106 4.729-5.014 4.729-2.892-.001-4.981-2.122-4.981-4.696zm6.903 0v-.033c0-1.104-.803-2.039-1.922-2.039-1.153 0-1.888.919-1.888 2.005v.033c0 1.103.802 2.039 1.922 2.039 1.152 0 1.888-.919 1.888-2.005zm4.929-2.023h-1.053v-2.489h1.053v-.2c0-1.037.234-1.806.769-2.341.552-.552 1.287-.786 2.357-.786.97 0 1.571.101 2.072.251v2.24a3.79 3.79 0 0 0-1.187-.183c-.585 0-.902.266-.902.852v.218h2.072v2.439h-2.022v6.503h-3.159v-6.504zm13.989 5.399v1.104h-3.175v-12.202h3.175v4.363c.618-.752 1.387-1.404 2.741-1.404 2.156 0 4.012 1.789 4.012 4.68v.033c0 2.942-1.855 4.729-3.995 4.729-1.371 0-2.173-.618-2.758-1.303zm3.627-3.409v-.033c0-1.187-.819-2.039-1.855-2.039-1.02 0-1.839.852-1.839 2.039v.033c0 1.204.819 2.055 1.839 2.055 1.036 0 1.855-.835 1.855-2.055zm4.428 1.386v-5.916h3.176v4.897c0 .987.517 1.521 1.286 1.521.752 0 1.321-.535 1.321-1.521v-4.897h3.176v9.043h-3.176v-1.238c-.585.753-1.421 1.437-2.708 1.437-1.921 0-3.075-1.269-3.075-3.326zm9.978 1.989l1.186-1.922c1.036.685 2.173 1.037 3.109 1.037.552 0 .803-.167.803-.485v-.033c0-.352-.501-.503-1.454-.768-1.788-.469-3.209-1.07-3.209-2.893v-.032c0-1.923 1.537-2.993 3.627-2.993 1.32 0 2.69.385 3.727 1.053l-1.086 2.005c-.936-.517-1.956-.835-2.675-.835-.485 0-.736.184-.736.436v.033c0 .35.518.518 1.471.802 1.788.502 3.209 1.12 3.209 2.875v.033c0 1.989-1.487 3.025-3.694 3.025-1.521-.001-3.025-.435-4.278-1.338zm9.276-11.065h3.309v2.341h-3.309v-2.341zm.065 3.16h3.177v9.043h-3.177v-9.043zm4.948 0h3.175v1.27c.584-.753 1.421-1.471 2.708-1.471 1.922 0 3.075 1.271 3.075 3.326v5.918h-3.175v-4.898c0-.986-.518-1.52-1.27-1.52-.768 0-1.337.534-1.337 1.52v4.898h-3.175v-9.043zm10.227 4.563v-.033c0-2.64 1.89-4.73 4.564-4.73 3.125 0 4.563 2.29 4.563 4.948 0 .2 0 .434-.018.651h-6.049c.251.986.969 1.488 1.955 1.488.752 0 1.354-.284 2.005-.919l1.756 1.454c-.869 1.102-2.123 1.837-3.928 1.837-2.842-.001-4.848-1.888-4.848-4.696zm6.151-.786c-.117-1.003-.701-1.637-1.57-1.637-.837 0-1.404.652-1.572 1.637h3.142zm3.643 4.128l1.187-1.922c1.035.685 2.173 1.037 3.108 1.037.551 0 .802-.167.802-.485v-.033c0-.352-.502-.503-1.454-.768-1.788-.469-3.209-1.07-3.209-2.893v-.032c0-1.923 1.538-2.993 3.627-2.993 1.321 0 2.691.385 3.727 1.053l-1.086 2.005c-.936-.517-1.956-.835-2.674-.835-.484 0-.736.184-.736.436v.033c0 .35.519.518 1.473.802 1.788.502 3.208 1.12 3.208 2.875v.033c0 1.989-1.487 3.025-3.693 3.025-1.522-.001-3.027-.435-4.28-1.338zm8.44 0l1.187-1.922c1.036.685 2.173 1.037 3.108 1.037.552 0 .803-.167.803-.485v-.033c0-.352-.501-.503-1.454-.768-1.788-.469-3.209-1.07-3.209-2.893v-.032c0-1.923 1.538-2.993 3.627-2.993 1.32 0 2.691.385 3.727 1.053l-1.086 2.005c-.936-.517-1.955-.835-2.673-.835-.487 0-.736.184-.736.436v.033c0 .35.517.518 1.47.802 1.788.502 3.209 1.12 3.209 2.875v.033c0 1.989-1.488 3.025-3.694 3.025-1.52-.001-3.026-.435-4.279-1.338z"/></g><g fill="#FFF"><path d="M305.304 396.705c.582-.267 1.26-.315 1.842-.533.485-.146.727-.678.534-1.163a1.372 1.372 0 0 0-.703-.678c-1.938.023-4.217.169-6.156-.122-2.061-.314-4.193-.46-5.817-1.817-2.181-3.223.219-6.98-.46-10.688-.194-3.612-2.182-6.472-3.612-9.55a18.715 18.715 0 0 0-1.575-6.278c-.388-2.302.8-4.677-.121-6.931-1.067-1.817-.145-4.508-1.745-6.035l-.631 1.915-.169.169c-.461-.605-.291-1.502-.825-2.035-.484 1.309-.994 2.763-.703 4.242-.607.436-1.527.848-1.672 1.696-.751.461-1.357 1.237-2.157 1.576-.534.484.218.896.218 1.381.266.387.631.92 1.163.824.508-.558 1.357-.339 1.987-.63l.121.096c.121 1.575-1.381 2.933-2.69 3.612-.097.412.654.799.073 1.042-1.6-.364-2.958-1.308-4.315-2.255l-1.963-.072-1.817 1.527-15.997.048c-.727-1.163-1.963-1.599-3.248-1.673-.8.461-1.721.704-2.618.921-.46.122-.872.558-1.284.582-.122-.969-.558-1.793-1.115-2.569-.121-1.308-.145-2.811-.63-4.072.412-.799.436-1.89.412-2.714-1.164.606-.97-.776-1.528-1.163-.266.145-.363.63-.752.63-.145-.63-.848-.655-1.333-.872-.242 1.139-1.211.023-1.793.291-.145 1.115-1.333.314-1.987.46l-.049.703c-.219.508-.63.605-1.115.703-.315.727-.049 1.672.291 2.374-.485.921-.291 2.037-.243 3.078-.024.703-.678.146-.969.364.025.557 0 1.139.34 1.575.193.533-.655.459-.752.872.121.605.582 1.187 1.211 1.332-.072 1.067-.242 2.11-.799 2.958.291.048.703.072.969-.122.267.776-.46 1.381-.799 2.037-.097.363.363.363.629.363 1.407.146-.654.631-.29 1.285-1.018 1.551-2.303 3.005-2.738 4.824-.122.63-.17 1.309-.388 1.915-1.309.169-2.084 1.526-2.811 2.497-.17.048-.388.218-.509-.049-.412-1.478.412-2.909.873-4.242 1.066-3.054.654-6.859.339-10.131.146-.532-.072-1.236.412-1.624.267-.097.63.121.752.412.072.315.145.751-.049 1.042-.266-.072-.242-.363-.412-.532-.194.17-.194.46-.34.655-.194.557-.194 1.333.219 1.793-.291 1.261 0 2.594.654 3.539l.219-.169c.363.678 0 1.672.533 2.205 1.89-1.624.63-4.581 1.745-6.569.363-1.673-.315-3.102-1.454-4.193-.678-.485-1.866-.534-2.618-.17-1.915 1.188-2.036 3.636-1.817 5.768-.437-.242-.824-.582-1.333-.702.363.897.291 1.939.291 2.956-.219.679 1.066 1.721-.34 1.745-.266.194-.678.534-.533.824a1.58 1.58 0 0 1 1.284.824c-2.036.631.897 1.043.17 2.206-.655 2.06-2.206 4.557-.703 6.738-.291.654-1.163.799-1.381 1.526-.17.534.049 1.043.219 1.503.339.46.848 1.115 1.406 1.042-.097-1.187 1.284-1.478 1.745-2.448-.219-1.333 1.333-1.091 1.987-1.745l.049.534c.314.048.533-.146.752.169 0 .413-.509.679-.412 1.043l1.066.073-.121.46.509.17c-.194.8-1.042.727-1.503 1.285-.388.485-.461 1.091-.412 1.745-.897 1.261-.145 2.715-.291 4.12.169.508.582.049.824.194-.097.218-.024.484-.291.63-4.678.146-9.017 1.139-12.579 4.024 0 .218 0 .484.072.679 1.454 1.575 2.012 3.732 3.83 4.944 4.702 2.448 9.356-.436 13.04-3.078 1.381-.146 2.642.339 3.999.412.776.266-.17.994.122 1.624.533 1.794 2.497 2.618 3.781 3.853 2.351.096 4.291-1.309 5.891-2.981-1.261-.242-2.545-.364-3.781-.63-.485.291-.897.824-1.454.703.193-.484.654-.872.97-1.284 3.296.363 6.326 1.358 9.67 1.624 7.417.97 14.955-.34 21.983-1.575l1.115 1.115c-.848.291-1.527-.484-2.327-.654-.8.267-1.648.436-2.521.533-.363.146-1.018.024-1.09.461 1.114.775 2.108 1.769 3.368 2.205 1.261.559 2.787 1.237 4.072.292.824-1.286 2.327-2.303 3.029-3.66.364-.389-.218-.921.121-1.212 1.261-.096 2.4-.533 3.709-.533l1.697 1.163c2.666 1.43 5.454 3.272 8.847 2.278 1.018-.436 2.181-.533 3.005-1.454.485-2.133 2.157-3.805 2.739-5.889-.702-.533-1.478-.897-2.254-1.261v-.246zm-19.439-41.252c.17.364.364.678.461 1.067a.943.943 0 0 1-.461.291c-.218-.412-.096-.945 0-1.358zm-1.866 11.755l-.049-.048c-.46.703-.727 1.576-1.332 2.255h-.194c-.34-.921.896-1.333.484-2.134.097-.314.679-.508.46-.871-.146-.121-.218-.243-.169-.413 1.332-.8 2.593-2.157 2.545-3.781.872-.558 2.351-.897 2.327-2.206.049-.195-.073-.315-.121-.485-.825 1.309-2.255 2.157-3.83 1.866-.533.17-1.042.364-1.575.533-.096-.364-.485-.606-.582-.994.727-.945 2.181-.97 2.4-2.279.92-.848 2.52-.897 2.835-2.375l.291-1.285c.217.874.533 1.867.412 2.861-.097.291-.315.703-.049.994l.582-.291c.727 2.254.073 4.726-.072 7.029.752 2.255 1.648 4.436 1.697 6.981 1.454 3.441 3.781 6.519 3.611 10.64-.049 3.006-.994 6.084.096 8.895 1.601 2.593 4.509 2.448 7.103 2.86 1.842.194 3.853.122 5.695.049.097.073.219.121.242.242.097.219-.169.34-.29.413-5.478.484-12.627 1.478-15.948-3.903-1.236-1.357-.388-4.218-2.957-4.363-.485-.679.242-1.429-.17-2.157-.412 0-.436.46-.654.703-.945 3.224.461 6.471.412 9.84.096.169.315.314.242.581-.97.97-2.545.534-3.853.751-1.915.17-3.781.509-5.575 1.042-.218-.34-.679-.776-1.163-.533-.048.072-.169.145-.121.242.146.17.534.194.412.534-.266.314-.654.314-.994.46-.048-.314.291-.63.413-.945.096-.291-.389-.606-.631-.751-.63.024-1.114.364-1.648.654l-.097-.121c.654-.799 1.891-.461 2.836-.703 2.787-.072 5.987.098 8.386-1.284.703-.727.34-1.89.509-2.836-.242-1.648-.073-3.442-1.043-4.774-1.866-3.005-3.587-7.296-1.454-10.713.776-.655 1.842-1.163 2.86-.704 1.794.727 2.691 2.642 3.32 4.266.146.242.412.532.752.509l.121-.122c-.509-2.108-1.672-4.193-3.732-5.405-1.043-.315-2.352-.436-3.248.242-.242-.969-.509-1.915-.533-2.981 1.261-.533 2.884-.654 3.612-1.963-.169-1.309 2.279-1.867.994-3.272-.557 1.067-1.842 1.915-1.939 3.2-1.212.92-2.763 1.066-4.168 1.526-1.261.097-2.473.558-3.152 1.745-.242.364-.023.8 0 1.213.243.145.533.412.413.75l-.534-.291v.534l-.582-.34-.048.387c-.485-.291-.873-.824-.704-1.381.315-.509.34-1.115.63-1.625 2.085-1.575 4.58-2.399 6.35-4.484.29-.578.654-1.377.169-1.984zm3.733 24.505c-.194-1.042-.363-2.157-.291-3.199 1.454.024 1.091 1.624 1.745 2.423.776 1.624 1.964 3.394 3.66 4.314-.194.219-.654.073-.994.121-1.454-1.041-2.763-2.399-4.12-3.659zm2.787 3.708c-.703.024-1.43.485-2.085.073-.63-.655-.484-1.721-.582-2.618l2.667 2.545zm-15.415 2.788h-.29c.242-.291.532-.437.872-.461.169.387-.388.315-.582.461zm-1.793-1.043c-1.309.194-2.642.461-3.612 1.333-1.066.703-2.4.727-3.732.776 3.757-2.545 7.877-4.46 11.586-7.223 1.356-1.163.799-3.102.92-4.775l-.048-9.598c.267-.34.849-.218 1.042-.751.606-1.091-1.381-2.157.243-2.859.63-.461 1.454-.485 2.205-.631l.121.242.461 3.078c-.218.219-.582.049-.824.219-2.036 1.284-2.182 3.78-1.866 6.059.436 2.06 1.188 3.95 2.036 5.816-2.618 1.043-3.927 4.072-6.205 5.817-.219.389-.582.776-.364 1.285.024.121.242.267 0 .34a2.73 2.73 0 0 0-1.963.872zm.508 1.115c-.048.267-.412.194-.63.291.122-.146.315-.291.509-.363.049.048.073.072.121.072zm-1.454 0c-.17.218-.339.46-.509.703h-.485c-.315-.679.582-.655.994-.703zm-1.672.702v.097c-.194.121-.436.049-.654.072.217-.071.436-.289.654-.169zm-18.566-5.646c-.267-.485-.873-.631-1.406-.461-1.6.654-2.788 2.229-4.242 3.248l-2.206-.291c-.145-.388-.484-.678-.532-1.163-.097-.072-.17-.218-.291-.242.848-.945 1.867-1.891 2.982-2.423.727.363.848 1.09 1.332 1.623.389-.242.461-.994.873-.994.388.17.194.679.34.994.557-.218.799-1.285 1.406-.945l.582-.872c1.333.848 2.375 2.375 3.611 3.441.34.921-.314 1.722-.824 2.448-1.212-.024-2.375-.509-3.538-.824.943-.946 2.203-2.037 1.913-3.539zm-3.078 3.321l-1.236-.243.073-.17c.994-.775 1.866-1.842 2.909-2.496l.339.048c.072 1.236-1.286 1.939-2.085 2.861zm-8.314-6.763c.34-.025.242.534.509.751.29.218.46.63.824.654.437-1.453 1.309-2.883 1.042-4.483.558-.848.848-1.793.873-2.86.412.073.872.146 1.115.534 0 .437-.558.484-.873.63-.267.945-1.018 2.036-.121 2.909.242.873.63 1.673.994 2.521l.461-.412c.145.339.193.703.17 1.091l-3.539 3.103c-.63-.17-1.139-.582-1.696-.873-.17-.557-.388-1.066-.461-1.648.146-.121.363.024.508-.097.146-.584-.436-1.336.194-1.82zm9.695 1.745c-.242.242-.242-.218-.46-.291.145-.484-.412-.775-.703-1.042-.073-.024-.096.073-.17.122.025.218.34.339.242.63l-.654.412c-.072-.484-.17-1.091-.678-1.405-.121.315.193.582.17.945-.315 0-.703-.072-.825.291 0 .339.412.267.582.291-.048.29.097.654-.121.872-.533-.194-.072-.97-.63-1.163.096-.509-.122-.896-.34-1.285-.17-.169-.315.049-.485.049-.121-.509-.145-1.139-.678-1.454l-.291.242c.048-1.066-1.358-1.817-.534-2.908.485-.122.849-.558 1.116-.994.145-.413-.049-.849-.291-1.164-.485-.435-1.091-.533-1.649-.8-.242-1.139 0-2.327 0-3.49l.122-.121c2.132.436 4.581 1.599 5.114 3.95.315.607 0 1.261-.34 1.745l-.339-.582c-.485.849-1.357 1.479-2.157 1.915.388 1.964 2.327 3.393 4.072 4.072.072.024.048.121.048.17-.194.049-.461-.097-.582.121.146.265.8.363.461.872zm-.969.824c-.242.024-.242-.242-.364-.364.049-.242.219-.558.534-.508-.073.29.144.678-.17.872zm5.986 2.666c-1.115-1.236-2.424-2.69-3.782-3.902.364-1.018-.872-1.333-1.332-1.915-1.212-.412-2.57-1.261-2.86-2.618l.872-.582.704.582c.461-1.187 1.406-2.181 1.284-3.611-1.067-.799-.921-2.278-2.157-3.006-.994-.945-2.351-.994-3.49-1.575.193-.63 1.018-.436 1.212-.994l.46.412c.291-.217.388-1.114.873-.532h.194c.242-.559.606-1.067 1.042-1.576.824.413 2.06.073 2.497 1.164-.484.799-.048 1.768-.533 2.569.122.096.049.339.242.339.194 0 .364.122.582.073l.243.63.678-.169.194 10.519c.703 2.085 2.932 2.981 4.581 4.023 2.714 1.478 5.453 2.811 8.144 4.314-3.709.267-7.078-.606-10.471-1.285.46-.873 1.066-1.769.823-2.86zm-4.241-15.924l.217-.654c.291-.049.364.29.242.46-.168.073-.265.267-.459.194zm1.042-.242l.34.048c.072.291-.145.485-.34.582-.267-.121 0-.412 0-.63zm1.794-.339c.024.29.024.606-.218.8h-.122c.024-.219-.097-.776.34-.8zm1.575.387l.532-.679.461.582.702-.194c-.217.631.025 1.261.679 1.407-.266.193-.8.484-.509.92.097.073.049.194.049.291-.267.073-.558-.314-.873-.097-.194.242-.387.509-.582.751-.218-.218-.485-.848-.921-.532-.17.169-.387.169-.582.242 0-.316.267-.582.17-.873-.242-.364-.872-.364-.824-.751l.703-.363.17-.921c.268.145.558.169.825.217zm-.751-1.211c-.025-.34.509-.34.752-.242.073.242-.122.508-.291.702-.219-.048-.631-.073-.461-.46zm3.83 1.915a.772.772 0 0 1 .46-.122c.146.364.146.946.704.872.072.17.072.436.29.485h.122c-.679.17-1.479-.218-1.867.582l-.048.218c-.097-.267-.291-.606-.242-.994.363-.194.897-.218 1.041-.679l-.46-.362zm3.853 1.696h.17c-.897.8-2.351.097-3.441.412-.049.097-.146.025-.219.049-.121-.049-.048-.17-.072-.243.485-.363 1.139.267 1.697-.096.218-.218.582-.218.872-.122.266.218.702.218.993 0zm-.703-.825l.048-.46h.169V381c-.241.048-.217-.243-.217-.413zm7.853-.871c.34-.146.558-.583.291-.873-1.575-1.139-3.515.46-5.187-.412-.315-.242-.364-.726-.17-1.042.484-.679 1.405-.655 2.084-.461-.484.679-2.205-.098-1.963 1.212 1.526 1.115 3.369-.388 5.162.194.364.17.631.727.994.752-.558.025-.558.679-.8 1.043.097.339.461.582.8.63.437-.097.364.436.534.654.122.631-.727.364-1.042.34.17-.267.654-.218.63-.63-1.042-.631-2.569.363-3.32-.994-.267-.097-.606-.315-.872-.049.193.34.727.242.872.679.072.509-.364.8-.29 1.285-.631.145-1.503-.049-2.036.169.024-.146.072-.314.242-.339.533-.17 1.405.387 1.625-.461a.81.81 0 0 1 0-.872c-.436-.364-1.091-.533-1.625-.291-.557.582-1.478.291-2.108.703 0-.364 0-1.018.242-1.358 1.937.144 4.095.266 5.937.121zm-2.859-.462c.75-.242 1.672-.509 2.496-.242 0 .073.049.097.073.121l-2.569.121zm-3.249 2.327c.824-.242 1.672-.702 2.617-.824l.339.485c-.145.364-.533.025-.799.049-.824.096-1.745.387-2.036 1.284 1.406.582 2.569-.29 4.121 0 .193-.387.048-.897.339-1.236l1.649.073c-.17.242-.436.437-.485.751l.194.169 2.327-.048c.291-.558-.073-1.237-.121-1.867.582-.024.752.558.582 1.043-.024.29-.243.63 0 .872.46-.097 1.188-.824 1.454-.121.025.097.072.194.048.291l-5.526.073-.122.122-.048 7.15c-.242-.049-.557-.243-.824-.461 0-.412.242-.872.242-1.357-.46-.072-.872.34-1.406.291-.314-.437-.46-.945-.799-1.381-.606.363-.437 1.623-1.285 1.454-.387-.048-.776-.436-1.163-.122.049.533.897 1.285.17 1.624l-.582.243-.048-7.393-.242-.17h-5.647c.193-.242.266-.945.775-.582.364.17.704.388 1.091.461 1.333-.315 2.545.023 3.902 0 .314-.557 1.017-.315 1.283-.873zm1.284.462c0 .072 0 .145-.072.169h-.218c.024-.146.145-.169.29-.169zm8.024-3.2c.508.169 1.236.267 1.381-.46.267.436.872.896 1.358.412-.122.508.121 1.067.678 1.163-.388.194-.897.702-.508 1.212-.534.146-1.382-.34-1.576.534-.169-.242-.46-.655-.824-.412-.146.096-.291.193-.46.242-.072-.34.145-.678.073-1.067l-.702-.46c.17-.267.532-.122.702-.46l-.122-.704zm3.077 13.209l-.412.291c.17-.484.219-1.212-.17-1.624.194-.679-.654-.824-.339-1.453-.509-.436.17-.825.048-1.333-.267-1.139-.46-2.255-.873-3.32-.314-.024-.435.242-.533.46-.242 1.454-.412 2.933-.751 4.362.121.534.024.995-.291 1.407-.169.702.097 1.454 0 2.133h-.121c-.024-.969-.412-1.964-.097-2.957-.024-.169-.218-.193-.364-.169-.435.169-.266.75-.63.799-.073-.945-1.406-2.108-.17-2.836-.145-.752.631-1.018.8-1.576.558-.169.703-.993 1.333-.993.073-.242-.169-.679.243-.751.314.097.702.048 1.042.048.17.219-.048.436-.048.655.702.048.872.92 1.502 1.042.413.558.146 1.406.582 1.915.024.534.242 1.188-.169 1.527-.049-.388-.097-.776-.413-1.067-.146.291-.048.679-.121 1.067-.605.676-.024 1.573-.048 2.373zm-.993-.873c.388.461.024.994-.121 1.454h-.097c.072-.411-.194-1.114.218-1.454zm-.752 1.987c-1.284.897-2.69 1.697-4.071 2.498v-6.472c.218.364.387.824.582 1.237 0 .412.169.848.582.994.121.944-.219 1.696-.291 2.544.267.17.63-.049.921-.17l.194.291c.436-.193 1.018-.46 1.163-.994 0-.848-.34-1.963.29-2.618.049-.557 0-1.333.339-1.866.509-.049.315.606.534.873.096 1.163-.412 2.23-.485 3.393l.242.29zm-5.066 3.128a2.335 2.335 0 0 1-.339.17v-13.137l.121-.169h8.362c.194.097.146.267.073.461h-7.854l-.242.339c-.047 4.119.098 8.215-.121 12.336zm3.491-11.756c-.023.8-1.017.727-1.212 1.454-.702.606-.485 1.648-1.284 2.157l.048-3.612h2.448zm-.8 8.799v-1.455c.073.436.339 1.091 0 1.455zm2.206-6.86l.218 1.381c-.072.097-.218.049-.34.073-.121-.484-.023-1.017.122-1.454zm2.375 4.072c.461-.242 1.091-.679.994-1.357-.121-.63.024-1.381-.339-1.915.072-.605-.097-1.115-.532-1.502-.461-.243-.752-.655-1.116-.994v-.243c.703.049 1.43-.096 2.036.121v5.89c-.121.437-.388 1.018-.92 1.091-.05-.364-.171-.775-.123-1.091zm.994-8.095c-1.018.023-1.915.218-2.86.048a1.46 1.46 0 0 1 .364-.751c.582.024 1.139.46 1.672.169-.025-.363-.218-.703-.218-1.091.29-.29.63-.509.994-.654.145.704.145 1.552.048 2.279zm-1.164-3.321c.049-.412.194-1.042-.121-1.332-.363.121-.703.532-1.09.46-.122-.218-.364-.364-.364-.63.921-.146 1.72-.024 2.691-.072l.048 2.035c-.437.145-.8-.242-1.164-.461zm-9.719 11.876c.122.243.292.485.292.752a1.1 1.1 0 0 0-1.455.703l-.582-.824c-.364 0-.63.242-1.042.17l.29-.8-.582-.581.703-.461-.291-.994c.364-.024.8.291 1.091-.122l.412-.582.461.631.872-.097c-.097.388-.339 1.018.291 1.163.121.025.315.17.291.291-.217.291-.921.243-.751.751zm-4.993 5.285a.44.44 0 0 1-.412-.17v-12.337l-.242-.169h-7.611v-.461l8.314.048v12.386c-.097.218-.049.484-.049.703zm-1.163-.582c-2.278-1.261-4.824-2.012-6.762-4.072l-.389-.799.049-6.302 7.101.073c.17 3.707.17 7.392.001 11.1zm-6.277-13.21c.436-.072 1.211-.873 1.453 0h-1.453zm6.277-2.374a.443.443 0 0 0-.46-.291.798.798 0 0 0-.703-.703h-.29c-.048-.412-.291-.678.048-.994.46.581 1.671 1.09 1.405 1.988zm-2.448-.752v-.412c.048.387.582.121.46.582-.073.096-.363 0-.46-.17zm0-.533c-.025-.29.17-.654-.049-.921-.436-.073-1.139.655-1.284-.17v-.193l1.915.072c-.703.145-.049.945-.582 1.212zm-3.902 2.205c0 .558-.485.945-.218 1.527l-.583-.073v-1.915c.34-.023.534.315.801.461zm-.873-1.745c-.194-.072-.072-.242-.121-.388.072-.072.145-.17.242-.121 0 .194.024.388-.121.509zm9.259 17.281l.048-6.108.824.751-.363 1.358c.508.096.994-.219 1.526-.194.364.412.437.921.8 1.284l.995-1.284c.508.097 1.042.242 1.526.194 0-.534-.46-1.018-.532-1.576l.824-.533v6.471c-.897.46-1.721 1.14-2.69 1.455-1.043-.485-2.159-.872-2.958-1.818zm19.317-16.506c-.412 3.49 1.042 6.326 2.618 9.065-.073 1.866.096 3.805.29 5.648-.024.291-.145.63-.533.581h-.242a33.86 33.86 0 0 0-.678-5.938c-1.407-2.665-2.546-5.453-2.521-8.725.121-1.018.364-2.061 1.357-2.618.073.607-.364 1.261-.291 1.987zm-2.327 12.313c-.412.291-.776.678-.776 1.163 0 .994.848 1.624 1.357 2.399-1.261-.121-2.4.194-3.563.17-.145-.194-.291-.412-.218-.703 1.139-1.672 2.739-3.127 4.072-4.654.557-.46 1.114-.969 1.914-.92l.219.339c.363 1.333.533 2.788.533 4.193-1.114-.823-2.06-2.205-3.538-1.987zm3.297 3.151c-.34.315-.97.194-1.454.291-.607-.678-1.866-1.381-1.624-2.448.17-.097.461-.17.655-.048.871.605 1.72 1.478 2.423 2.205zm-4.29-27.873c1.212.436 1.891 1.721 2.957 2.447-.848.8-1.938 1.237-2.909 1.867-.193-1.357-.121-2.908-.048-4.314zm-1.746-2.423c1.357-.049 2.229 1.163 3.418 1.551.582.315 1.212.558 1.745.945-.509.413-.195.776-.291 1.285h-.17c-1.018-.872-1.891-1.769-3.029-2.4 0-.242.049-.532-.17-.702-.751 0-1.697.048-2.496-.049.267-.243.63-.509.993-.63zm-6.277 1.55c2.4-.17 4.387.146 6.786-.048l.121.121.073 5.697c-1.43.508-.315 2.278-1.649 2.909a50.752 50.752 0 0 1-5.405 0c-.144-2.91.05-5.698.074-8.679zm-1.358 0h.242l.122 9.089.29.218 6.229.073.339.34-.242.122h-6.981l-.097-.122c.026-3.248-.119-6.617.098-9.72zm-6.495.122c1.842-.364 3.709 0 5.623-.122l.073 3.975c-.388.073-.752-.339-1.116-.532l.412-1.455-.17-.17-1.406.509c-.388-.364-.339-1.091-.994-1.212-.412.46-.364 1.648-1.381 1.115-.242 0-.582-.315-.752.048-.025.485.46.776.46 1.284-.29.146-.508.412-.824.461.026-1.284-.046-2.641.075-3.901zm4.169 5.817c-.291.072-.605-.122-.969-.049l-.533.752c-.315-.34-.655-.969-1.284-.63h-.122l.412-.994-.752-.582c.194-.364 1.188-.388.63-1.043-.048-.145-.388-.387-.096-.484.218.122.509.048.751.072l.412-.582c.315.219.387.946.969.631.145-.049.242-.146.412-.122-.267.509.024 1.091.534 1.285.048 0 .072.024.121.073-.145.339-.63.484-.824.871l.339.802zm-4.242 3.732v-4.824c.291-.048.582.194.824.388-.024.654-.727 1.139-.46 1.745.606.072 1.599-.921 1.842.194.146.218.267.655.655.582.242-.412.412-.824.751-1.163.557 0 1.139.243 1.624.048.097-.63-1.212-1.503-.048-1.793.145-.17.363-.146.508-.291l-.048 6.109.291.097h5.525c.024.29-.121.508-.29.702-.412.024-.971-.242-1.503-.218-.194.436.315.825.17 1.26-.364.267-.848.34-1.116.703l.122.17c-.194 0-.461.194-.582-.097.048-.145.096-.363.29-.412.194-.096.534 0 .582-.29.048-.873-.945-.897-1.333-1.527-1.599-.727-3.272.436-4.896.122v-.122c.582-.072 1.187-.024 1.623-.46.194-.291.436-.582.413-.995-.921.049-2.109-.363-2.908.364-.437.315-.437.824-.582 1.285.121.315.169.678.532.921l-.872.048c-.072-.46.34-.873.121-1.261-.582.17-1.163-.072-1.696-.193.703.12.34-.729.461-1.092zm.582 1.915c-.145.702.097 1.721-.218 2.447-.291.097-.267-.242-.291-.412-.024-.29.219-.533.049-.824h-.461c.122-.097 0-.339-.17-.291-.242-.096-.315.219-.363.291-.049-.097-.146-.024-.219-.048-.46.315.122.702-.072 1.042-.194.073-.145-.145-.218-.218l.048-1.939c.558-.363 1.285-.023 1.915-.048zm-2.666-.533c-.048.34.122.558.049.872-.534-.218-.703-.824-1.091-1.162l2.327.072c-.486.145-.897-.097-1.285.218zm.703-1.673l.17-9.38.29.072.049 9.719-7.272.049c-.024-.097-.072-.17-.048-.291l6.689-.048.122-.121zm-4.896-8.022c.145 0 .242-.122.412-.073-.025.945-.146 2.133-.412 2.859-.17-.315-.388-.654-.752-.752-.315-.048-.582.073-.873.098-.048-.266.291-.29.34-.509-.218-1.017.873-.944 1.285-1.623zm.582-1.285c.048.291-.073.509-.122.752-.29-.121-.436-.849.122-.752zm-1.116 4.241c.049.242-.024.412-.17.582-.024-.218-.073-.436-.29-.582-.242-.024-.461.025-.631.17-.145.291.194.34.34.412-.096.242-.096.679.242.751.412-.073.776-.436 1.043-.8.145.751-.437 1.406-.242 2.205-.267.412.048.921-.049 1.333l-.29-.29c-.17.096-.122.46-.412.339.387-.508 0-1.187.121-1.745-.096-.291-.048-.654-.242-.92-.243.096.048.63-.387.46-.558-.364-.679-.897-.776-1.454 0-.34.218-.631.485-.801.313.39 1.04-.459 1.258.34zm2.981 3.612l.122-1.237c.17.291.17.898 0 1.237h-.122zm1.625-1.817l.17-.219.072 2.788c-.29.194-.776.121-1.115.048.631 0 .582-.726.825-1.091-.413-.606.533-.945.048-1.526zm-1.697-5.987c.581-.194 1.309-.122 1.939-.049l.048 3.709c-.412-.097-.17-.606-.339-.873-.364-.34-.583-.678-.655-1.163-.459-.437-1.333-.752-.993-1.624zm-.679.072c.073.364-.363.63-.121.921.364.606 1.43.678 1.381 1.575.704.29.267 1.188.874 1.576-.025.363.145.945-.219 1.09-.17-.242-.145-.679-.46-.752-.194.29-.146.776-.072 1.114.945.607.242 1.552.121 2.327l-.048.049-.072-1.915c-.485-.509-1.043-.97-1.091-1.625.024-.557.218-1.09-.194-1.526-.17-.994-.34-2.037-.509-2.958.144.027.338-.07.41.124zm-.775 1.794l.29 1.503c-.097.122-.266.048-.387.072-.048-.508.073-1.042.097-1.575zm.193 2.496c.315.461.364 1.043.801 1.455.194.848-.049 1.721-.461 2.327-.048.242.073.387.242.532a4.54 4.54 0 0 1-1.406 0c.17-.217.412-.46.242-.751-.532-.63.243-1.332 0-2.035.437-.485-.217-1.406.582-1.528zm-.944-5.695c.194.121.412.194.582.34-.97.194-2.352.145-3.49.072 1.041.048 1.865-1.333 2.908-.412zm-3.128 1.405c.727-.218 1.576-.072 2.376-.122.485 1.091-.8 1.067-1.115 1.867.025.459-.606.654-.63 1.09l-.631.46a18.875 18.875 0 0 1 0-3.295zm0 5.494a1.011 1.011 0 0 1 0-.55c.014.181.011.365 0 .55.293.97 2.2.987 1.552 2.408-.34.193-.219.824-.752.702-1.229-.771-.864-1.972-.8-3.11zm-2.277-5.494c.46-.097.97-.824 1.333-.484v1.648c-.339.509-.873.799-1.333 1.163-.267-.751 0-1.575 0-2.327zm.169 3.66c.145-.509.606-.97 1.042-1.236a27.185 27.185 0 0 1 0 3.975c-.678-.267-1.333-.558-1.915-1.115.364-.533-.194-1.72.873-1.624zm-10.301-4.726l-.097-.097c.291-.195.703-.34.799-.704.243-.508-.412-.605-.46-.994 1.478-1.018.024-3.247 1.211-4.484-.169-.508-.727-.944-.508-1.575.291-.315 1.066.485.75-.29.291-.436.267-1.479 1.164-.97.193 0 .291.218.533.17.34-.34.533-.921 1.091-.533.29.388.702.29.994 0 .048-.048.097-.146.169-.122.097.219.024.485.243.655.412.024.775-.024 1.091-.17l.073.8c.339 0 .557-.267.921-.169-.122.582.048 1.26-.461 1.696.413 1.381.631 2.835.704 4.363 1.211 1.308 1.163 3.198.921 4.943-.049.461.073.849.121 1.261-.266.17-.412-.267-.532-.46-.291-1.358.702-2.957-.388-4.072-.194.412.072.945 0 1.454-.194 1.261-.582 2.933.388 3.951.145.266.024.557-.097.775-1.115-.484-1.357-1.648-1.454-2.69l-.194-.17c-.8 1.163.654 2.4-.34 3.49-.534-.364-1.333-.776-1.163-1.575.024-.921.994-2.012-.049-2.666-.243.29-.049.776-.194 1.091-.97.994.024 2.399-.801 3.393-1.623-1.285.509-3.32-.944-4.726.121 1.454-.897 2.642-.679 4.144-.219.46-.727.727-1.163.921.363-.921 1.018-1.842.63-2.909-.315.46-.533 1.26-1.212 1.406.34-.994.509-2.158.509-3.2l-.703.581c.049-.92.122-2.132.413-2.981-.364.294-.801.609-1.286.463zm-3.95 23.389c.193-.437.75-.533 1.115-.799.727-.582 1.018-1.43 1.042-2.23-.097-.218-.267-.024-.413-.049-.048-.242.146-.679-.169-.751l-.752.291c.072-.436.34-1.018.218-1.527-.17-.145-.339.049-.509.073.072-.606.291-1.308.048-1.915-1.139 1.261-2.447 2.473-4.12 2.376-.145.17-.025.532.121.75.097 1.188-1.43 1.115-1.696 2.158-.194-.049-.17-.389-.242-.583.193-1.042 2.108-1.43 1.236-2.787-.8-1.673-.097-3.587.509-5.114.145-.606.533-1.188.291-1.867l-.388-.654c.17-.242.824-.121.582-.582-.219-.412-.606-.654-.873-1.041.461-.267 1.018.63 1.333-.049-.194-.582-.897-.944-1.042-1.575l-.072-1.866c.267.242.436.751.873.824.412-.533.218-1.406.17-2.036-.122-1.648-.413-3.66.945-4.822.654-.606 1.866-.436 2.448.291 2.327 2.278-.558 4.847.218 7.489-.339-.727-.509-1.503-.752-2.254l-.29.509c-.364-.776.75-1.649-.049-2.157-.049-.098-.17-.194-.121-.34.34-.024.703-.315.8-.631.097-.775.145-1.672-.291-2.278-.315-.412-.799-.654-1.332-.461-1.14.534-.945 1.819-1.042 2.909.533 4.267.461 8.798-1.285 12.507-.073.702-.146 1.551.363 2.084.242.291.63.437.969.291 1.528-.509 1.6-2.909 3.49-2.617l.194-.219c.242-2.665 1.309-4.992 3.126-6.981 1.043.025 1.891-.436 2.618-1.163.509.413.243 1.188.243 1.745h.17c.679-.557 1.406-1.139 1.793-1.938.485.387.606.994.994 1.454l1.285-1.673c.412.146.63.582.872.921.389-.266.631.437 1.043.46 1.454.485 2.714 1.939 2.909 3.442.17.315.412.607.532.921a1.877 1.877 0 0 0-.654-.46c-.266.242.048.532 0 .824-.364.072-.46-.897-.872-.364l.072.485h-.291c-.023-.217.073-.485-.169-.582-.194-.072-.315.388-.485.049.412-.679.048-1.261-.29-1.867l-.388-.34-4.024-1.236c-.412-.242-.581-1.188-1.163-.921-.024.437-.024.897.243 1.213-.412-.097-.461.412-.412.702-.073.169.072.242.169.364.194 0 .34-.218.412-.364v-.29c.024.145.193.242.291.363.388-.266.824-.048 1.162.17-.217.17-.217.8-.654.509-.121-.048-.242-.169-.387-.169l-.291.534-.582-.364c-.073 1.261-1.575.849-1.987 1.988-1.794 2.594.703 6.545-1.697 8.895.606.824-.097 1.697-.291 2.497-.048-.461-.532-.679-.678-1.163-.388.849-1.817 1.26-1.527 2.399-.945.849.048 2.012.243 2.957.412.776 1.309.824 1.915 1.407.557.193 1.721-.267 1.623.75v.291c-.532.121-.363-.63-.799-.752-.267.049-.509-.218-.703.049-.024.17.17.291.291.364.072 0 .193-.048.218.048-.145.121-.315.17-.46.34-.388-.63-1.091-.606-1.455-1.212-.048.34.049.751.364.994l.34.218c-.243.121-.412-.218-.582.072-.073.364.484.315.412.703-.145.218-.388.218-.582.34.461-.921-.534-1.357-.824-2.084.024-.097-.072-.121-.122-.194-.169.194-.121.558-.048.776.048.169.29.29.339.46-.388-.363-1.236.509-1.333-.363-.146-.654.896-1.697-.219-1.915-.121.218-.218.485-.485.582-.096-.461.049-1.261-.339-1.745l-.582.534c-.826-1.337.557-2.501.169-4.028zm5.598 7.635c-.049.097-.17.025-.242.049-.097-.218-.388-.339-.291-.63.339-.001.655.121.533.581zm-3.15-.194c-.073.121-.17.146-.291.121l-.049-.218c.121.001.267-.049.34.097zm-11.102 7.514c-.072-.17-.34-.121-.291-.34 3.32-1.672 7.368-2.327 11.15-2.157-2.908 2.4-6.98 4.193-10.859 2.497zm17.379-1.164l.364-.582c1.042.267 2.157.364 3.126.824-.557.727-1.139 1.454-1.503 2.255-.751-.655-2.254-1.285-1.987-2.497zm5.065 1.794c.655.146 1.358.194 1.987.412-.944.824-2.156 1.309-3.32 1.697-.412.049-.824-.025-.994-.412-.169-.267.097-.461.17-.703.752-.267 1.479-.534 2.157-.994zm33.278 1.866c-.436.654-1.309.509-1.915.363-1.236-.436-2.471-.945-3.441-1.817l1.915-.509c1.018.315 2.012.752 3.151.8.145.363.509.727.29 1.163zm.801-.993c-.461-.727-1.091-1.528-1.745-2.255 1.163-.17 2.229-.607 3.49-.533l.193.242c-.218 1.018-1.357 1.673-1.938 2.546zm19.099-2.085c-2.11 1.696-5.575 1.551-7.853.34-1.09-.582-2.23-1.091-3.199-1.915 3.781-.557 7.732.097 11.053 1.454v.121zm2.497-5.114c-.437 1.503-1.552 2.715-2.036 4.193-12.531-4.556-24.746 1.721-37.471 1.794-13.283 1.091-24.916-7.223-37.811-2.157l-1.915.873c-.461-.412-.485-1.067-.873-1.575l-1.503-2.036c3.709-2.569 8.072-3.588 12.894-3.49l.413.775c.139.321.502.503.752.63.266.315.484-.121.775-.048.097.097.025.267.048.388 1.019.727 1.891-1.357 2.788-.049.485.145.46-.412.703-.631v-.193c.388-.291.873.387 1.115-.17h.799l12.968 2.739c5.574 1.066 11.755.557 17.16-.461l.073.412c.702-.072 1.623-.048 2.205-.582 2.521-.484 4.75-1.212 7.441-1.236 1.043-.218 2.061.024 2.909-.63l.412-.412c2.327-.34 4.75-.533 7.223-.533 2.618 1.139 6.181.17 8.726 1.285.726.362 1.525.605 2.205 1.114z"/><path d="M248.515 357.684c.097.34-.217.582-.46.751-.267-.291.17-.607.46-.751zm-6.107.968v.291c-.146.073-.388-.097-.46-.291l.048-.339c.242.025.29.17.412.339zm2.617.365c.194.121.097.363.122.581-.218.048-.388.145-.581-.072l-.582.072c.048.437 1.139.291.412.873-.461.169-.776-.291-.946-.582.073-.243-.121-.388-.048-.655-.243-.266-.704-.315-.534-.752l.073-.048c.63.315 1.357.437 2.084.583zm41.18-.461l-.582.461.121.121c-.218.363-.703 0-.994.096-.121-.485.217-.776.654-.799.268.072.558 0 .801.121zm-38.272 1.963c-.266.436-.702.655-1.09.872-.073-.752 1.115-1.139 1.042-1.962l.121-.121c.243.363.025.847-.073 1.211zm-.581-2.084c-.582.048-1.163.557-1.793.703.024.46.097.945.46 1.212.315-.242.776-.242.995-.63.096-.412.242-.8.46-1.163l-.122-.122zm-.994 1.284h-.096c0-.073-.049-.098-.073-.122.146-.072.291-.122.413-.169.047.146-.122.243-.244.291zm-3.296 1.212c.17.243.727.315.509.702-.558.17-.945-.363-1.091-.75l.048-.703c.34.024.267.533.534.751z"/><path d="M248.637 362.264c-1.043 1.575 1.091 3.126-.46 4.484-.219-.218-.291-.63-.583-.824l-.363.702c-.582-.145-1.188-.242-1.625.291-.314-.921-1.114-.146-1.672-.17-.024-.218.024-.606-.073-.873-.436-.048-.994.607-1.381.122.509-1.454-.703-2.691-.121-4.072l.121-.122c.217.195.025.655.17.921.461.8.703 1.819.629 2.691.437-.388.631-.872.704-1.406.629.412.46 1.236.703 1.866.193.025.291-.242.46-.29.46 1.309 1.139-.315 1.915.29l.122-1.284c.314.121.533.46.824.702.46-.46-.219-.994-.243-1.502-.121-.751.461-1.212.413-1.939-.315-.097-.703-.024-.994.072.193.17.411.218.63.34-.17.218-.582.17-.921.17-.097-.315.17-.582.122-.921l1.09-.048c0-.218-.17-.46-.096-.655.556.195.58.898.629 1.455z"/><path d="M246.141 361.271c-.364.29-.946.266-1.406.194-.048-.146-.146-.242-.122-.413.533-.023 1.018.073 1.528-.169.266.096 0 .266 0 .388zm-2.28 1.453h-.702c-.025-.387.436-.364.655-.508.193.048.121.363.047.508zm42.295-.29a.998.998 0 0 1-.17.944l-.121.122c-.17-.195-.049-.655 0-.946.097-.047.17-.144.291-.12z"/><path d="M246.649 363.089c-.025-.461.024-1.043-.17-1.406l-.169.17c-.194.848-1.018.121-1.503.485-.388-.145 0-.364.048-.534.025-.266-.242-.145-.412-.17-.436.195-1.041.049-1.381.34.242.097.509.146.799.122.437.315.17.872.291 1.333 1.261-.146.17 1.599 1.163 1.866 1.77.435.461-1.843 1.334-2.206zm-1.163 1.454c-.122-.558-.242-1.164-.097-1.746.533.195.145 1.067.339 1.575-.072.049-.072.243-.242.171zm31.242 4.071c.146-.193.024-.436-.121-.582-.607.122-.752-.387-.921-.824l-.63.17c-.364-.024-.364-.485-.703-.509-.436.971-1.018-.17-1.527.291-.072.8-.775.243-1.212.29-.097.34-.024.776-.29 1.043-.559.096-.509.606-.631 1.042.873.388 1.672 1.309 2.036 2.157.799.097 1.817.097 2.545 0 .121-.969.921-1.72 1.624-2.327.096-.314-.582-.46-.17-.751zm-1.042.291c-.34.048-.485-.751-.872-.291-.534-1.236-.897.897-1.455-.17-.509-.048-.412.873-.921.292-.242.217-.29.605-.194.921.073.048.146.17.243.121.145-.799.872.34.92-.532.34.29.824.242.945-.218l.412.46.218-.17c.17.121.194.534.533.388-.388.484-.364 1.236-.945 1.527h-1.381c-.242-.897-1.236-1.406-1.696-2.109.387-.145.702-.315.654-.8v-.122c.436.315.897.097 1.042-.412.339.315.824.461 1.042-.121.243.29.606.582.921.29.219.146.266.703.703.703.049.171-.048.171-.169.243zm-21.062 3.369h-.122v-.412c.146.049.267.291.122.412zm20.31.049c-.679.024-1.406-.024-2.035.072-.097.824-.243 1.648-.704 2.327.97.557 2.521.534 3.442-.072-.436-.679-.727-1.455-.703-2.327zm-.824 2.157l-1.043-.049c.267-.582.024-1.987 1.212-1.406-.217.582 1.019 1.528-.169 1.455zm-28.794 1.332c-.122.146-.291.122-.339-.048.072-.315-.17-.824.217-.921.34.146.292.704.122.969zm-.461.122c.049.169-.048.291-.121.412-.194-.048-.291-.34-.461-.534l.243-.508c.218.121.291.412.339.63zm16.918 2.909c.049.146-.072.194-.096.29-.267.025-.267-.29-.485-.412l.073-.096.508.218zm.995-.17c.096.195-.146.267-.219.412-.145 0-.339 0-.363-.17.169-.121.387-.315.582-.242zm-2.958 7.514c-.387-.073-.702.096-1.042.096-.194-.291-.097-.824-.534-.872-.508.727-1.042.121-1.503-.218l-.532.582c-.267.121-.484-.219-.752-.291-.218.122-.072.388-.122.582-.121.533-.582-.048-.92.048l.048.752c-.242.219-.63.219-.824.485.944.582 1.599 1.454 2.108 2.327l2.618-.073.121-.121c.025-1.262 1.819-1.964 1.334-3.297zm-1.284 1.551c-.533.412-.122 1.696-1.213 1.358-.557-.194-1.308.412-1.526-.291-.291-.412-.509-.8-.873-1.163.242-.048.461-.34.291-.582l-.049-.073c.267.194.727-.048.631-.461v-.121c.17.049.315.17.532.121l.412-.533c.364.388.825.485 1.261.194.194.17.122.582.412.678.267-.023.534-.072.824-.048.146.533-.46.63-.702.921z"/><path d="M257.823 386.647c.025.218.17.388.291.582.096-.097.29-.048.412-.073 0 .412-.364.582-.631.824l-.363-.412c-.073.17-.267.145-.34.291l-.412-.291-.242.412c-.437-.751-.679.558-.971-.17l.097-.752c.242-.121.437.17.703.17l.29-.703.533.534.633-.412zm15.124 1.285c.073.508-.072.944-.339 1.333-.388.363-.824.218-1.284.169.024-.339.46-.508.412-.872.145-.048.266-.169.46-.121.122.194-.048.412-.169.582.339.194.485-.291.582-.508-.048-.219.122-.534-.17-.655-.46-.121-.727.17-.994.461-.17-.291.267-.607.509-.799.387-.148.896-.026.993.41zm-14.543 2.205l-.121-.122c-.801.049-1.697-.096-2.424.122.073.945-.339 1.721-.534 2.545 1.163.484 2.569.121 3.732-.096-.289-.801-.653-1.553-.653-2.449zm-2.254 2.085c.558-.437-.266-1.939.921-1.672.218.097.509.025.752.048.097.509.025 1.067.291 1.503-.558.315-1.358.169-1.964.121zm-23.094 6.974c.211.937-.148 1.387-.588 1.486-.44.098-.956-.154-1.167-1.091-.211-.936.147-1.386.587-1.485.441-.099.957.154 1.168 1.09zm-.691 1.028c.328-.073.209-.711.163-.909-.049-.222-.21-.826-.538-.752-.328.073-.214.689-.164.91.046.198.212.826.539.751zm2.327.016l-.248-2.546.506-.049c.321-.031.899-.053.966.642.027.28-.061.531-.297.693l.556 1.115-.531.052-.557-1.132-.007.001.114 1.175-.502.049zm.361-1.501l.089-.005c.23-.022.305-.187.285-.396-.018-.182-.119-.322-.372-.284l-.068.007.066.678zm3.654-1.251v.475h-.401l-.001 2.083-.506-.001.002-2.083-.397-.001v-.475l1.303.002zm2.133 1.849l-.354-.028.162-.672.085-.382.006.001.027.39.074.691zm-.298-1.756l-.797 2.502.501.041.126-.422.51.042.06.437.538.042-.407-2.599-.531-.043zm4.259 3.117l.466-2.516.5.092c.318.059.879.198.752.885-.052.277-.205.494-.478.584l.226 1.226-.525-.097-.222-1.242-.007-.001-.214 1.161-.498-.092zm.763-1.342l.086.02c.227.041.346-.095.384-.302.033-.18-.027-.343-.279-.376l-.067-.013-.124.671zm3.676-.377l-.1.465-.5-.108-.117.544.441.095-.1.464-.441-.095-.122.564.508.109-.1.465-1.003-.216.538-2.501.996.214zm2.601 1.075a.766.766 0 0 0-.179-.068c-.434-.097-.711.254-.798.638-.083.371.003.87.433.967a.652.652 0 0 0 .198.006l-.106.467a.617.617 0 0 1-.238-.009c-.712-.159-.961-.89-.813-1.546.139-.618.692-1.162 1.365-1.011.085.02.165.055.241.103l-.103.453zm2.466.051l-.101.464-.501-.108-.118.544.441.095-.101.465-.442-.096-.122.564.507.111-.101.464-1.001-.218.543-2.5.996.215zm1.851.377l.331 1.635.008-.005a1.606 1.606 0 0 1 .032-.388l.214-1.13.497.094-.478 2.513-.47-.089-.325-1.634-.008.006-.025.258-.016.104L255.7 403l-.496-.094.478-2.513.476.089zm3.421 1.154a.586.586 0 0 0-.34-.213c-.155-.022-.266.058-.288.213-.059.417.701.549.603 1.235-.064.45-.371.752-.842.685a.785.785 0 0 1-.411-.19l.068-.477a.66.66 0 0 0 .361.189c.161.023.304-.066.328-.235.028-.195-.116-.29-.243-.411-.261-.237-.412-.45-.359-.819.058-.4.339-.713.768-.652.161.023.3.087.426.188l-.071.487zm4.435 1.529c.044-.145.055-.297.058-.491.005-.227-.006-.852-.342-.859-.336-.006-.372.617-.377.845-.005.203.006.852.342.859a.19.19 0 0 0 .123-.042l-.296-.322.266-.249.226.259zm.605.648l-.269.245-.193-.218a.727.727 0 0 1-.471.147c-.452-.009-.892-.378-.872-1.339.019-.959.474-1.31.925-1.301.451.009.892.378.872 1.338-.006.302-.051.647-.208.899l.216.229zm1.704-2.485l.132 1.65c.015.193.015.486.288.464.248-.02.232-.205.221-.395l-.14-1.759.504-.04.148 1.859c.022.27.028.734-.698.792-.47.037-.769-.16-.807-.637l-.152-1.894.504-.04zm3.473 1.571l-.355.025.06-.688.026-.39h.007l.085.381.177.672zm-.56-1.691l-.409 2.594.5-.036.061-.437.511-.036.126.423.538-.039-.796-2.508-.531.039zm3.13-.305l.439 1.466.006-.001.009-1.524.673-.087.594 2.503-.515.066-.357-1.811-.007.001.001.636-.06 1.229-.388.05-.402-1.183-.158-.554-.006-.047-.007.001.163 1.837-.539.069-.106-2.566.66-.085zm5.192-.395l.093-.017c.213-.038.311.096.343.276.047.257-.073.371-.317.406l-.119-.665zm.38 2.108l-.188-1.039.111-.014c.461-.083.717-.409.631-.879-.147-.811-.883-.609-.989-.59l-.518.093.455 2.518.498-.089zm1.777-2.929l.349 1.868c.088.471.406.635.87.549.717-.135.662-.594.612-.861l-.344-1.834-.497.092.324 1.735c.032.187.066.37-.177.415-.27.051-.301-.24-.336-.431l-.304-1.627-.497.094zm3.427 1.965l-.445-2.519.501-.089c.318-.056.891-.124 1.013.565.05.277-.019.533-.242.715l.641 1.068-.525.093-.644-1.085h-.006l.206 1.163-.499.089zm.244-1.525l.087-.012c.227-.041.29-.21.254-.417-.032-.18-.145-.312-.393-.255l-.067.013.119.671zm3.241-1.648l.987 2.439-.534.08-.158-.412-.507.077-.026.439-.497.075.206-2.618.529-.08zm-.066 1.067l-.114-.374-.007.001.004.391-.006.691.352-.053-.229-.656zm4.68-1.586l.731 1.499.006-.007a1.567 1.567 0 0 1-.066-.384l-.075-1.148.505-.033.167 2.553-.478.031-.724-1.501-.006.007.041.256.01.105.077 1.172-.504.033-.167-2.553.483-.03zm3.273-.116l.006 2.559-.506.001-.006-2.558.506-.002zm2.858.116l-.031.474-.399-.025-.134 2.079-.504-.033.134-2.079-.396-.025.03-.474 1.3.083zm2.61.327l-.07.469-.507-.075-.082.55.447.067-.07.47-.447-.067-.086.57.514.077-.071.47-1.014-.152.378-2.531 1.008.152zm2.699.668a.873.873 0 0 0-.405-.23c-.421-.105-.733.178-.829.571-.09.362.039.59.275.851.114.133.248.243.201.434-.041.164-.192.239-.351.199a.643.643 0 0 1-.34-.223l-.115.468c.092.11.252.195.391.229.462.114.797-.156.906-.597.166-.673-.576-.88-.475-1.289.038-.151.156-.22.308-.183a.583.583 0 0 1 .317.246l.117-.476zm-30.194-37.442c.266-.314.702-.412 1.042-.703 1.116.291 2.255-.145 3.03-.92l-1.285-.752c-1.139-.412-1.793 1.236-2.956.388.145-.364.266-.752.29-1.163.072-.485.606-.388.994-.388 1.115-.146 1.551-1.357 1.745-2.157-.364.218-.776.266-1.236.291-.824-.17-1.285.896-2.084.459-.727-.048-.945 1.116-1.624.825.121-.727.606-1.309.872-1.987 1.115-.243 1.406-1.527 1.745-2.448-.921.436-2.327.218-2.617 1.527-.534.291-1.067.8-1.575.921l-.17-1.212c-.049-.776 1.018-.921 1.042-1.648.072-.509.122-1.188-.073-1.624-.314.412-.824.388-1.211.703a1.77 1.77 0 0 0-.534 1.284l-.873.508c-.558.364-.096 1.213-.388 1.575-.34-.435-.363-1.018-.654-1.502-.63-1.091.339-2.545-.8-3.49-.582.485-.994 1.236-.994 2.036.8.848-.122 1.866-.242 2.787-.219-.46-.437-.872-.921-1.115-1.018-.146-.509-1.236-.873-1.793-.387-.63-1.066-.921-1.624-1.042.436.606-.218 1.284.17 1.915.799.46.34 1.308.46 1.987.17.363.703.703.412 1.091-.824-.292-1.599-.751-2.205-1.382-.267-1.067-1.406-1.479-2.229-1.939v.122c-.219 2.181 2.108 2.981 2.52 4.896l-.121.121c-.654-.412-1.527.047-2.157-.195-.364-1.114-1.721-.678-2.448-.872.388.655.679 1.381 1.333 1.866.897-.145 1.188 1.091 2.037.994-.389.413-1.188.389-1.843.461-.726-.63-1.891-.291-2.691-.048.025.218.291.339.412.508.776 1.067 2.206.17 3.03.946-.437.242-1.091-.025-1.527.217-.436.267-.702.703-.582 1.236.097.389.509.679.873.752 6.374.073 12.579.122 18.977-.048l.339-.243c.17-.315.315-.678.17-1.042-.606-1.018-1.962-.46-2.956-.703zm2.907-1.576c-.218.243-.703.29-1.042.17l-.122-.097c.316-.364.826-.315 1.164-.073zm-2.035-2.956c.242-.243.581-.243.921-.243-.025.291-.34.437-.582.534-.17.047-.557-.073-.339-.291zm-2.085-2.788c.146-.291.461-.195.679-.291-.072.315-.218.776-.63.8-.339-.048-.097-.364-.049-.509zm-13.379-.291v-.242c.315-.073.509.314.679.533.048.145.072.291.072.46a1.068 1.068 0 0 1-.751-.751zm-1.114 3.951c-.34.217-.534-.195-.703-.412v-.17c.315-.049.654.097.703.412v.17zm-1.043 2.544c-.242.146-.532.025-.752-.096.122-.194.582-.194.752 0v.096zm12.919-8.07l.387-.364c.267.17.049.557-.048.776l-.412.291c-.242-.219-.024-.51.073-.703zm-3.612-1.237c.218.195.291.582.17.873a.466.466 0 0 0-.122.243c-.266.024-.193-.315-.29-.461-.048-.266.097-.46.242-.655zm.048 1.867c.388.945.606 2.035 1.164 2.86.436-.073.872-.34 1.042-.752-.097-.703.122-1.406.824-1.527-.557.606.339 1.406-.122 2.158-.096.193-.121.412-.121.629.17.219.485.122.654 0l2.206-1.333c-.194.874-.995 1.745-1.213 2.739.461.243.994.485 1.551.34.413-.217.436-.727.825-.872.242.073.484.073.702.243-.872.29-.17 1.478-1.042 1.502-.34-.024-.631.121-.776.412v.534c.8.218 1.745.266 2.521.412-.776.339-1.527.727-2.327.97-.219-1.842-1.163-3.636-2.909-4.654-1.067-.678-2.424-.848-3.732-.751.148-.947.511-1.941.753-2.91zm-3.902-.63v-.46c.267 0 .315.291.485.46v.461c-.339.072-.436-.195-.485-.461zm-1.963 2.957l2.376 1.406c.29.023.582-.219.654-.461.024-.412.17-.8 0-1.163-.412-.363-.63-.848-.534-1.357l.048-.17c.509.727 1.673.703 1.649 1.818l.582.509c-1.309.29-2.424 1.017-3.442 1.987-.557-.8-.824-1.745-1.333-2.569zm-1.623 3.151c-.122-.049-.048-.17-.072-.243.654.073 1.478-.412 1.987.17l.703-.048c-.243.508-.583.97-.703 1.502-.462-.654-1.14-1.212-1.915-1.381zm-.582 2.084c.557-.218 1.551-.242 2.326-.412l-.122 1.115c-.726-.097-1.501-.413-2.204-.703zm-.994 2.036a.689.689 0 0 1 .29-.46c.437.048.97.266 1.091.702-.435 0-1.163.267-1.381-.242zm4.774.242c-.824-.072-2.181.485-2.569-.459l-.048-.195c.751-.121 1.576 0 2.327.122.17.096.364.29.29.532zm.801-.46l.072-.195c.872.195 2.205-.46 2.545.654-.849-.072-2.108.486-2.617-.459zm6.108.509c-.921-.218-2.4.532-2.787-.63h2.497c.218.145.436.218.412.508l-.122.122zm-7.683-1.382c-.049-1.745.994-3.369 2.52-4.314 2.061-1.042 5.066-.776 6.569 1.332.703.849.921 1.891 1.043 2.982-3.395.243-6.642-.266-10.132 0zm11.342 1.382c-.873-.146-2.182.387-2.666-.461l.122-.169 2.253.048c.194.121.436.218.413.46l-.122.122zm3.2-.049c-.727-.072-1.915.485-2.253-.459l.048-.073c.752.096 1.697-.242 2.279.29l-.074.242zm-74.565 61.52v-7.076h.998l2.268 3.58c.525.83.935 1.575 1.271 2.299l.021-.01c-.084-.945-.104-1.806-.104-2.908v-2.961h.86v7.076h-.924l-2.246-3.59c-.493-.788-.966-1.596-1.323-2.362l-.032.011c.053.892.073 1.742.073 2.918v3.023h-.862zm7.389-2.373c.021 1.25.818 1.764 1.742 1.764.661 0 1.061-.115 1.406-.262l.158.661c-.326.147-.882.315-1.69.315-1.564 0-2.499-1.029-2.499-2.563 0-1.532.903-2.739 2.384-2.739 1.658 0 2.1 1.459 2.1 2.394 0 .188-.021.336-.032.43h-3.569zm2.708-.661c.011-.588-.241-1.501-1.28-1.501-.935 0-1.344.861-1.418 1.501h2.698zm2.4-2.047l.672 2.583c.147.566.283 1.092.378 1.616h.031c.115-.515.283-1.061.451-1.606l.83-2.593h.776l.788 2.54a21.6 21.6 0 0 1 .451 1.659h.031c.084-.515.221-1.05.389-1.648l.725-2.551h.913l-1.638 5.081h-.84l-.777-2.425a17.104 17.104 0 0 1-.451-1.669h-.021a15.05 15.05 0 0 1-.461 1.68l-.819 2.414h-.84l-1.532-5.081h.944zm9.485 3.968a3.236 3.236 0 0 0 1.638.463c.935 0 1.48-.494 1.48-1.208 0-.661-.378-1.039-1.333-1.406-1.155-.409-1.869-1.008-1.869-2.005 0-1.103.913-1.922 2.289-1.922.724 0 1.249.168 1.563.347l-.252.745a2.813 2.813 0 0 0-1.344-.336c-.966 0-1.333.578-1.333 1.061 0 .661.431.986 1.406 1.365 1.197.461 1.807 1.039 1.807 2.078 0 1.092-.809 2.037-2.479 2.037-.682 0-1.428-.2-1.805-.452l.232-.767zm9.928-1.469c0 1.879-1.302 2.697-2.529 2.697-1.376 0-2.436-1.008-2.436-2.613 0-1.701 1.112-2.698 2.52-2.698 1.459 0 2.445 1.059 2.445 2.614zm-4.031.052c0 1.113.641 1.953 1.543 1.953.883 0 1.544-.829 1.544-1.974 0-.861-.431-1.953-1.522-1.953s-1.565 1.008-1.565 1.974zm9.445 1.144c0 .524.01.987.041 1.386h-.818l-.053-.829h-.021a1.912 1.912 0 0 1-1.68.944c-.798 0-1.753-.44-1.753-2.226v-2.971h.924v2.813c0 .966.293 1.617 1.133 1.617.62 0 1.051-.431 1.219-.84.052-.137.084-.305.084-.473v-3.118h.924v3.697zm2.642-5.154v1.459h1.323v.703h-1.323v2.74c0 .63.179.987.693.987.241 0 .42-.032.535-.063l.042.692c-.179.074-.462.127-.818.127-.431 0-.777-.137-.998-.389-.262-.273-.356-.725-.356-1.323v-2.771h-.788v-.703h.788v-1.218l.902-.241zm2.361-.913h.924v3.17h.021c.147-.263.378-.493.662-.65.272-.158.598-.263.944-.263.683 0 1.774.42 1.774 2.173v3.023h-.924v-2.918c0-.819-.305-1.512-1.176-1.512-.599 0-1.071.42-1.239.924-.052.125-.063.262-.063.44v3.065h-.924v-7.452zm8.856 7.453l-1.796-7.076h.966l.84 3.58c.21.882.399 1.764.525 2.446h.021c.116-.703.336-1.543.577-2.456l.945-3.57h.955l.861 3.591c.199.84.389 1.68.493 2.425h.021c.147-.776.347-1.564.567-2.445l.935-3.57h.934l-2.005 7.076h-.955l-.893-3.685c-.22-.903-.367-1.596-.462-2.31h-.021a22.297 22.297 0 0 1-.546 2.31l-1.008 3.685h-.954zm10.158 0l-.073-.641h-.032c-.283.399-.829.756-1.554.756-1.028 0-1.554-.725-1.554-1.459 0-1.229 1.092-1.9 3.056-1.89v-.104c0-.42-.116-1.176-1.155-1.176a2.53 2.53 0 0 0-1.323.377l-.209-.608c.42-.272 1.028-.451 1.669-.451 1.554 0 1.932 1.06 1.932 2.078v1.9c0 .44.021.871.084 1.218h-.841zm-.137-2.593c-1.008-.021-2.152.157-2.152 1.144 0 .599.399.883.872.883.661 0 1.081-.42 1.228-.851a.956.956 0 0 0 .053-.294v-.882zm2.38-4.86h.924v7.453h-.924v-7.453zm2.99 5.08c.021 1.25.819 1.764 1.743 1.764.661 0 1.061-.115 1.407-.262l.157.661c-.325.147-.882.315-1.69.315-1.564 0-2.498-1.029-2.498-2.563 0-1.532.902-2.739 2.383-2.739 1.658 0 2.1 1.459 2.1 2.394 0 .188-.021.336-.031.43h-3.571zm2.709-.661c.011-.588-.241-1.501-1.281-1.501-.934 0-1.344.861-1.417 1.501h2.698zm1.908 2.089c.272.179.756.368 1.218.368.672 0 .986-.336.986-.756 0-.441-.263-.683-.944-.935-.914-.325-1.344-.829-1.344-1.438 0-.818.661-1.49 1.753-1.49.515 0 .966.146 1.249.314l-.23.672a1.976 1.976 0 0 0-1.039-.294c-.547 0-.851.315-.851.693 0 .42.304.608.966.86.882.336 1.333.777 1.333 1.533 0 .892-.692 1.522-1.9 1.522-.556 0-1.07-.137-1.428-.347l.231-.702zm11.922.631a6.626 6.626 0 0 1-2.174.388c-1.07 0-1.952-.272-2.645-.935-.609-.588-.987-1.532-.987-2.635.011-2.109 1.459-3.653 3.832-3.653.818 0 1.459.179 1.764.325l-.221.746c-.378-.168-.851-.305-1.564-.305-1.722 0-2.845 1.07-2.845 2.845 0 1.796 1.081 2.855 2.729 2.855.599 0 1.008-.084 1.218-.188v-2.11h-1.438v-.736h2.331v3.403zm6.011-2.268c0 1.879-1.302 2.697-2.53 2.697-1.375 0-2.436-1.008-2.436-2.613 0-1.701 1.113-2.698 2.52-2.698 1.46 0 2.446 1.059 2.446 2.614zm-4.031.052c0 1.113.641 1.953 1.544 1.953.881 0 1.543-.829 1.543-1.974 0-.861-.431-1.953-1.522-1.953s-1.565 1.008-1.565 1.974zm5.477-2.551l.998 2.855c.168.462.304.882.409 1.302h.031c.115-.42.263-.84.431-1.302l.986-2.855h.966l-1.994 5.081h-.882l-1.932-5.081h.987zm5.1 2.708c.021 1.25.818 1.764 1.742 1.764.661 0 1.061-.115 1.406-.262l.158.661c-.326.147-.882.315-1.69.315-1.564 0-2.499-1.029-2.499-2.563 0-1.532.903-2.739 2.384-2.739 1.658 0 2.1 1.459 2.1 2.394 0 .188-.021.336-.032.43h-3.569zm2.708-.661c.011-.588-.241-1.501-1.28-1.501-.935 0-1.344.861-1.418 1.501h2.698zm2.034-.462c0-.598-.011-1.112-.042-1.585h.808l.032.997h.042c.23-.682.787-1.112 1.406-1.112.105 0 .179.011.263.031v.871a1.387 1.387 0 0 0-.315-.031c-.65 0-1.112.493-1.238 1.187a2.589 2.589 0 0 0-.042.43v2.709h-.913v-3.497zm3.473-.21c0-.524-.011-.955-.042-1.375h.818l.053.84h.021c.252-.483.84-.955 1.68-.955.704 0 1.796.42 1.796 2.162v3.034h-.924v-2.929c0-.819-.305-1.501-1.176-1.501-.609 0-1.081.43-1.239.944a1.323 1.323 0 0 0-.063.431v3.055h-.924v-3.706zm5.823 0c0-.524-.011-.955-.042-1.375h.809l.041.819h.032c.283-.483.756-.935 1.596-.935.692 0 1.218.42 1.438 1.019h.021c.157-.284.356-.504.567-.662.304-.23.64-.356 1.123-.356.672 0 1.669.44 1.669 2.204v2.992h-.903v-2.877c0-.976-.356-1.563-1.102-1.563-.525 0-.935.388-1.092.84a1.521 1.521 0 0 0-.074.462v3.139h-.902v-3.045c0-.808-.357-1.396-1.061-1.396-.577 0-.997.462-1.145.924a1.282 1.282 0 0 0-.073.451v3.065h-.902v-3.706zm9.265 1.333c.021 1.25.819 1.764 1.743 1.764.661 0 1.061-.115 1.407-.262l.157.661c-.325.147-.882.315-1.69.315-1.564 0-2.498-1.029-2.498-2.563 0-1.532.902-2.739 2.383-2.739 1.658 0 2.1 1.459 2.1 2.394 0 .188-.021.336-.031.43h-3.571zm2.709-.661c.011-.588-.241-1.501-1.281-1.501-.934 0-1.344.861-1.417 1.501h2.698zm2.034-.672c0-.524-.011-.955-.042-1.375h.818l.053.84h.021c.252-.483.84-.955 1.68-.955.703 0 1.795.42 1.795 2.162v3.034h-.924v-2.929c0-.819-.305-1.501-1.176-1.501-.609 0-1.082.43-1.239.944a1.323 1.323 0 0 0-.063.431v3.055h-.924v-3.706zm6.893-2.834v1.459h1.323v.703h-1.323v2.74c0 .63.179.987.693.987.241 0 .42-.032.535-.063l.042.692c-.179.074-.462.127-.819.127-.43 0-.776-.137-.997-.389-.263-.273-.356-.725-.356-1.323v-2.771h-.787v-.703h.787v-1.218l.902-.241zm-82.028 16.905l-.735 2.226h-.944l2.403-7.075h1.103l2.415 7.075h-.977l-.756-2.226h-2.509zm2.319-.713l-.692-2.036c-.157-.463-.263-.883-.367-1.292h-.021c-.104.42-.22.851-.356 1.281l-.693 2.047h2.129zm7.053 1.553c0 .525.01.986.041 1.386h-.818l-.053-.829h-.021a1.912 1.912 0 0 1-1.68.944c-.798 0-1.753-.44-1.753-2.226v-2.971h.924v2.813c0 .966.293 1.616 1.133 1.616.62 0 1.051-.43 1.219-.84.052-.136.084-.304.084-.472v-3.118h.924v3.697zm1.403.442c.272.178.756.367 1.218.367.672 0 .986-.336.986-.756 0-.441-.262-.683-.944-.935-.913-.325-1.344-.829-1.344-1.438 0-.818.661-1.49 1.753-1.49.515 0 .966.146 1.249.314l-.23.672a1.98 1.98 0 0 0-1.04-.294c-.545 0-.85.315-.85.693 0 .42.305.608.966.86.882.336 1.333.777 1.333 1.533 0 .893-.693 1.521-1.9 1.521-.557 0-1.07-.136-1.428-.346l.231-.701zm5.393-5.596v1.459h1.323v.703h-1.323v2.74c0 .63.179.986.693.986.241 0 .42-.031.535-.063l.042.693c-.179.073-.462.125-.818.125-.431 0-.777-.136-.998-.388-.262-.273-.356-.725-.356-1.323v-2.771h-.788v-.703h.788v-1.218l.902-.24zm2.361 3.044c0-.599-.011-1.112-.042-1.585h.809l.031.997h.042c.23-.683.787-1.112 1.406-1.112.105 0 .179.01.263.031v.871a1.39 1.39 0 0 0-.314-.031c-.651 0-1.113.493-1.239 1.187a2.59 2.59 0 0 0-.042.431v2.708h-.913v-3.497zm6.192 3.496l-.073-.641h-.032c-.283.399-.829.756-1.554.756-1.028 0-1.554-.724-1.554-1.459 0-1.229 1.092-1.9 3.056-1.89v-.105c0-.42-.116-1.176-1.155-1.176-.473 0-.966.147-1.323.379l-.209-.609c.42-.273 1.028-.451 1.669-.451 1.554 0 1.932 1.061 1.932 2.078v1.9c0 .441.021.871.084 1.218h-.841zm-.137-2.593c-1.008-.021-2.152.157-2.152 1.145 0 .598.399.881.872.881.661 0 1.081-.42 1.228-.85a.95.95 0 0 0 .053-.294v-.882zm2.381-4.861h.924v7.454h-.924v-7.454zm3.504.945c.011.314-.22.566-.588.566a.55.55 0 0 1-.556-.566c0-.325.241-.577.577-.577.347 0 .567.252.567.577zm-1.029 6.509v-5.081h.924v5.081h-.924zm5.269 0l-.073-.641h-.032c-.283.399-.829.756-1.554.756-1.028 0-1.554-.724-1.554-1.459 0-1.229 1.092-1.9 3.056-1.89v-.105c0-.42-.116-1.176-1.155-1.176-.473 0-.966.147-1.323.379l-.209-.609c.42-.273 1.028-.451 1.669-.451 1.554 0 1.932 1.061 1.932 2.078v1.9c0 .441.021.871.084 1.218h-.841zm-.137-2.593c-1.008-.021-2.152.157-2.152 1.145 0 .598.399.881.872.881.661 0 1.081-.42 1.228-.85a.95.95 0 0 0 .053-.294v-.882z"/></g><path fill="#07405D" d="M71.1 165.5l-5 5.2 1.7 1.8 3.3-3.4 3.2 3.4 1.8-1.8zm-60.3-15c-2.1 3-4.3 6-6.4 9 .3-.2.7-.4 1-.6.7 0 .9.5.2-.2L4 157.1 1.9 155c-1-1-2.6.6-1.6 1.6l3.7 3.7c.9.9 1.7 1.3 2.6.1 2.1-2.9 4.1-5.8 6.2-8.8.8-1.2-1.1-2.3-2-1.1z"/><path fill="none" stroke="#07405D" stroke-width="2" stroke-miterlimit="10" d="M51.1 151h40v36h-40z"/><path fill="#07405D" d="M150.3 173.3c-.4.4-.4 1 0 1.4s1.1.4 1.5 0l11.9-11.5c.4-.4.4-1 0-1.4l-11.9-11.5c-.4-.4-1.1-.4-1.5 0s-.4 1 0 1.4l10.9 10.8-10.9 10.8zm-36.6-21.6c.4-.4.4-1 0-1.4s-1.1-.4-1.5 0l-11.9 11.5c-.4.4-.4 1 0 1.4l11.9 11.5c.4.4 1.1.4 1.5 0s.4-1 0-1.4l-10.9-10.8 10.9-10.8z"/><path fill="#FFF" d="M229.131 208.262c-16.022 0-29.131-13.109-29.131-29.131S213.109 150 229.131 150s29.131 13.109 29.131 29.131-13.109 29.131-29.131 29.131zm0-54.766c-14.177 0-25.635 11.458-25.635 25.635s11.458 25.635 25.635 25.635 25.635-11.458 25.635-25.635-11.458-25.635-25.635-25.635z"/><path fill="#FFF" d="M220.974 166.313l20.974 12.818-20.974 12.817zM315 150v9h3l-6 9-6-9h3v-9h-9v15h3v6h18v-6h3v9h-24v1.6h25.7V150zm-106.2-47.1h-19.7c-.7 0-1.2.6-1.2 1.2V119c0 .7.5 1.2 1.2 1.2h11.8l8 4.2-2-4.2h1.9c.7 0 1.2-.6 1.2-1.2v-14.9c0-.6-.6-1.2-1.2-1.2z"/><path fill="#E8E8E8" d="M208.5 103.2h-19.1c-.6 0-1.1.5-1.1 1.2v.7c0-.7.5-1.2 1.1-1.2h19.1c.6 0 1.1.5 1.1 1.2v-.7c0-.6-.5-1.2-1.1-1.2zm-7.5 16.2h-11.7c-.6 0-1-.5-1-1.1v.6c0 .6.5 1.1 1 1.1H201l7.5 4-7.5-4.6zm8 .1h-2.5l.3.5h2.1c.5 0 1-.5 1-1v-.9c-.1.6-.3 1.4-.9 1.4z"/><path d="M194.2 114c.1-.2.2-.3.3-.3.1-.1.3-.1.4-.2.1 0 .3-.1.4-.1.1 0 .3-.1.4-.2.1 0 .2-.1.3-.2s.3-.2.4-.3l.3-.3c.1-.1.1-.2.1-.2s-.1 0-.2-.1h-.1c-.8-.1-1.5-.2-2-.3-.5-.1-.9-.2-1.2-.3-.3-.1-.5-.2-.6-.3-.1-.1-.1-.3-.1-.4v-.2c0-.1.1-.2.1-.2 0-.1.1-.2.1-.2 0-.1.1-.1.1-.2.1-.1.2-.3.4-.4s.4-.2.5-.3c.2-.1.4-.2.6-.2.2-.1.4-.1.5-.2.2 0 .4-.1.6-.1.2-.1.4-.1.6-.2.1 0 .2 0 .2.1.1.1.1.2.1.2 0 .1 0 .2-.1.3 0 .1-.1.1-.2.1s-.1.1-.2.1-.2 0-.3.1c-.1 0-.1 0-.2.1-.1 0-.2 0-.3.1-.1 0-.2.1-.2.1h-.1l-.6.3c-.2.1-.3.2-.5.2l-.3.3c-.1.1-.1.2-.1.3.1.1.2.2.4.2s.5.1.8.1.6.1 1 .1c.3 0 .7.1.9.2.3.1.5.2.7.3.2.1.3.3.3.5v.3c0 .1-.1.2-.1.2l-.6.6c-.2.2-.5.4-.7.6-.3.2-.5.3-.8.4s-.6.2-.8.2c-.1 0-.2 0-.3-.1.2-.3.1-.4.1-.5zm6.4-2.7c-.1.1-.1.3-.2.4-.1.2-.2.3-.3.5l-.3.6c-.1.2-.2.4-.3.5-.1.2-.2.3-.4.4-.1.1-.3.2-.4.2h-.2c-.1 0-.1 0-.2-.1-.1 0-.1-.1-.2-.1 0 0-.1-.1-.1-.2 0-.7.1-1.4.2-2 .1-.6.3-1.2.5-1.6.2-.5.5-.9.8-1.2.3-.3.7-.5 1.2-.7h.2c.2 0 .4.1.5.3.1.2.2.5.2 1s.1 1 .1 1.7.1 1.6.1 2.5v.4c0 .1 0 .2-.1.2-.1.1-.1.1-.2.1-.2 0-.3-.1-.4-.2-.1-.1-.1-.3-.2-.5v-2c-.2.1-.2-.1-.3-.2zm-.2-2.2c-.2.1-.4.3-.6.6-.2.2-.3.5-.4.7 0 .1-.1.3-.1.5s-.1.4-.1.6-.1.4-.1.5v.3c.4-.4.7-.9.9-1.4.3-.6.4-1.2.4-1.8zm1.4 6.4c0-.1.1-.3.2-.5l.3-.6c.1-.2.2-.4.3-.7l.3-.6.2-.4v-.2c0-.1-.1-.2-.1-.4s-.1-.5-.2-.9-.2-.9-.3-1.6c-.1-.2-.1-.4-.1-.5s0-.2.1-.3c0-.1.1-.1.2-.1h.2c.1.1.2.1.3.3.1.1.1.2.2.4 0 .1.1.3.1.4s0 .3.1.4v.7c0 .1 0 .3.1.4l.1.2.5-1c.1-.3.3-.7.4-1 .1-.3.3-.6.4-1 0-.1.1-.2.2-.2h.3c.1.1.2.1.2.2s.1.1.1.2v.3c0 .1-.1.2-.1.3-.3.6-.5 1.3-.8 1.9s-.5 1.3-.8 1.9c0 .1-.1.2-.2.4l-.3.6c-.1.2-.2.5-.3.7-.1.3-.2.5-.3.7s-.2.4-.2.5c-.1.1-.1.2-.1.2 0 .1-.1.2-.2.2h-.3c-.1-.1-.2-.1-.3-.2 0-.1-.1-.1-.1-.2v-.2c-.1-.1-.1-.2-.1-.3z" fill="#07405D"/><path fill="#E8E8E8" d="M188.2 118.2v.7c0 .7.5 1.2 1.1 1.2h2.7v-.6h-2.7c-.6-.1-1.1-.6-1.1-1.3z"/><path fill="#CFCFCE" d="M189.1 120.3h3v-13.5c0-.7-.5-1.2-1.2-1.2h-3V119c0 .8.5 1.3 1.2 1.3z"/><path fill="#FFF" d="M190.4 105.5h-19.7c-.7 0-1.2.6-1.2 1.2v14.9c0 .7.5 1.2 1.2 1.2h11.8l-2.4 4.2 7.4-4.2h2.9c.7 0 1.2-.6 1.2-1.2v-14.9c0-.7-.5-1.2-1.2-1.2z"/><path fill="#E8E8E8" d="M183.9 122h-13c-.6 0-1-.5-1-1.1v.6c0 .6.5 1.1 1 1.1h12l-2.3 4 3.3-4.6zm6.7.1h-2.5l-.5.5h2.9c.5 0 1-.5 1-1v-.9c-.1.6-.3 1.4-.9 1.4zm-.5-16.3H171c-.6 0-1.1.5-1.1 1.2v.7c0-.7.5-1.2 1.1-1.2h19.1c.6 0 1.1.5 1.1 1.2v-.7c0-.7-.5-1.2-1.1-1.2z"/><path d="M174.2 119.4c0-.2.1-.4.2-.6.1-.2.1-.5.2-.7.1-.2.2-.5.2-.7.1-.3.2-.5.2-.7l.1-.4c0-.1 0-.1-.1-.2 0-.1-.1-.2-.2-.4s-.2-.5-.3-.9-.3-1-.5-1.7c-.1-.2-.2-.4-.2-.5v-.3c0-.1.1-.1.2-.1h.2c.1 0 .3.1.4.2.1.1.2.2.2.4.1.1.1.3.1.4s.1.3.1.4 0 .2.1.3c0 .1.1.3.1.4s.1.3.1.5l.1.2.4-1.2c.1-.4.2-.7.3-1.1s.2-.7.3-1.1c0-.1.1-.2.2-.2h.3c.1.1.2.1.3.2s.1.1.1.2v.3c0 .1-.1.2-.1.3l-.6 2.1-.6 2.1c0 .1-.1.2-.1.4-.1.2-.1.4-.2.7-.1.3-.2.5-.2.8-.1.3-.2.5-.2.8-.1.2-.1.4-.2.6 0 .2-.1.2-.1.2 0 .1-.1.2-.2.2h-.3c-.1 0-.2-.1-.3-.2s-.1-.1-.1-.2v-.3c.1 0 .1-.1.1-.2zm3.6-4.4l.4-3.2c0-.1.1-.2.1-.2.1-.1.2-.1.3-.1.2 0 .3.1.4.2.1.1.2.2.3.4.1 0 .2 0 .3-.1.1 0 .2-.1.3-.1.3 0 .5.1.7.3.2.2.3.4.4.6.1.2.2.5.2.8.1.3.1.5.1.7 0 .3-.1.5-.2.8-.1.3-.3.6-.5.9s-.4.5-.7.7-.5.3-.8.3c-.2 0-.4-.1-.6-.2-.2-.1-.3-.3-.4-.4-.1-.2-.2-.4-.2-.6-.1-.4-.1-.6-.1-.8zm1 0v.3c0 .1 0 .2.1.3 0 .1.1.2.1.2h.3l.3-.3c.1-.1.2-.3.3-.4s.2-.3.3-.5.1-.3.1-.5c0-.3 0-.5-.1-.8-.1-.2-.2-.4-.3-.5s-.3-.1-.5 0-.3.3-.5.7c-.1.2-.2.5-.2.8.1.2.1.5.1.7zm5 .8c0 .1-.1.2-.1.4 0 .1-.1.2-.2.3-.1.1-.1.2-.2.3-.1.1-.2.1-.3.1-.2 0-.4-.1-.6-.2-.2-.1-.3-.3-.4-.5-.1-.2-.2-.4-.2-.6s-.1-.4-.1-.6l.1-2.7v-.2c0-.1.1-.1.1-.2.1 0 .1-.1.2-.1h.2c.2 0 .3.1.4.2.1.1.2.2.2.4v.1c-.1.1-.1.3-.2.5s-.1.4-.1.7c0 .2-.1.5-.1.8v.7c0 .2.1.4.1.5.1.2.1.2.2.3 0 0 .1 0 .2-.1.1 0 .2-.1.2-.2.1-.1.2-.2.3-.4.1-.2.2-.4.2-.7.1-.3.1-.7.2-1.1v-1.6c0-.1.1-.1.1-.1h.4s.1 0 .1.1c0 0 .1.1.1.2s.1.1.1.1l.2 4.9c0 .1 0 .2-.1.3-.1.1-.1.1-.2.1h-.2s-.1 0-.1-.1l-.1-.1-.2-1.1-.2-.4zm2.1.6c0-.3 0-.6-.1-1.1 0-.4-.1-.9-.1-1.4s-.1-.9-.1-1.4c0-.4-.1-.8-.1-1 0-.1 0-.2.1-.2h.2c.1 0 .2 0 .3.1s.2.1.2.2v1.1c.1-.2.2-.3.3-.4s.2-.2.3-.4l.4-.4c.1-.1.3-.3.5-.4l.1-.1h.3c.1 0 .2 0 .4.1.1.1.2.2.2.3 0 .1 0 .1-.1.2 0 .1-.1.1-.1.2 0 0-.1.1-.2.1s-.1.1-.1.1l-.6.6c-.2.2-.4.4-.6.7-.2.2-.3.5-.4.8-.1.3-.2.5-.2.8 0 .2 0 .5.1.7 0 .2.1.5.1.7v.4l-.1.1s-.1.1-.2.1-.2-.1-.3-.2c-.1-.1-.2-.2-.2-.3z" fill="#07405D"/><path fill="#E8E8E8" d="M169.7 107.7v-.7c0-.7.5-1.2 1.1-1.2h1.6v.7h-1.6c-.6 0-1.1.5-1.1 1.2z"/><path fill="#CFCFCE" d="M170.5 105.5h1.9v10.7c0 .7-.5 1.2-1.2 1.2h-1.9v-10.7c.1-.6.6-1.2 1.2-1.2z"/><path fill="#FFF" d="M151.1 100.1h19.7c.7 0 1.2.6 1.2 1.2v14.9c0 .7-.5 1.2-1.2 1.2H159l-8 4.2 2-4.2h-1.9c-.7 0-1.2-.6-1.2-1.2v-14.9c.1-.7.6-1.2 1.2-1.2z"/><path fill="#E8E8E8" d="M151.5 100.4h19.1c.6 0 1.1.5 1.1 1.2v.7c0-.7-.5-1.2-1.1-1.2h-19.1c-.6 0-1.1.5-1.1 1.2v-.7c-.1-.7.4-1.2 1.1-1.2zm7.4 16.2h11.7c.6 0 1-.5 1-1.1v.6c0 .6-.5 1.1-1 1.1h-11.7l-7.5 4 7.5-4.6z"/><path d="M153.4 109.4v2.4c0 .1-.1.1-.1.2-.1 0-.1.1-.3.1s-.4-.1-.4-.3c0-.4-.1-.7-.1-1.1s0-.7-.1-1.1c0-.1-.1-.2-.1-.3-.1-.1-.1-.2-.1-.3 0-.1 0-.1.1-.2 0 0 .1-.1.1-.2 0-.6 0-1.2-.1-1.8 0-.6-.1-1.2-.1-1.8v-.2c.1-.1.1-.1.2-.1h.2c.2 0 .4.1.4.2.1.1.1.3.1.5l.1 3.1v.1c0 .1 0 .1.1.1h.3c.1 0 .3-.1.4-.1.2 0 .3-.1.4-.1.1 0 .2-.1.2-.1v-3c0-.2 0-.4-.1-.7 0-.2 0-.5-.1-.7v-.6c0-.1 0-.2.1-.2s.1-.1.2-.1c.2 0 .3.1.4.2.1.1.1.3.2.4v.4c0 .2 0 .4.1.7 0 .2 0 .5.1.7v5.8c0 .1.1.2.1.3v.3c0 .1 0 .2-.1.3 0 .1-.1.2-.3.2-.1 0-.2 0-.3-.1s-.2-.1-.2-.2c-.1-.1-.1-.2-.2-.3 0-.1-.1-.2-.1-.3v-2.4l-1 .3zm5.5-.3c-.1.1-.1.3-.2.5l-.3.6-.3.6c-.1.2-.2.4-.4.5-.1.2-.3.3-.4.4-.1.1-.3.2-.4.2h-.2c-.1 0-.1 0-.2-.1-.1 0-.1-.1-.2-.1 0-.1-.1-.1-.1-.2 0-.8.1-1.5.2-2.2.1-.7.3-1.2.5-1.7s.5-.9.9-1.2c.4-.3.8-.6 1.3-.7h.2c.2 0 .4.1.5.3.1.2.2.6.2 1.1s.1 1.1.1 1.9.1 1.7.1 2.7v.4c0 .1 0 .2-.1.3-.1.1-.2.1-.3.1-.2 0-.4-.1-.5-.2s-.1-.3-.2-.5v-.6c0-.2 0-.3-.1-.5v-1c-.1-.2-.1-.4-.1-.6zm-.3-2.3l-.6.6c-.2.3-.3.5-.4.8 0 .1-.1.3-.1.5s-.1.4-.1.6-.1.4-.1.6v.3c.5-.5.8-1 1-1.5.2-.6.3-1.2.3-1.9zm3.3 3.9l-1.2-3.1c0-.1 0-.1.1-.2 0-.1.1-.1.2-.1h.2c.1 0 .2 0 .3.1.1 0 .1.1.3.2 0 .1.1.2.1.4 0 .1.1.3.2.5s.2.4.3.7c.1.3.3.7.4 1.1l.1.1s0-.1.1-.2c0-.1.1-.2.1-.3 0-.2.1-.4.2-.7.1-.3.2-.7.4-1.2.1-.1.1-.2.1-.4 0-.1 0-.3.1-.4 0-.1.1-.2.1-.3.1-.1.2-.1.3-.1s.3.1.4.2c.1.1.2.2.2.4 0 .1 0 .1-.1.2 0 .1-.1.2-.1.2l-1.4 4.8h-.6c-.1 0-.1 0-.2-.1l-.1-.1-.5-1.7zm7.9-1.6c0 .1 0 .3-.1.3 0 .1-.1.1-.1.2s-.1.1-.2.2l-.3.3-.5.5-.8.8-.4.4c-.1.1-.3.2-.4.3-.1.1-.3.2-.4.2-.1.1-.3.1-.5.1-.3 0-.6-.1-.7-.3-.1-.2-.2-.5-.2-.8v-.5c0-.1 0-.3.1-.5-.1-.1-.2-.1-.2-.2-.1-.1-.1-.1-.1-.2s0-.2.1-.2l.1-.1h.2c.1 0 .1 0 .1-.1 0 0 0-.1.1-.3 0-.1.1-.3.1-.4s.1-.3.1-.4.1-.2.1-.3c.1-.1.1-.3.2-.4.1-.1.1-.3.2-.4l.3-.3c.1-.1.3-.1.4-.1.1 0 .2 0 .3.1s.3.2.4.3c.1.1.2.2.3.4.1.1.1.2.1.3 0 .1 0 .2-.1.3-.1.1-.1.2-.2.3-.1.1-.2.2-.3.2-.1.1-.2.1-.2.2h-.1l-.1.1-.1.1-.1.1s0 .1-.1.1l-.1.1-.2.2-.2.2-.1.1v1.4c.1 0 .1 0 .2-.1s.1-.1.2-.1l1.8-1.7.5-.7c0-.1.1-.1.2-.2s.2-.1.3-.1.2 0 .3.1c0 .1.1.2.1.5zm-2.5-.9s.1-.1 0-.1c0-.1 0-.1-.1-.2l-.1-.1c-.1 0-.1 0-.1.1 0 0-.1.1-.1.2-.1.1-.1.2-.2.3-.1.1-.1.2-.1.3v.1l.7-.6z" fill="#07405D"/><linearGradient id="a" gradientUnits="userSpaceOnUse" x1="251" y1="863.5" x2="251" y2="893.5" gradientTransform="matrix(1 0 0 -1 0 1002)"><stop offset="0" stop-color="#fff" stop-opacity="0"/><stop offset=".272" stop-color="#f0efee" stop-opacity=".5"/><stop offset=".463" stop-color="#e7e7e7"/><stop offset=".596" stop-color="#e7e7e7"/><stop offset=".758" stop-color="#e8e8e8" stop-opacity=".5"/><stop offset="1" stop-color="#efefef" stop-opacity="0"/></linearGradient><path fill="url(#a)" d="M252 138.5h-2v-30h2v15.638z"/><linearGradient id="b" gradientUnits="userSpaceOnUse" x1="301" y1="755" x2="301" y2="802" gradientTransform="matrix(1 0 0 -1 0 1002)"><stop offset="0" stop-color="#fff" stop-opacity="0"/><stop offset=".182" stop-color="#f0efee" stop-opacity=".5"/><stop offset=".463" stop-color="#cfd1d2"/><stop offset=".596" stop-color="#d0d1d2"/><stop offset=".82" stop-color="#e8e8e8" stop-opacity=".5"/><stop offset="1" stop-color="#efefef" stop-opacity="0"/></linearGradient><path fill="url(#b)" d="M302 247h-2v-47h2v24.5z"/><path fill="#07405D" d="M307 105l-5.2-5-1.8 1.7 3.4 3.3-3.4 3.2 1.8 1.8zm48 2l5-5.2-1.7-1.8-3.3 3.4-3.2-3.4-1.8 1.8zm0 46.5l-3.7-3.5-1.3 1.2 2.4 2.3-2.4 2.3 1.3 1.2z"/><circle fill="#AFC5D0" cx="9.5" cy="209.5" r="9.5"/><circle fill="#07405D" cx="9.5" cy="209.5" r="4.5"/><circle fill="#AFC5D0" cx="59.5" cy="209.5" r="9.5"/><path fill="#AFC5D0" d="M100 200h19v19h-19zm50 0h19v19h-19z"/><path fill="#07405D" d="M163.812 204.435c-2.1 3-4.3 6-6.4 9 .3-.2.7-.4 1-.6.7 0 .9.5.2-.2l-1.6-1.6-2.1-2.1c-1-1-2.6.6-1.6 1.6l3.7 3.7c.9.9 1.7 1.3 2.6.1 2.1-2.9 4.1-5.8 6.2-8.8.8-1.2-1.1-2.3-2-1.1z"/><path fill="#FFF" d="M21.5 18.9l-5.3-5.3-.2-.2c.9-1.4 1.4-3 1.4-4.7 0-4.8-3.9-8.7-8.7-8.7S0 3.9 0 8.7s3.9 8.7 8.7 8.7c1.7 0 3.4-.5 4.7-1.4 0 .1.1.1.2.2l5.3 5.3c.4.4.8.5 1.3.5s.9-.2 1.3-.5c.7-.8.7-1.9 0-2.6M8.7 14.7c-3.3 0-6-2.7-6-6s2.7-6 6-6 6 2.7 6 6-2.7 6-6 6M50 0v23h25.2V0H50zm20.6 19.9c0 1.2-1 2.2-2.2 2.2h-3.7v-7.7h-4.4v7.7h-3.7c-1.2 0-2.2-1-2.2-2.2v-8.2l8.2-5.9 8.2 5.9v8.2h-.2zm4.2-9.6l-.4.6c-.2.3-.6.5-1 .4L62.5 3.5l-10.8 7.8c-.4 0-.8-.1-1-.4l-.4-.6c-.4-.5-.2-1.2.3-1.6l11.1-8c.3-.4.8-.7.8-.7s.4.3.9.7l3 2.1c.5.4.9.2.9-.5V1.2c0-.6.5-1.1 1.1-1.1h1.1c.6 0 1.1.5 1.1 1.1v3.6c0 .6.4 1.4.9 1.8l3 2.2c.5.2.6 1 .3 1.5zM100 0l9.9 6-9.9 6.1zm50 0h3v12h-3zm7 0h3v12h-3zm143 20h30v3h-30zm0-10h30v3h-30zm0-10h30v3h-30zM200 6l6.7 6 2.3-2.1-4.3-3.9 4.3-3.9-2.3-2.1zm59 0l-6.7-6-2.3 2.1 4.3 3.9-4.3 3.9 2.3 2.1zm91.5-3.2l14.7 14.7c1.5 1.5 3.8-.8 2.3-2.3L352.8.5c-1.5-1.5-3.8.8-2.3 2.3z"/><path fill="#FFF" d="M365.2.5l-14.7 14.7c-1.5 1.5.8 3.8 2.3 2.3l14.7-14.7c1.5-1.5-.8-3.8-2.3-2.3z"/><path fill="#E21E52" d="M300.3 52l9.8 9.8c1 1 2.5-.5 1.5-1.5l-9.8-9.8c-.9-1-2.5.5-1.5 1.5z"/><path fill="#E21E52" d="M310.1 50.5l-9.8 9.8c-1 1 .5 2.5 1.5 1.5l9.8-9.8c1.1-1-.5-2.5-1.5-1.5z"/><path fill="#FFF" d="M100 50v40h40V50h-40zm30.8 14.5v.7c0 7.3-5.6 15.8-15.8 15.8-3.1 0-6-.9-8.5-2.5.4.1.9.1 1.3.1 2.6 0 5-.9 6.9-2.4-2.4 0-4.5-1.6-5.2-3.8.3.1.7.1 1 .1.5 0 1-.1 1.5-.2-2.5-.5-4.4-2.7-4.4-5.4v-.1c.7.4 1.6.7 2.5.7-1.5-1-2.5-2.7-2.5-4.6 0-1 .3-2 .7-2.8 2.7 3.4 6.8 5.6 11.4 5.8-.1-.4-.1-.8-.1-1.3 0-3.1 2.5-5.5 5.5-5.5 1.6 0 3 .7 4 1.7 1.3-.2 2.4-.7 3.5-1.3-.4 1.3-1.3 2.4-2.4 3.1 1.1-.1 2.2-.4 3.2-.9-.6 1-1.5 2-2.6 2.8zM50.1 50v40h40V50h-40zM76 65.4l-.3 4h-4.1v14h-5.2v-14h-2.8v-4h2.8v-2.7c0-1.2 0-3 .9-4.2s2.2-2 4.3-2c3.5 0 5 .5 5 .5l-.7 4.1s-1.2-.3-2.2-.3c-1.1 0-2.1.4-2.1 1.5v3.1H76zm-53 8.1c-.2 0-.4.1-.6.1-.2.1-.4.2-.5.4v-2.7h-1.2v8.3h1.2v-.5c.2.2.3.3.5.4s.4.1.6.1c.4 0 .6-.1.8-.4.2-.2.3-.6.3-1V75c0-.5-.1-.9-.3-1.1-.2-.3-.5-.4-.8-.4zm-.1 4.7c0 .2 0 .3-.1.4s-.2.1-.3.1c-.1 0-.2 0-.3-.1-.1 0-.2-.1-.3-.2v-3.8c.1-.1.2-.1.3-.2.1 0 .2-.1.3-.1.2 0 .3.1.4.2s.1.3.1.5v3.2h-.1zm-3-11.5c.2 0 .3-.1.4-.2s.2-.2.2-.4v-3.7c0-.1-.1-.3-.2-.4h-.4c-.2 0-.3 0-.4.1s-.2.2-.2.4v3.7c0 .2.1.3.1.4.2 0 .4.1.5.1zm-1.4 11.5c-.1.1-.2.2-.4.3-.1.1-.2.1-.3.1-.1 0-.2 0-.2-.1-.1-.1-.1-.2-.1-.3v-4.7h-1.2v5.1c0 .4.1.6.2.8.1.2.4.3.6.3s.5-.1.7-.2.5-.3.7-.6v.7h1.2v-6.1h-1.2v4.7zm8.2-4.8c-.6 0-1 .2-1.3.5-.4.3-.5.8-.5 1.3v2.7c0 .6.2 1.1.5 1.4s.7.5 1.3.5c.6 0 1.1-.1 1.4-.5.3-.3.5-.8.5-1.4v-.3h-1.3v.3c0 .4 0 .6-.1.7s-.2.2-.4.2-.3-.1-.4-.2-.1-.3-.1-.7v-1.1h2.3v-1.6c0-.6-.2-1-.5-1.3-.5-.4-.9-.5-1.4-.5zm.4 2.4H26v-.6c0-.2 0-.4.1-.5s.2-.2.4-.2.3.1.4.2.1.3.1.5v.6h.1z"/><path fill="#FFF" d="M.1 50v40h40V50H.1zm23 11h1.4v5.2c0 .2 0 .3.1.4s.1.1.3.1c.1 0 .2-.1.4-.1.1-.1.3-.2.4-.4V61H27v6.7h-1.4V67c-.3.3-.5.5-.8.6s-.5.2-.8.2-.6-.1-.7-.3c-.2-.2-.2-.5-.2-.9V61zM18 62.5c0-.5.2-.9.6-1.2s.9-.5 1.5-.5 1 .2 1.4.5.5.7.5 1.3V66c0 .6-.2 1-.5 1.3s-.9.5-1.5.5-1.1-.2-1.4-.5c-.5-.3-.6-.7-.6-1.3v-3.5zm-3.8-3.9l1 3.6h.1l1-3.6h1.6L16 63.9v3.8h-1.6v-3.6l-1.8-5.5h1.6zm19.3 19c0 2.1-1.7 3.8-3.8 3.8H10.6c-2.1 0-3.8-1.7-3.8-3.8v-3.9c0-2.1 1.7-3.8 3.8-3.8h19.1c2.1 0 3.8 1.7 3.8 3.8v3.9z"/><path fill="#FFF" d="M11.5 72.6h1.4v7h1.4v-7h1.4v-1.2h-4.2zM150 50h40v40h-40z"/><path fill="#6A6C6E" d="M206 50c-3.3 0-6 2.4-6 5.3s6 10.7 6 10.7 6-7.7 6-10.7c0-2.9-2.7-5.3-6-5.3zm0 8.1c-1.7 0-3-1.2-3-2.7s1.3-2.7 3-2.7 3 1.2 3 2.7c0 1.5-1.3 2.7-3 2.7z"/><path fill="#FFF" d="M264 50v4.8l-1.5-1.6-2.9 3-1.7-1.8 2.9-2.9-1.5-1.5H250v1.6h8.5l-2.5 2.6h-3.8v7.6h7.7v-3.6l2.1-2.6V64h-12v2h15.2V50z"/><path fill="#08A64E" d="M360.8 50.5c-2.1 3-4.3 6-6.4 9 .3-.2.7-.4 1-.6.7 0 .9.5.2-.2l-1.6-1.6-2.1-2.1c-1-1-2.6.6-1.6 1.6l3.7 3.7c.9.9 1.7 1.3 2.6.1 2.1-2.9 4.1-5.8 6.2-8.8.8-1.2-1.1-2.3-2-1.1z"/><path fill="#07405D" d="M28.1 100.1V121l-10.2 9.1H.1v-14.4h3.1v11.7h13.4l8.4-7.5V103H.1v-2.8h28v-.1zM1.9 112.8H.1v-7.2h3.6c1.9 0 2.6 1.8 2.6 2.8 0 1.7-1.2 2.8-2.8 2.8H1.9v1.6zm0-3.3H3c.6 0 1.1-.4 1.1-1.1 0-.6-.5-1.1-1-1.1H1.9v2.2zm12.4-.2c0 2.1-1.1 3.6-3.6 3.6H7.5v-7.2h3.6c2.3-.1 3.2 1.8 3.2 3.6zm-2.1 0c0-.4-.1-2-1.7-2H9.4v3.9h1.2c1.4 0 1.6-1.3 1.6-1.9zm5.3-2v1.1h3.1v1.7h-3.1v2.8h-1.9v-7.2h5.6v1.7h-3.7v-.1zm60.5-7.2V121l-10.2 9.1H50v-14.4h3.1v11.7h13.4l8.4-7.5V103H50v-2.8h28v-.1zm-24.9 12.7H50v-7.2h3.5c2.4 0 3.2 1.7 3.2 3.6 0 2.3-1.1 3.6-3.6 3.6zm-.1-1.6c1.4 0 1.6-1.3 1.6-2 0-.5-.1-1.9-1.7-1.9h-1v3.9H53zm11.7-2c0 2.1-1.5 3.6-3.6 3.6s-3.6-1.5-3.6-3.6 1.4-3.6 3.6-3.6 3.6 1.5 3.6 3.6zm-2.2 0c0-1.5-.9-1.9-1.4-1.9s-1.4.4-1.4 1.9.9 1.9 1.4 1.9 1.4-.3 1.4-1.9zm5.2-.1c0 .9.3 2 1.4 2 .7 0 1-.4 1.2-1h2.1c0 1.2-1.2 2.7-3.2 2.7-2.3 0-3.6-1.6-3.6-3.7 0-2.2 1.4-3.6 3.6-3.6 2 0 3 .9 3.2 2.7h-2.1c0-.6-.2-1.1-1.1-1.1-1.1.2-1.5 1.1-1.5 2zm60.3-9V121l-10.2 9.1H100v-14.4h3.1v11.7h13.4l8.4-7.5V103H100v-2.8h28zm250 99.983v20.9l-10.2 9.1H350v-27.1h3.1v24.4h13.4l8.4-7.5v-16.9H350v-2.8h28z"/><path fill="#07405D" d="M100 112.8l2.5-3.9-2.3-3.4h2.5l1.1 2 1.1-2h2.4l-2.3 3.4 2.5 3.8h-2.6l-1.2-2.2-1.3 2.2H100zm10.3-2.75v1.1-.1h3.7v1.7h-5.6v-7.2h1.9v2.8m4.259 2.062l1.412-.133c.085.459.257.796.517 1.011.26.215.611.323 1.052.323.468 0 .82-.096 1.057-.287.237-.191.356-.415.356-.672a.618.618 0 0 0-.15-.42c-.1-.116-.274-.216-.522-.301a18.51 18.51 0 0 0-1.162-.304c-.778-.187-1.324-.416-1.638-.688-.441-.383-.662-.85-.662-1.4 0-.354.104-.686.311-.994.208-.309.507-.544.897-.705s.862-.242 1.415-.242c.902 0 1.582.191 2.038.574.456.383.696.894.718 1.533l-1.452.062c-.062-.358-.195-.615-.4-.771-.204-.157-.511-.235-.92-.235-.422 0-.752.084-.991.252a.503.503 0 0 0-.231.432c0 .165.072.305.216.422.183.149.628.304 1.334.465.706.161 1.229.328 1.567.501.338.172.603.408.794.707.191.299.287.669.287 1.108a2.045 2.045 0 0 1-1.314 1.896c-.418.169-.94.254-1.564.254-.909 0-1.607-.203-2.094-.61-.486-.407-.777-.999-.871-1.778z"/><path fill="#FFF" d="M274.571 200l-5.222 5.831 1.827 2.002 3.395-3.742 3.394 3.742 1.828-2.002z"/></svg>