<?xml version="1.0" encoding="UTF-8" standalone="no"?>
<svg width="23px" height="23px" viewBox="0 0 23 23" version="1.1" xmlns="http://www.w3.org/2000/svg" xmlns:xlink="http://www.w3.org/1999/xlink">
    <!-- Generator: sketchtool 40.2 (33826) - http://www.bohemiancoding.com/sketch -->
    <title>182D9D20-9A6A-4EDA-ACAD-43A10D53BC0A</title>
    <desc>Created with sketchtool.</desc>
    <defs></defs>
    <g id="Desktop" stroke="none" stroke-width="1" fill="none" fill-rule="evenodd">
        <g id="01_Home" transform="translate(-838.000000, -30.000000)" fill="#E2231B">
            <g id="Group-23" transform="translate(250.000000, -1.000000)">
                <g id="Group-20" transform="translate(287.000000, 30.000000)">
                    <g id="Group-25" transform="translate(301.000000, 1.000000)">
                        <g id="user">
                            <path d="M11.1447223,0 C4.98977384,0 7.43001301e-05,4.98984814 7.43001301e-05,11.1447966 C7.43001301e-05,17.2995965 4.98977384,22.2898162 11.1447223,22.2898162 C17.2996708,22.2898162 22.2897419,17.2995965 22.2897419,11.1447966 C22.2897419,4.98969954 17.2996708,0 11.1447223,0 L11.1447223,0 Z M11.1786775,16.4027196 L11.1786775,16.402571 L11.1106186,16.402571 L6.35006063,16.402571 C6.35006063,12.9211641 9.40765959,12.9219814 10.0861684,12.0116562 L10.163812,11.5965414 C9.21054134,11.113442 8.53760506,9.94871313 8.53760506,8.58649455 C8.53760506,6.7918492 9.70500871,5.33675545 11.1447223,5.33675545 C12.584436,5.33675545 13.7518396,6.7918492 13.7518396,8.58649455 C13.7518396,9.93712231 13.0908656,11.0945697 12.1503003,11.5853221 L12.2387174,12.0570536 C12.9831305,12.9232445 15.9390125,12.9797126 15.9390125,16.4027196 L11.1786775,16.4027196 L11.1786775,16.4027196 Z" id="Shape"></path>
                        </g>
                    </g>
                </g>
            </g>
        </g>
    </g>
</svg>