<?xml version="1.0" encoding="UTF-8" standalone="no"?>
<svg width="137px" height="32px" viewBox="0 0 137 32" version="1.1" xmlns="http://www.w3.org/2000/svg" xmlns:xlink="http://www.w3.org/1999/xlink">
    <!-- Generator: sketchtool 40.2 (33826) - http://www.bohemiancoding.com/sketch -->
    <title>4630866E-9AC5-41F9-B3B0-C861DAA25972</title>
    <desc>Created with sketchtool.</desc>
    <defs></defs>
    <g id="Symbols" stroke="none" stroke-width="1" fill="none" fill-rule="evenodd">
        <g id="Desktop-Footer" transform="translate(-78.000000, -325.000000)">
            <g id="Logo">
                <g transform="translate(71.000000, 318.000000)">
                    <g id="Group-39" transform="translate(0.000000, 0.542314)">
                        <path d="M40.2395204,14.7698079 C40.1333571,15.0086345 39.8440102,15.1890581 39.8440102,15.1890581 C40.4653776,15.1692428 40.2395204,14.7698079 40.2395204,14.7698079 L40.2395204,14.7698079 Z" id="Fill-3" fill="#FFFFFF"></path>
                        <path d="M28.9114837,31.7049073 C28.9114837,31.7049073 29.0238918,31.9447768 29.261198,32.0918273 C29.4318918,32.1992471 29.8950551,32.4318162 30.0969735,32.6435271 L30.2135449,32.8750533 C30.1698306,32.9063406 30.0595041,32.8656671 29.8263612,32.6497846 C29.5963408,32.4370307 29.4579122,32.5580084 29.4412592,32.6988014 C29.4266878,32.8114357 29.4880959,33.205656 29.4506265,33.4590834 C29.4110755,33.7145965 29.2830551,33.7531843 29.2924224,33.4653409 C29.3028306,33.1816691 29.1446265,32.5256782 28.8646469,32.550708 C28.6502388,32.5715662 28.5378306,32.7697193 28.4753816,32.902169 C28.4077286,33.0398332 28.3046878,33.1754116 28.3369531,33.0596485 C28.3369531,33.0596485 28.3671367,32.7718051 28.2141367,32.4464169 C28.0611367,32.1199858 28.0174224,32.0866127 27.8415245,32.0584541 C27.668749,32.0355101 27.6531367,31.8853309 27.951851,31.754967 C28.2557694,31.6235603 28.3962796,31.5526423 28.9114837,31.7049073 M42.0216061,15.3301639 C41.9352184,14.4760199 41.4762184,14.4061449 41.0255449,14.2215497 C40.5790347,14.0411261 39.7713612,13.8106428 39.4705653,13.6343908 C39.1708102,13.457096 38.8668918,13.398693 38.508851,13.3392471 C38.1508102,13.2808441 37.2505041,13.3392471 36.8393816,13.2745866 C36.4293,13.210969 35.7881571,13.0868626 35.652851,13.1796817 C35.5165041,13.2745866 35.5123408,13.7637118 34.5006673,14.0755421 C33.8772184,14.2684806 33.0872388,14.4614192 32.4960551,14.6324565 C32.4846061,14.3362699 32.5293612,13.4299803 33.3016469,12.134685 C34.2519122,10.5348598 34.5173204,10.0008894 34.1041163,9.58059633 C33.6451163,9.11754391 31.7581163,10.1208242 31.7581163,10.1208242 C31.7581163,10.1208242 31.7976673,9.93831475 31.8216061,9.66090046 C32.3711571,9.33551228 34.463198,8.16745211 35.3177082,8.6461482 C36.3064837,9.19993386 35.0949735,10.7361416 34.9846469,10.8779774 C34.8722388,11.0198133 33.5254224,13.0399317 33.2548102,13.8575738 L33.8189327,13.703223 C33.8189327,13.703223 35.0720755,11.6893621 35.5019327,11.1553917 C35.9317898,10.6214214 36.9372184,9.08938531 36.1357898,8.41357908 C35.3489327,7.74820195 34.0385449,8.00162929 31.8351367,9.42833134 C31.8590755,8.69620792 31.7133612,7.59697987 30.7100143,7.21631741 C28.9895449,6.56554103 23.3691367,7.00982106 16.9878918,12.1211272 C16.9878918,12.1211272 14.5013816,13.8732174 12.1199939,16.3501307 C9.86246327,18.6966802 7.75585102,21.1360487 8.42925918,21.49481 C9.16927959,21.8879874 11.0791776,19.7489772 11.3039939,19.528923 C11.3039939,19.528923 13.3179735,19.6488578 15.8305041,17.4942039 C15.8305041,17.4942039 17.2085449,18.3733778 19.1184429,17.856094 C19.1184429,17.856094 18.3607286,19.7354194 20.5995245,19.5800257 C20.5995245,19.5800257 20.4100959,20.4946585 21.1657286,20.3403077 C21.1657286,20.3403077 16.7453816,22.9308983 16.8213612,23.0351893 C16.8983816,23.1394804 19.0851367,22.1706162 20.1571776,21.6283026 C20.7993612,21.3008286 21.1865449,20.9900411 21.7007082,20.9013937 C22.2127898,20.8169179 24.047749,20.7313992 26.6154429,19.3245125 C29.1862592,17.9155399 30.0064224,16.0987892 30.1271571,14.7930648 C30.1271571,14.7930648 29.4724837,15.3864811 29.3090755,15.3677087 C29.147749,15.3478934 29.414198,14.6752159 29.4797694,14.2392791 C29.5443,13.8022995 30.0636673,12.1179985 29.583851,12.3213661 C29.1019531,12.5226479 27.5792388,14.0317399 27.0317694,13.0649615 C26.6268918,12.3526534 27.7384837,11.0177275 27.7384837,11.0177275 C27.7384837,11.0177275 24.2663204,12.9523271 23.6262184,11.9573902 C23.0610551,11.0750876 24.0186061,10.3825948 24.0186061,10.3825948 C24.0186061,10.3825948 20.1842388,11.8875152 16.2572388,14.5479808 C12.3333612,17.2115751 9.9665449,20.4779719 9.19946327,20.6083358 C8.43550408,20.7366138 15.3652592,12.4465154 22.840402,9.45753285 C26.8777286,7.84310683 29.583851,7.63243884 30.6746265,8.14033643 C31.3126469,8.43756603 31.2345857,9.25207941 31.2345857,9.45127538 C31.2345857,9.45127538 30.6725449,14.8034939 31.6144837,16.1415486 C31.6144837,16.1415486 32.4190347,15.692054 33.0934837,15.3969102 C33.0934837,15.3969102 32.7760347,15.3969102 32.933198,15.1080239 C33.0206265,14.9474156 33.2756265,14.8639827 33.6482388,14.7492626 C34.1478306,14.5907401 35.0075449,14.5239938 35.4655041,14.1881765 C35.9213816,13.8523592 35.8828714,13.7209524 36.1066469,13.6375196 C36.1066469,13.6375196 37.0413,13.8022995 37.5294429,13.7511969 C38.0175857,13.6990513 38.4724224,13.6489916 38.7565653,13.7418107 C39.0427898,13.831501 40.0482184,14.3623426 40.6477286,14.4728912 C41.246198,14.5855255 41.3148918,14.6314136 41.5116061,14.9828746 C41.7457898,15.4000389 41.7499531,15.8213749 41.7499531,15.8213749 L41.7291367,15.8078171 C41.3825449,15.5961062 40.4624633,15.6221789 40.4624633,15.6221789 C40.6914429,15.6472088 40.9183408,15.7441995 40.583198,15.8265895 C40.2480551,15.9089794 39.2634429,16.2197669 39.2634429,16.2197669 C39.5215653,15.8683059 40.1054633,15.6378226 40.1273204,15.6263506 L38.9470347,15.6430372 C39.2176469,15.4563561 39.347749,14.9974753 39.3956265,14.7930648 C39.5059531,14.7774211 39.6079531,14.7461338 39.7078714,14.7117178 C40.0357286,14.6001263 39.6724837,14.5146076 38.9709735,14.4874919 C38.2715449,14.4614192 37.7105449,14.358171 37.7105449,14.358171 L37.5356878,14.6658297 C37.6033408,14.6282849 37.9062184,14.5365087 38.1716265,14.5719677 C38.1841163,14.7065032 38.2465653,15.0183336 38.6025245,15.0527496 C38.7492796,15.0694362 38.865851,15.0412776 38.956402,14.9974753 C38.849198,15.2363019 38.5817082,15.6326081 38.0050959,15.5178879 C37.6085449,15.4375837 37.4045449,15.0454492 37.4045449,15.0454492 C37.4045449,15.0454492 36.9830143,15.9110653 36.5823,16.1227762 C36.1847082,16.33553 34.1207694,17.2793643 33.2714633,18.3254039 C32.4242388,19.3735293 32.0870143,19.7270761 31.4292184,19.9043709 C30.7755857,20.07958 30.7006469,20.0973094 30.6184224,20.1890856 C30.5320347,20.2829476 29.8378102,21.3999051 27.6115041,22.5856948 C26.8995857,22.9642714 26.6060755,22.9538423 26.4853408,22.8318217 C26.2907082,22.6336687 26.5415449,22.3166238 26.4062388,22.3228812 C26.1637286,22.3364391 26.0034429,22.4177861 25.4747082,22.6430549 C24.7492592,22.9538423 24.2985857,23.21457 23.7355041,23.2604581 C23.2244633,23.3032174 22.7259122,23.1457379 22.6915653,22.3917133 C22.6915653,22.3917133 22.6645041,22.3750268 22.3054224,22.5064335 C21.9432184,22.6336687 19.8574224,23.5962754 19.1017898,23.6056616 C18.6948306,23.6108761 19.4442184,22.6659989 19.4442184,22.6659989 C19.4442184,22.6659989 17.4666673,23.8497027 17.0347286,24.0488987 C16.6090347,24.2480947 15.3860755,24.7799792 15.8742184,23.5149283 C15.8742184,23.5149283 13.0546469,25.2847481 8.79562653,26.6040303 C7.42383061,27.0295379 7.09701429,26.8449427 7.10742245,27.18076 C7.1105449,27.3413683 7.2635449,27.3987284 7.4675449,27.415415 C7.76313673,27.4341873 8.29187143,27.4404448 8.78209592,27.3705698 C9.69801429,27.2422917 11.4049531,26.8804017 12.6799531,26.4694948 C14.6387694,25.8437483 15.2226673,25.1668991 16.5798918,25.5444329 C18.3055653,26.0241719 19.1663204,25.308735 19.1663204,25.308735 C19.1663204,25.308735 19.4254837,25.777002 20.4881571,25.7592725 C20.4881571,25.7592725 21.4654837,26.4997392 23.2369531,26.2139816 C23.2369531,26.2139816 23.9238918,26.5748288 24.982402,26.5623139 C25.0469327,26.9502767 25.1416469,27.6083535 25.1041776,28.104779 C25.0386061,28.9693521 25.1000143,29.2133933 25.5850347,28.7878856 C25.5850347,28.7878856 26.1054429,30.2782053 26.1345857,30.6515674 C26.1637286,31.0207578 26.1574837,31.2543698 26.3531571,31.2783568 C26.5519531,31.299215 26.6893408,31.2783568 26.6893408,31.2783568 C26.6893408,31.2783568 26.8236061,31.615217 27.2982184,31.7466238 C27.2982184,31.7466238 27.339851,31.8915884 26.5925449,32.1846463 C26.2220143,32.3306538 25.8785449,32.6810719 26.0117694,32.8510664 C26.0117694,32.8510664 26.319851,32.8562809 26.6539531,32.8354227 C26.6539531,32.8354227 27.0879735,32.4161725 27.6167082,32.7123592 C27.8675449,32.8510664 27.9081367,33.0533911 27.8706673,33.2129564 L27.7811571,33.4069378 C27.7572184,33.4434397 27.7010143,33.5195722 27.6406469,33.6259491 C27.5490551,33.7813428 27.4449735,33.9857534 27.4834837,34.0577142 C27.5490551,34.1807777 27.8061367,34.539539 27.0879735,34.6302723 C27.0879735,34.6302723 27.124402,34.7752369 27.3481776,34.7616791 C27.5698714,34.750207 28.1256673,34.3966603 28.1527286,34.2151938 C28.1527286,34.2151938 28.4170959,33.9169213 28.586749,33.4924565 C28.7532796,33.0711205 28.7740959,33.0022884 28.8292592,33.0711205 C28.8844224,33.135781 29.0800959,33.6019622 28.9270959,33.9648952 C28.8105245,34.2433524 28.7106061,34.2986266 28.802198,34.422733 L28.955198,34.540582 C29.0155653,34.5833413 29.0207694,34.6897182 28.8479939,34.8649272 C28.5461571,35.1673714 29.368402,34.8075671 29.4860143,34.5197237 C29.4860143,34.5197237 29.7451776,34.2193654 29.6379735,33.0721635 C29.6379735,33.0721635 29.6202796,32.9511858 29.7691163,33.0408761 C29.9158714,33.1326523 30.1417286,33.3746076 30.1490143,33.5873614 C30.1563,33.7990723 30.0532592,33.9930537 30.1989735,34.0587571 C30.3446878,34.1255034 30.3467694,34.352858 30.2926469,34.4915651 C30.2385245,34.6281865 29.9210755,34.6719887 29.9960143,34.6949328 C30.0699122,34.7189197 30.6506878,34.7230914 30.7516469,34.0441564 C30.8546878,33.3641785 30.5653408,32.5913816 29.7805653,32.1116426 C28.9968306,31.6319036 28.7387082,31.3920341 28.6169327,28.5094284 C28.5753,27.5051053 28.8667286,26.3318306 29.0759327,25.5475616 L29.0769735,25.5475616 C29.3392592,24.5943411 29.6587898,24.0582849 29.6764837,24.1667476 C29.7056265,24.3555145 29.4485449,25.0813804 29.4266878,25.4432705 C29.4266878,25.4432705 31.7414633,24.2293223 32.4273612,23.6484209 C33.1226265,23.0612621 33.4608918,22.6128104 33.4837898,22.5773515 C33.5087694,22.5418925 34.0843408,21.9766348 34.3070755,20.4696286 L35.1876061,18.7394395 C35.1876061,18.7394395 35.5414837,19.3224267 35.8360347,18.9699228 C36.1285041,18.6153331 36.7394633,17.6183103 36.8331367,17.6078812 C36.8331367,17.6078812 36.9778102,18.0573758 37.1880551,17.9290978 C37.3993408,17.7997768 37.4805245,17.3127374 38.0207082,17.0551385 C38.5608918,16.7964966 39.5028306,16.5128248 39.5028306,16.5128248 C39.5028306,16.5128248 41.6344224,15.9851119 41.7083204,16.1446773 C41.7832592,16.3042426 41.7884633,16.6765618 41.7884633,16.6765618 C41.7884633,16.6765618 42.1121571,16.1843079 42.0216061,15.3301639" id="Fill-5" fill="#FFFFFF"></path>
                        <path d="M16.5729184,25.9970562 C15.9952653,25.7749162 15.1563673,25.98767 14.3237143,26.3641608 C13.4941837,26.7416945 9.50681633,28.0807921 7.22638776,27.9389562 C7.22638776,27.9389562 7.56257143,28.4572829 8.95830612,28.6762942 C8.95830612,28.6762942 8.84173469,29.4553486 10.2145714,29.1570761 C11.5863673,28.8608894 16.512551,26.6467896 17.5492041,26.0554592 C17.5492041,26.0554592 17.1526531,26.2171104 16.5729184,25.9970562" id="Fill-7" fill="#FFFFFF"></path>
                        <path d="M20.1276184,26.1794613 C20.0943122,26.1794613 19.3792714,26.240993 18.894251,25.7946272 L14.0117816,28.3226431 C14.0117816,28.3226431 11.7802714,29.3551249 12.1945163,29.6200242 C12.1945163,29.6200242 12.8908224,30.0173733 14.4520469,29.411442 C16.0132714,28.8065537 20.4013531,26.3598849 20.4013531,26.3598849 L20.1276184,26.1794613" id="Fill-9" fill="#FFFFFF"></path>
                        <path d="M22.2004041,26.6291645 C22.2004041,26.6291645 21.571751,26.6844387 21.0867306,26.435183 C21.0867306,26.435183 18.4524245,28.1142695 17.9549143,28.3833405 C17.4542816,28.6544973 16.6684653,28.9736281 17.5365061,29.1133781 C18.4045469,29.2531282 19.3287918,29.161352 20.8077918,27.8837862 C22.1285878,26.7417988 22.2004041,26.6291645 22.2004041,26.6291645" id="Fill-11" fill="#FFFFFF"></path>
                        <path d="M31.5242449,31.7466238 C32.0425714,31.7330659 33.1999592,32.516292 33.1791429,32.6101539 C33.1604082,32.7050588 32.7482449,32.5006483 32.6275102,32.4516315 C32.5036531,32.4036576 32.3329592,32.386971 32.4724286,32.5799095 C32.6129388,32.7707622 32.7909184,33.2233855 32.7825918,33.3162046 L32.6899592,33.3318483 C32.5338367,32.8886111 32.1383265,32.516292 31.9197551,32.4318162 C31.7022245,32.3462975 31.6345714,32.398443 31.6231224,32.5496651 C31.6095918,32.7008872 31.6855714,32.9981168 31.5169592,32.5736521 C31.3441837,32.1491873 30.9413878,31.7987693 30.8227347,31.7195081 C30.6999184,31.6371181 30.7571633,31.5526423 30.7571633,31.5526423 C30.8102449,31.4921535 30.9070408,31.4838102 31.008,31.4921535 C31.263,31.5161405 31.5242449,31.7466238 31.5242449,31.7466238 M30.571898,25.3608806 C30.0514898,25.6372519 29.4072245,25.9261382 29.4072245,25.9261382 C29.4072245,25.9261382 29.1699184,26.8543289 29.2313265,28.5511449 C29.3093878,30.7506439 29.5456531,31.3659613 30.2617347,31.7799969 C31.2796531,32.3671557 31.4638776,33.2619732 31.455551,33.5435592 C31.4513878,33.826188 31.4222449,33.8991918 31.5138367,34.001397 C31.6043878,34.1036023 31.597102,34.1609624 31.4888571,34.352858 C31.3806122,34.5447536 31.0766939,34.5948133 31.2015918,34.610457 C31.3275306,34.6302723 31.6793265,34.6417443 31.8489796,34.2506527 C32.0155102,33.8606041 32.2132653,33.650979 31.8822857,32.8166503 C31.8822857,32.8166503 32.2663469,32.7551186 32.4151837,33.4695125 C32.5088571,33.9263075 32.3673061,34.0921303 32.7284694,34.2266658 C32.7284694,34.2266658 32.7836327,34.3914457 32.5765102,34.6208861 C32.4162245,34.7992238 32.6420816,34.7533358 32.7825918,34.6865895 C33.0230204,34.5687405 33.2363878,34.2339662 33.1999592,33.8449604 C33.1697755,33.4736841 32.9480816,32.9949881 32.7919592,32.7592902 C32.7919592,32.7592902 33.0604898,32.8187361 33.2082857,33.0857213 C33.3560816,33.3495777 33.3321429,33.4903707 33.6985102,33.4695125 C33.6985102,33.4695125 33.8577551,33.5915331 33.8681633,33.8449604 C33.8785714,34.0973448 33.5652857,34.2777684 33.6683265,34.2600389 C33.7724082,34.2412665 34.4635102,33.9815817 33.9399796,33.1149228 C33.9399796,33.1149228 33.8515102,32.7008872 33.4528776,32.4881334 C33.0542449,32.2764225 32.5515306,31.6913495 31.6304082,31.5286554 C31.6304082,31.5286554 31.2067959,31.0822895 31.1235306,30.8184331 C31.1235306,30.8184331 31.1745306,30.7037129 31.1963878,30.6025505 C31.2203265,30.5024311 30.5989592,27.3340679 32.1039796,24.4963075 C32.1039796,24.4963075 31.0923061,25.0845092 30.571898,25.3608806" id="Fill-13" fill="#FFFFFF"></path>
                        <path d="M20.9804633,33.8749962 L22.0899735,34.3276196 C21.9900551,34.9731814 22.5958102,35.3840883 22.5958102,35.3840883 C22.529198,35.6197861 22.3220755,35.8054242 22.1992592,35.8992862 L22.0910143,35.9785474 L22.1930143,35.9545605 C23.2525653,35.5446965 23.3524837,34.568532 23.3056469,33.8885541 C23.2629735,33.2429923 22.8070959,32.8842309 22.8070959,32.8842309 C22.7935653,32.8894455 24.5900143,33.1324437 25.2384429,33.0010369 C25.8858306,32.8696302 25.232198,32.8404287 25.232198,32.8404287 C23.8843408,32.8550294 22.3834837,32.3137587 21.6195245,32.5619715 C20.5984837,32.8967459 20.5506061,33.8937686 20.5318714,34.0627202 C20.4111367,35.0044687 20.9294633,35.5196667 21.1667694,35.7021761 L21.2812592,35.7793515 L21.2229735,35.66776 C20.6671776,34.6300637 20.9804633,33.8749962 20.9804633,33.8749962" id="Fill-15" fill="#FFFFFF"></path>
                        <path d="M39.5350959,35.2613376 C38.4984429,35.3447705 37.3400143,35.1142872 37.3254429,35.1195018 L37.1693204,35.2175354 C37.9790755,35.5773396 38.8825041,35.5074646 39.0917082,35.5439665 C39.2998714,35.5783825 39.0500755,35.6680729 39.0500755,35.6680729 C37.9280755,36.5900061 36.0670959,36.3125918 33.3287082,36.3125918 C30.5892796,36.3125918 27.719749,37.0906033 26.7757286,37.2480828 C26.3979122,37.3127433 26.0815041,36.9790118 25.8160959,36.8423905 C25.4507694,36.6567524 25.1874429,36.567062 25.1874429,36.567062 C28.4077286,35.8829125 30.2406061,35.6837165 33.6825857,35.4469758 C35.7610959,35.3072257 37.5169531,35.6002837 37.7365653,34.0244454 C37.8010959,33.5478351 37.6959735,33.1609152 37.5127898,32.8522136 C37.1870143,32.2984279 36.6509939,32.0116274 36.417851,31.9094221 L36.1607694,31.9000359 C35.0720755,32.2692264 33.9594429,32.3589167 33.7523204,32.3870753 C33.5368714,32.4131481 33.6534429,32.4778086 33.6534429,32.4778086 C34.8160347,32.5570698 35.7517286,32.2817413 36.0535653,32.1774502 L36.264851,32.168064 C36.4855041,32.2337674 36.9996673,32.4621649 37.2619531,33.185945 C37.7095041,34.4217944 36.7488306,34.7054662 35.9286673,34.7471826 C35.1074633,34.7899419 31.6425857,35.1580895 30.3269939,35.2269216 C29.0124429,35.2957537 25.5465245,35.7744498 24.2902592,35.9632167 C23.3212592,36.1092242 22.086851,36.1957858 22.086851,36.1957858 C21.7517082,36.2010003 22.3012592,36.3543082 23.616851,36.55559 C24.9324429,36.7537431 25.2800755,37.2668552 25.8171367,37.6110158 C26.0596469,37.7653666 26.5196878,37.7664095 26.9578714,37.7226073 C27.5001367,37.6662901 28.6564837,37.3419448 29.3933816,37.210538 C30.8338714,36.9560678 33.3078918,36.6890826 36.7415449,36.7985883 C38.6358306,36.8569913 39.3009122,36.3125918 39.9420551,35.5199795 C40.2438918,35.1434887 39.5350959,35.2613376 39.5350959,35.2613376" id="Fill-17" fill="#FFFFFF"></path>
                        <path d="M48.2635898,32.0465649 L48.2635898,28.1700653 L49.7540388,28.1700653 L49.7540388,32.010063 C49.7540388,33.1145056 50.3056714,33.6901924 51.2174265,33.6901924 C52.1260592,33.6901924 52.6776918,33.1343209 52.6776918,32.0580369 L52.6776918,28.1700653 L54.1671,28.1700653 L54.1671,31.9996339 C54.1671,34.0562541 53.016998,35.0668348 51.1945286,35.0668348 C49.3762224,35.0668348 48.2635898,34.0499967 48.2635898,32.0465649" id="Fill-19" fill="#FFFFFF"></path>
                        <polygon id="Fill-21" fill="#FFFFFF" points="56.9098592 28.1702738 58.2826959 28.1702738 61.4592673 32.3471318 61.4592673 28.1702738 62.9299408 28.1702738 62.9299408 34.9596235 61.6632673 34.9596235 58.3815735 30.6440584 58.3815735 34.9596235 56.9098592 34.9596235"></polygon>
                        <polygon id="Clip-24" points="0 44.845167 152.511857 44.845167 152.511857 0.500597213 0 0.500597213"></polygon>
                        <polygon id="Fill-23" fill="#FFFFFF" points="65.7837551 34.959415 67.2721224 34.959415 67.2721224 28.1700653 65.7837551 28.1700653"></polygon>
                        <polygon id="Fill-25" fill="#FFFFFF" points="69.4291102 28.1702738 71.0746408 28.1702738 72.8450694 32.9509772 74.6175796 28.1702738 76.2256408 28.1702738 73.4851714 34.9596235 72.1695796 34.9596235"></polygon>
                        <polygon id="Fill-26" fill="#FFFFFF" points="78.4017796 28.1702738 83.5111469 28.1702738 83.5111469 29.4978994 79.8807796 29.4978994 79.8807796 30.8745417 83.0750449 30.8745417 83.0750449 32.205296 79.8807796 32.205296 79.8807796 33.6299122 83.5590245 33.6299122 83.5590245 34.9596235 78.4017796 34.9596235"></polygon>
                        <path d="M88.9291163,31.4659764 C89.6545653,31.4659764 90.0708918,31.0780136 90.0708918,30.5064985 L90.0708918,30.4877261 C90.0708918,29.8463359 89.6264633,29.517819 88.9010143,29.517819 L87.4199327,29.517819 L87.4199327,31.4659764 L88.9291163,31.4659764 Z M85.927402,28.1703781 L89.0248714,28.1703781 C89.8866673,28.1703781 90.5559122,28.4133764 91.0013816,28.8576564 C91.3781571,29.236233 91.5800755,29.7702034 91.5800755,30.4105507 L91.5800755,30.430366 C91.5800755,31.5233365 90.9920143,32.2158294 90.1291776,32.5328743 L91.7851163,34.9597278 L90.041749,34.9597278 L88.5918918,32.7863016 L87.4199327,32.7863016 L87.4199327,34.9597278 L85.927402,34.9597278 L85.927402,28.1703781 Z" id="Fill-27" fill="#FFFFFF"></path>
                        <path d="M93.5731347,33.9707355 L94.4557469,32.9121809 C95.0656653,33.4159069 95.7047265,33.7371234 96.4790939,33.7371234 C97.0890122,33.7371234 97.4553796,33.4941252 97.4553796,33.0957332 L97.4553796,33.0769608 C97.4553796,32.70047 97.2232776,32.5054457 96.0887878,32.2155165 C94.7263592,31.8640555 93.8458286,31.4854789 93.8458286,30.1401239 L93.8458286,30.1203086 C93.8458286,28.8886308 94.8314816,28.0720316 96.2188898,28.0720316 C97.2055837,28.0720316 98.0465633,28.3849049 98.733502,28.9366047 L97.9591347,30.0608626 C97.3585837,29.6436983 96.7674,29.389228 96.1980735,29.389228 C95.6256245,29.389228 95.3258694,29.6551703 95.3258694,29.9847301 L95.3258694,30.0024596 C95.3258694,30.4498684 95.617298,30.5927472 96.7871755,30.8941484 C98.1610531,31.2529098 98.9364612,31.7472495 98.9364612,32.9309533 L98.9364612,32.9507686 C98.9364612,34.2992524 97.9112571,35.0543198 96.449951,35.0543198 C95.4226653,35.0543198 94.3880939,34.6976443 93.5731347,33.9707355" id="Fill-28" fill="#FFFFFF"></path>
                        <polygon id="Fill-29" fill="#FFFFFF" points="101.306816 34.959415 102.796224 34.959415 102.796224 28.1700653 101.306816 28.1700653"></polygon>
                        <polygon id="Fill-30" fill="#FFFFFF" points="107.266843 29.5460818 105.204986 29.5460818 105.204986 28.1704824 110.818108 28.1704824 110.818108 29.5460818 108.756251 29.5460818 108.756251 34.9598321 107.266843 34.9598321"></polygon>
                        <polygon id="Fill-31" fill="#FFFFFF" points="114.88999 32.28341 112.287949 28.1701695 114.029235 28.1701695 115.645622 30.8942527 117.291153 28.1701695 118.984561 28.1701695 116.38148 32.2510797 116.38148 34.9595192 114.88999 34.9595192"></polygon>
                        <polygon id="Fill-32" fill="#FFFFFF" points="48.2635898 9.96563902 51.0082224 9.96563902 51.0082224 19.9796691 57.6965082 19.9796691 56.6723449 22.4597111 48.2635898 22.4597111"></polygon>
                        <path d="M64.3358755,9.96563902 L66.8629776,9.96563902 L72.209651,22.4597111 L69.3432429,22.4597111 L68.2014673,19.6594955 L62.927651,19.6594955 L61.788998,22.4597111 L58.9933653,22.4597111 L64.3358755,9.96563902 Z M67.2220592,17.2305561 L65.5640388,13.1788474 L63.9091408,17.2305561 L67.2220592,17.2305561 Z" id="Fill-33" fill="#FFFFFF"></path>
                        <polygon id="Fill-34" fill="#FFFFFF" points="81.2801571 12.500121 77.3646061 12.500121 77.3646061 9.9658476 87.9393 9.9658476 87.9393 12.500121 84.0227082 12.500121 84.0227082 22.4599197 81.2801571 22.4599197"></polygon>
                        <path d="M90.9879551,9.96563902 L96.6885061,9.96563902 C98.2695061,9.96563902 99.4778939,10.3890608 100.323037,11.2338186 C101.033914,11.9492555 101.390914,12.9003902 101.390914,14.0882656 L101.390914,14.1258104 C101.390914,15.137434 101.144241,15.9623765 100.651935,16.5975092 C100.158588,17.2368135 99.5143224,17.7019518 98.7191388,17.9981385 L101.764567,22.4597111 L98.5588531,22.4597111 L95.8881184,18.4643196 L95.8485673,18.4643196 L93.7294653,18.4643196 L93.7294653,22.4597111 L90.9879551,22.4597111 L90.9879551,9.96563902 Z M96.5094857,16.0364231 C97.1901796,16.0364231 97.7074653,15.8758149 98.0675878,15.5545983 C98.4318735,15.2333818 98.6108939,14.8047454 98.6108939,14.2686892 L98.6108939,14.2342732 C98.6108939,13.6366852 98.4214653,13.1913623 98.0394857,12.8951756 C97.663751,12.597946 97.1329347,12.4498527 96.4574449,12.4498527 L93.7294653,12.4498527 L93.7294653,16.0364231 L96.5094857,16.0364231 Z" id="Fill-35" fill="#FFFFFF"></path>
                        <path d="M110.457882,22.6755937 C109.496167,22.6755937 108.611473,22.5055992 107.801718,22.1656103 C106.995086,21.8287501 106.296698,21.3698693 105.710718,20.7910537 C105.120576,20.2164099 104.663657,19.5374749 104.338922,18.7573776 C104.012106,17.9783232 103.848698,17.1429516 103.848698,16.2523057 L103.848698,16.2126751 C103.848698,15.3220292 104.014188,14.4845718 104.347249,13.7065603 C104.681351,12.9275059 105.142433,12.2433563 105.728412,11.6541117 C106.317514,11.0648671 107.015902,10.6007717 107.82878,10.2628686 C108.643739,9.92287967 109.530514,9.75392811 110.495351,9.75392811 C111.456024,9.75392811 112.340718,9.92287967 113.145269,10.2628686 C113.955024,10.6007717 114.653412,11.0606954 115.241473,11.6342964 C115.826412,12.212069 116.286453,12.8930898 116.613269,13.6690155 C116.939045,14.4501557 117.102453,15.2855273 117.102453,16.1793019 L117.102453,16.2126751 C117.102453,17.1085355 116.934882,17.9439071 116.60182,18.7187899 C116.2698,19.500973 115.809759,20.1872084 115.221698,20.776453 C114.634678,21.3646547 113.934208,21.8287501 113.121331,22.1656103 C112.307412,22.5055992 111.422718,22.6755937 110.457882,22.6755937 M110.495351,20.1392345 C111.040739,20.1392345 111.543453,20.039115 112.006616,19.8367903 C112.471861,19.6365514 112.864249,19.3570513 113.193147,18.99829 C113.517882,18.6405716 113.772882,18.225493 113.958147,17.7561831 C114.141331,17.2889591 114.231882,16.786276 114.231882,16.2523057 L114.231882,16.2126751 C114.231882,15.6787047 114.141331,15.1760217 113.958147,14.6973256 C113.772882,14.2217582 113.512678,13.8045939 113.173371,13.4447896 C112.834065,13.089157 112.436473,12.8075711 111.971229,12.597946 C111.509106,12.3935355 111.003269,12.2882015 110.457882,12.2882015 C109.900004,12.2882015 109.391045,12.3862351 108.933086,12.5906457 C108.476167,12.7950562 108.08482,13.0735134 107.759045,13.429146 C107.433269,13.7847786 107.177229,14.2009 106.993004,14.669167 C106.80878,15.1384769 106.715106,15.6442887 106.715106,16.1793019 L106.715106,16.2126751 C106.715106,16.7476883 106.80878,17.254543 106.993004,17.7321962 C107.177229,18.2098494 107.437433,18.6259708 107.77778,18.9784747 C108.115004,19.3382789 108.512596,19.6229936 108.969514,19.8315758 C109.427473,20.0370292 109.935392,20.1392345 110.495351,20.1392345" id="Fill-36" fill="#FFFFFF"></path>
                        <path d="M120.077522,9.96563902 L125.855094,9.96563902 C127.29038,9.96563902 128.37491,10.3369153 129.108686,11.0742533 C129.678012,11.6468113 129.963196,12.3539049 129.963196,13.1976198 L129.963196,13.2351646 C129.963196,13.5907972 129.919482,13.9057562 129.829971,14.1789989 C129.741502,14.4532845 129.62389,14.6983685 129.476094,14.9194656 C129.327257,15.1384769 129.157604,15.3324583 128.961931,15.500367 C128.767298,15.6693185 128.561216,15.8101115 128.335359,15.9290033 C129.054563,16.2012031 129.62389,16.5724793 130.037094,17.043875 C130.450298,17.5142278 130.658461,18.1650042 130.658461,18.99829 L130.658461,19.0337489 C130.658461,19.6073499 130.547094,20.1069042 130.326441,20.5334548 C130.107869,20.9620911 129.793543,21.3198096 129.385543,21.6055671 C128.975461,21.8923676 128.485237,22.1040785 127.911747,22.2448715 C127.332012,22.3919219 126.698155,22.4597111 125.999767,22.4597111 L120.077522,22.4597111 L120.077522,9.96563902 Z M125.278482,15.0185421 C125.884237,15.0185421 126.365094,14.9132081 126.722094,14.7035831 C127.077012,14.5002154 127.256033,14.1623123 127.256033,13.698217 L127.256033,13.6596293 C127.256033,13.2476795 127.100951,12.9275059 126.790788,12.7095375 C126.481665,12.4853117 126.037237,12.3778918 125.45438,12.3778918 L122.750339,12.3778918 L122.750339,15.0185421 L125.278482,15.0185421 Z M126.007053,20.050587 C126.613849,20.050587 127.088461,19.9410814 127.431931,19.7220701 C127.777482,19.500973 127.949216,19.162027 127.949216,18.6979317 L127.949216,18.6603869 C127.949216,18.2411367 127.788931,17.9147056 127.4694,17.6685786 C127.147788,17.4245375 126.631543,17.3004311 125.920665,17.3004311 L122.750339,17.3004311 L122.750339,20.050587 L126.007053,20.050587 Z" id="Fill-37" fill="#FFFFFF"></path>
                        <polygon id="Fill-38" fill="#FFFFFF" points="133.649663 9.96563902 143.035745 9.96563902 143.035745 12.4123079 136.357867 12.4123079 136.357867 14.9455384 141.241378 14.9455384 141.241378 17.3932502 136.357867 17.3932502 136.357867 20.0172139 143.127337 20.0172139 143.127337 22.4597111 133.649663 22.4597111"></polygon>
                    </g>
                </g>
            </g>
        </g>
    </g>
</svg>