<?xml version="1.0" encoding="UTF-8" standalone="no"?>
<svg width="19px" height="19px" viewBox="0 0 19 19" version="1.1" xmlns="http://www.w3.org/2000/svg" xmlns:xlink="http://www.w3.org/1999/xlink">
    <!-- Generator: sketchtool 40.2 (33826) - http://www.bohemiancoding.com/sketch -->
    <title>29916144-91F7-43CE-9888-FF5F98607D13</title>
    <desc>Created with sketchtool.</desc>
    <defs></defs>
    <g id="Desktop" stroke="none" stroke-width="1" fill="none" fill-rule="evenodd">
        <g id="01_Home" transform="translate(-1383.000000, -35.000000)" fill="#E2231B">
            <g id="Group-23" transform="translate(250.000000, -1.000000)">
                <g id="Group-4" transform="translate(920.000000, 17.000000)">
                    <path d="M226.078777,26.9961538 C226.078777,29.8016226 223.796803,32.0846154 220.992586,32.0846154 C218.188369,32.0846154 215.906395,29.8016226 215.906395,26.9961538 C215.906395,24.1906851 218.188369,21.9076923 220.992586,21.9076923 C223.796803,21.9076923 226.078777,24.1906851 226.078777,26.9961538 L226.078777,26.9961538 Z M231.891566,36.4461538 C231.891566,36.059976 231.732623,35.6851563 231.471501,35.4239183 L227.577386,31.5280649 C228.496988,30.1991587 228.985171,28.6090144 228.985171,26.9961538 C228.985171,22.5778245 225.408943,19 220.992586,19 C216.576228,19 213,22.5778245 213,26.9961538 C213,31.4144832 216.576228,34.9923077 220.992586,34.9923077 C222.604727,34.9923077 224.194161,34.5039063 225.522475,33.5838942 L229.416589,37.4683894 C229.677711,37.7409856 230.052363,37.9 230.438369,37.9 C231.233086,37.9 231.891566,37.241226 231.891566,36.4461538 L231.891566,36.4461538 Z" id="search-icon"></path>
                </g>
            </g>
        </g>
    </g>
</svg>