<?xml version="1.0" encoding="UTF-8" standalone="no"?><svg xmlns="http://www.w3.org/2000/svg" xmlns:xlink="http://www.w3.org/1999/xlink"><symbol viewBox="0 0 16 14" id="icon-button-warning"><title>C25997BD-F1C4-4281-AF92-130B63C7F0E0</title><defs><path id="aa" d="M0 13.96h15.821V0H0z"/></defs><g fill="none" fill-rule="evenodd"><mask id="ab" fill="#fff"><use xlink:href="#aa"/></mask><path d="M9.292 4.977l-.16 3.007a1.198 1.198 0 0 1-1.18 1.118h-.027a1.213 1.213 0 0 1-1.191-1.117L6.54 4.976A1.04 1.04 0 0 1 7.589 3.86h.643c.616 0 1.093.503 1.06 1.118M7.94 12.382a1.133 1.133 0 1 1 0-2.267 1.133 1.133 0 0 1 0 2.267m7.685.124L8.75.6c-.462-.8-1.218-.8-1.68 0L.198 12.506c-.462.8-.084 1.454.84 1.454h13.747c.924 0 1.302-.654.84-1.454" fill="#AE1824" mask="url(#ab)"/></g></symbol><symbol viewBox="0 0 10 10" id="icon-close"><title>7D1B3F83-5E8A-4A1E-8344-A198881EBB51</title><g transform="rotate(45 7.4 4.18)" fill-rule="evenodd"><rect y="5.647" width="12" height="1.412" rx=".706"/><rect transform="rotate(90 6 6.353)" y="5.647" width="12" height="1.412" rx=".706"/></g></symbol><symbol viewBox="0 0 8 8" id="icon-nav-indicator"><title>C032F058-DC8D-42E0-B8E6-C42493C0016C</title><ellipse cx="40" cy="5.968" rx="4" ry="3.968" transform="translate(-36 -2)" fill-rule="evenodd"/></symbol><symbol viewBox="0 0 8 13" id="icon-nav-next"><title>1AF435FB-E2CC-42EF-85EA-6261CFAAAF19</title><g fill-rule="evenodd"><path d="M-.05 11.314L6.314 4.95l1.414 1.414-6.364 6.364z"/><path d="M1.364 0l6.364 6.364-1.414 1.414L-.05 1.414z"/></g></symbol><symbol viewBox="0 0 8 13" id="icon-nav-previous"><title>D2482281-7FEF-41AF-A3D5-FC96670B0F52</title><g fill-rule="evenodd"><path d="M7.778 11.314L1.414 4.95 0 6.364l6.364 6.364z"/><path d="M6.364 0L0 6.364l1.414 1.414 6.364-6.364z"/></g></symbol><symbol viewBox="0 0 20 20" id="icon-pencil"><title>D42472BA-49B1-4937-B385-10BA2DC116D0</title><g fill="none" fill-rule="evenodd"><circle fill="#3C3C3C" cx="10" cy="10" r="10"/><path d="M14.634 8.018l-.442.442-2.652-2.652.442-.442a1.25 1.25 0 0 1 1.768 0l.884.884a1.25 1.25 0 0 1 0 1.768zM8.447 13.32a.312.312 0 1 0 .441.442l4.862-4.861-.442-.442-4.861 4.86zm-2.21-2.21a.312.312 0 1 0 .441.442l4.862-4.86-.441-.443-4.862 4.861zm5.745-3.977L7.12 11.995a.625.625 0 0 0 .885.883l4.861-4.86-.884-.884zm-3.979 7.07a.912.912 0 0 1-.248-.535c-.063.01-.127.019-.193.019-.334 0-.647-.13-.884-.367a1.243 1.243 0 0 1-.366-.884c0-.06.01-.12.018-.18a.927.927 0 0 1-.535-.262c-.014-.014-.02-.033-.032-.048L5 15l3.045-.762c-.013-.013-.029-.022-.042-.035z" fill="#FFF"/></g></symbol></svg>