<?xml version="1.0" encoding="UTF-8" standalone="no"?><svg xmlns="http://www.w3.org/2000/svg" xmlns:xlink="http://www.w3.org/1999/xlink"><symbol viewBox="0 0 16 14" id="icon-button-warning"><title>C25997BD-F1C4-4281-AF92-130B63C7F0E0</title><defs><path id="aa" d="M0 13.96h15.821V0H0z"/></defs><g fill="none" fill-rule="evenodd"><mask id="ab" fill="#fff"><use xlink:href="#aa"/></mask><path d="M9.292 4.977l-.16 3.007a1.198 1.198 0 0 1-1.18 1.118h-.027a1.213 1.213 0 0 1-1.191-1.117L6.54 4.976A1.04 1.04 0 0 1 7.589 3.86h.643c.616 0 1.093.503 1.06 1.118M7.94 12.382a1.133 1.133 0 1 1 0-2.267 1.133 1.133 0 0 1 0 2.267m7.685.124L8.75.6c-.462-.8-1.218-.8-1.68 0L.198 12.506c-.462.8-.084 1.454.84 1.454h13.747c.924 0 1.302-.654.84-1.454" fill="#AE1824" mask="url(#ab)"/></g></symbol><symbol viewBox="0 0 8 5" id="icon-caret-down"><path d="M-7.057.95L3.55-9.657 14.157.95 3.55 11.557z"/></symbol><symbol viewBox="0 0 10 10" id="icon-close"><title>7D1B3F83-5E8A-4A1E-8344-A198881EBB51</title><g transform="rotate(45 7.4 4.18)" fill-rule="evenodd"><rect y="5.647" width="12" height="1.412" rx=".706"/><rect transform="rotate(90 6 6.353)" y="5.647" width="12" height="1.412" rx=".706"/></g></symbol><symbol viewBox="0 0 8 8" id="icon-nav-indicator"><title>C032F058-DC8D-42E0-B8E6-C42493C0016C</title><ellipse cx="40" cy="5.968" rx="4" ry="3.968" transform="translate(-36 -2)" fill-rule="evenodd"/></symbol><symbol viewBox="0 0 8 13" id="icon-nav-next"><title>1AF435FB-E2CC-42EF-85EA-6261CFAAAF19</title><g fill-rule="evenodd"><path d="M-.05 11.314L6.314 4.95l1.414 1.414-6.364 6.364z"/><path d="M1.364 0l6.364 6.364-1.414 1.414L-.05 1.414z"/></g></symbol><symbol viewBox="0 0 8 13" id="icon-nav-previous"><title>D2482281-7FEF-41AF-A3D5-FC96670B0F52</title><g fill-rule="evenodd"><path d="M7.778 11.314L1.414 4.95 0 6.364l6.364 6.364z"/><path d="M6.364 0L0 6.364l1.414 1.414 6.364-6.364z"/></g></symbol><symbol viewBox="0 0 20 20" id="icon-pencil"><path d="M11.98 5.37l-.44.44 2.65 2.65.44-.44c.49-.49.49-1.28 0-1.77l-.88-.88a1.25 1.25 0 0 0-1.77 0zm-.88.88l-4.86 4.86c-.13.12-.13.32 0 .44.12.13.32.13.44 0l4.86-4.86-.44-.44zm.88.88L7.12 12c-.24.24-.24.63 0 .88.24.24.64.24.88 0l4.87-4.86-.89-.89zm1.33 1.33l-4.86 4.86c-.13.12-.13.32 0 .44.12.13.32.13.44 0l4.86-4.86-.44-.44zm-7.55 3.49L5 15l3.04-.76a.903.903 0 0 1-.28-.57c-.07.01-.13.02-.2.02-.33 0-.65-.13-.88-.37-.24-.24-.37-.55-.37-.88 0-.06.01-.12.02-.18-.2-.03-.39-.12-.54-.26l-.03-.05zM20 10c0 5.52-4.48 10-10 10S0 15.52 0 10c0-2.29.77-4.4 2.06-6.08C3.89 1.54 6.77 0 10 0c5.52 0 10 4.48 10 10zm0 0"/></symbol></svg>